<svg width="331" height="416" viewBox="0 0 331 416" fill="none" xmlns="http://www.w3.org/2000/svg">
<path d="M72.4015 245.331L72.2084 244.445L72.0154 243.839C71.7219 243.399 71.3744 243.142 70.9651 243.059C70.5558 242.975 70.1079 243.028 69.6291 243.225C69.1504 243.415 68.6406 243.702 68.1232 244.089C67.6058 244.475 67.0961 244.914 66.5864 245.407C66.0845 245.899 65.5903 246.399 65.1115 246.921C64.6404 247.436 64.2157 247.929 63.845 248.383C63.4743 248.845 63.1577 249.247 62.9029 249.587L62.3855 250.231C62.2542 250.383 61.9916 250.701 61.5978 251.186C61.2116 251.67 60.7715 252.231 60.2927 252.882C59.8139 253.534 59.3273 254.23 58.8562 254.988C58.3774 255.738 57.9837 256.457 57.6748 257.139C57.3736 257.813 57.2037 258.434 57.1573 258.987C57.1187 259.54 57.304 259.934 57.7133 260.184C58.1844 260.479 58.7405 260.585 59.3891 260.487C60.0301 260.396 60.6942 260.176 61.3892 259.828C62.0765 259.479 62.7793 259.04 63.4744 258.517C64.1771 257.987 64.8257 257.465 65.4435 256.927C66.0536 256.397 66.6096 255.882 67.0962 255.389C67.5827 254.897 67.9688 254.511 68.2391 254.238C68.8105 253.632 69.3588 253.011 69.8762 252.382C70.3936 251.754 70.857 251.155 71.2663 250.587C71.6833 250.012 72.0308 249.474 72.3243 248.959C72.6177 248.451 72.8339 248.005 72.9652 247.641V247.058L72.6023 246.482C72.5328 246.073 72.4633 245.687 72.3938 245.338L72.4015 245.331Z" fill="white"/>
<path d="M211.017 267.312C210.461 266.774 209.928 266.214 209.411 265.623C208.917 265.04 208.392 264.502 207.859 264.025L207.025 263.283L206.268 262.593C205.542 261.874 204.878 261.382 204.283 261.109C203.681 260.836 203.163 260.745 202.723 260.806C202.275 260.874 201.92 261.071 201.65 261.412C201.38 261.753 201.21 262.169 201.132 262.654C201.063 263.146 201.086 263.684 201.21 264.275C201.333 264.858 201.557 265.426 201.897 265.971L202.353 266.698C202.6 267.039 202.893 267.418 203.256 267.842C203.604 268.266 203.99 268.698 204.384 269.137C204.785 269.584 205.171 270.001 205.526 270.387C205.882 270.773 206.198 271.091 206.445 271.349L206.917 271.781C207.21 271.917 207.565 271.872 207.967 271.637C208.368 271.394 208.778 271.099 209.187 270.728C209.596 270.357 209.967 269.993 210.307 269.622C210.646 269.251 210.886 268.993 211.033 268.865L211.496 268.425L211.65 268.122L211.488 267.797L211.025 267.32L211.017 267.312Z" fill="white"/>
<path d="M261.686 266.145C263.485 265.35 265.246 264.403 266.983 263.115C270.899 260.124 273.717 256.079 275.285 251.345C276.66 250.633 277.972 249.815 279.177 248.853C280.39 248.475 281.579 247.998 282.745 247.43C284.235 246.702 285.641 245.831 286.938 244.809L288.012 243.968C289.232 243.006 290.352 241.938 291.348 240.757C294.792 236.697 296.715 232.122 297.062 227.169C297.31 223.639 296.838 218.413 293.34 213.043C292.344 211.468 291.147 209.998 289.811 208.665L289.525 208.385C289.178 208.044 289.155 208.029 288.784 207.704L288.066 207.007C287.255 206.212 286.413 205.348 285.471 204.348C284.189 203 282.876 201.659 281.517 200.334C281.046 199.872 280.652 199.433 280.235 198.993C304.769 167.584 323.272 129.517 305.681 92.5929C284.143 47.3531 254.164 37.8553 232.804 37.8553C221.799 37.8553 210.308 40.4001 198.647 45.4142C183.503 51.9279 169.58 62.0468 158.29 71.8855C143.632 48.7467 118.349 33.5835 89.7526 33.5835C87.4436 33.5835 85.1114 33.6895 82.8178 33.9015C45.7191 37.2569 16.4741 66.4473 4.50426 112.028C0.411346 125.366 -0.90918 138.893 0.612147 152.587C0.643037 152.936 0.67393 153.284 0.712543 153.632C0.820657 154.534 0.944202 155.427 1.08321 156.321C1.15271 156.791 1.23763 157.253 1.34574 157.715C4.95214 179.195 15.4548 198.41 29.695 216.043L29.5869 216.149L28.1813 217.603C27.579 218.224 27.0616 218.777 26.6678 219.224C26.3202 219.572 25.965 219.958 25.6252 220.36L22.7601 223.238C21.6249 224.382 20.567 225.616 19.5245 227.033C16.7676 230.857 15.1458 235.334 14.8755 239.78C14.5975 243.665 15.1536 247.399 16.5359 250.876C17.8796 254.254 19.8797 257.23 22.3587 259.601L22.6444 259.874C23.6251 260.805 24.6677 261.654 25.7179 262.388C26.1813 262.858 26.6137 263.29 27.0152 263.676C28.8532 265.448 30.8456 266.895 32.9847 268.023C33.394 269.023 33.8342 270.008 34.3516 270.97C36.2668 274.522 38.877 277.589 41.8965 279.922C45.2403 282.573 49.0938 284.383 53.1095 285.323C53.8817 286.913 54.7775 288.451 55.959 289.92C57.3723 291.677 59.0172 293.26 60.7702 294.54C63.6893 296.699 66.9636 298.153 70.3229 298.865C71.6435 300.971 73.4736 303.182 76.0607 305.174C76.941 305.856 77.8677 306.485 78.7635 307.022L79.6825 307.757C81.173 308.916 82.7715 309.961 84.4859 310.885C88.3008 312.938 92.5636 314.021 96.8187 314.021C98.2937 314.021 100.093 313.862 101.545 313.574C107.113 312.521 112.109 309.567 115.638 305.227C117.793 302.584 119.276 299.592 120.079 296.464L120.411 296.093C127.431 301.652 133.006 306.25 137.755 310.393C142.003 314.096 147.478 316.126 153.123 316.126C153.687 316.126 154.266 316.111 154.83 316.066C161.07 315.611 166.854 312.695 170.869 307.984C171.997 306.659 173.325 305.212 174.731 303.72L175.24 304.341C175.827 305.28 176.476 306.182 177.202 307.045C179.434 309.741 182.222 311.908 185.589 313.536C188.909 315.119 192.5 315.914 196.245 315.914C197.466 315.914 198.701 315.823 199.945 315.657C203.203 315.286 207.876 314.051 212.571 310.325C213.405 309.65 214.2 308.923 214.942 308.151L215.837 307.454C217.312 306.28 218.71 304.955 220.116 303.379C220.432 303.023 220.664 302.629 220.95 302.258C223.251 301.569 225.413 300.607 227.244 299.38C227.753 299.054 228.24 298.706 228.719 298.342C230.155 297.896 231.568 297.32 232.927 296.608C235.576 295.214 237.924 293.404 239.916 291.23L240.194 290.912C241.854 289.034 243.121 286.943 244.117 284.77C245.685 283.823 247.167 282.763 248.457 281.528L248.65 281.339C249.476 280.551 250.28 279.672 250.998 278.733C252.72 277.718 254.318 276.506 255.778 275.105C258.419 272.553 260.404 269.493 261.663 266.153L261.686 266.145ZM273.571 226.26L272.505 227.101L271.748 227.358L271.161 227.313L270.636 227.01L270.041 226.48L269.91 226.351L269.609 226.056L268.706 225.177C268.242 224.715 267.771 224.268 267.315 223.829C266.844 223.389 266.373 222.935 265.91 222.481L264.976 221.541C264.667 221.231 264.35 220.898 264.026 220.557L263.864 220.383L263.539 220.057L262.999 219.512L262.381 218.883L261.794 218.292L261.439 217.944L261.184 217.739L260.466 218.171C260.11 218.474 259.732 218.83 259.307 219.246C258.852 219.701 258.388 220.178 257.948 220.67C257.508 221.163 257.191 221.526 256.998 221.769L257.601 222.314L258.195 222.905L259.076 223.753C259.438 224.109 259.794 224.457 260.164 224.806C260.52 225.147 260.883 225.442 261.207 225.684L265.454 229.835L265.3 230.456L264.906 230.971L264.705 231.176L264.458 231.335C264.103 231.532 263.74 231.622 263.354 231.6C262.968 231.577 262.636 231.441 262.358 231.168L262.226 231.039L261.686 230.448L260.913 229.668L260.103 228.896L259.315 228.161L258.612 227.525L258.126 227.063L253.23 222.276C252.882 221.935 252.411 221.473 251.824 220.898C251.237 220.314 250.627 219.709 250.009 219.057C249.392 218.406 248.805 217.77 248.249 217.148C247.7 216.512 247.276 215.974 246.974 215.52L246.866 214.763L247.283 214.066L247.824 213.702L248.303 213.619L248.797 213.929L249.531 214.604C249.824 214.884 250.133 215.209 250.488 215.573C250.828 215.937 251.175 216.315 251.538 216.694C251.901 217.08 252.272 217.467 252.627 217.838C252.983 218.216 253.315 218.557 253.639 218.875C254.017 219.246 254.365 219.557 254.666 219.792L255.369 220.171L255.979 219.913L256.543 219.353C256.929 218.981 257.261 218.64 257.546 218.322L258.396 217.444L258.659 217.186L259.176 216.717L259.678 216.27L259.771 216.187L258.543 214.861L252.643 209.09L252.311 208.726L251.894 208.317L251.508 207.938L251.191 207.59L251.083 206.878L251.538 206.128L252.257 205.659L253.129 205.553C253.623 205.643 254.318 206.022 255.214 206.704C256.11 207.378 257.091 208.196 258.157 209.15L258.635 209.574L259.091 210.021C260.095 211.006 261.083 212.044 262.049 213.134C263.022 214.225 264.057 215.316 265.169 216.399C266.335 217.535 267.454 218.686 268.551 219.83C269.632 220.981 270.682 222.049 271.679 223.034L272.42 223.761L273.161 224.45L273.354 224.639L273.771 225.169L273.98 225.631L273.555 226.283L273.571 226.26ZM78.2075 57.5251C77.6438 57.6463 77.08 57.7901 76.524 57.9416C77.0877 57.7901 77.6438 57.6539 78.2075 57.5251ZM52.8547 230.577C50.6152 232.91 48.7849 234.826 47.3794 236.311C45.9739 237.795 44.8619 238.969 44.0588 239.818C43.2556 240.666 42.6919 241.287 42.3675 241.666C42.0432 242.044 41.8424 242.302 41.7729 242.431L41.9814 242.764L42.3212 243.135L42.6532 243.499L43.0316 243.862L43.8734 244.665L44.3368 245.172L44.7615 245.725C45.0781 246.195 45.2558 246.649 45.3021 247.089C45.3484 247.528 45.2712 247.854 45.0704 248.051L44.329 248.21C44.0124 248.142 43.6341 247.907 43.2093 247.498C42.9159 247.217 42.5992 246.899 42.2594 246.551C41.9119 246.195 41.5798 245.854 41.2401 245.528C40.8153 245.119 40.3983 244.771 39.9968 244.476L39.4098 244.089L38.7071 243.567L38.6221 243.483C38.3982 243.271 38.2206 242.991 38.0893 242.65C37.9503 242.309 37.9039 241.878 37.9425 241.348C37.9734 240.916 38.1125 240.522 38.3828 240.143C38.6608 239.772 38.9619 239.424 39.294 239.09L43.0471 235.319L43.2016 235.084L43.912 234.326C44.2132 233.993 44.5762 233.614 44.9932 233.183C45.4102 232.751 45.8581 232.281 46.3446 231.789C46.8234 231.289 47.3177 230.789 47.8196 230.282C48.283 229.827 48.7386 229.373 49.1788 228.941C49.6267 228.51 50.0591 228.093 50.4993 227.684L51.8198 226.495C52.3063 226.063 52.6925 225.843 52.9551 225.851L53.6732 226.109L53.7582 226.192L54.1288 226.927C54.1983 227.252 54.1983 227.608 54.1443 228.01C54.0979 228.411 53.9667 228.835 53.7582 229.282C53.5496 229.737 53.2563 230.176 52.8624 230.592L52.8547 230.577ZM70.3383 256.428C69.7823 257.026 69.1645 257.677 68.485 258.374C67.8054 259.078 67.0872 259.745 66.3226 260.381C65.5736 261.017 64.7782 261.593 63.9519 262.108C63.1256 262.623 62.2915 262.994 61.4421 263.214C60.6003 263.441 59.7508 263.494 58.8936 263.388C58.0364 263.274 57.2101 262.903 56.407 262.267C55.712 261.729 55.1637 261.078 54.7621 260.336C54.3605 259.594 54.1134 258.806 54.0131 257.988C53.9127 257.162 53.9589 256.337 54.152 255.496C54.3528 254.663 54.6926 253.883 55.1868 253.14C55.82 252.239 56.4765 251.315 57.1483 250.361C57.8202 249.406 58.5229 248.467 59.2566 247.551C59.7353 246.96 60.2837 246.309 60.9092 245.604C61.5424 244.9 62.222 244.211 62.9556 243.536C63.6893 242.862 64.4538 242.264 65.2724 241.741C66.0755 241.211 66.9095 240.84 67.7513 240.613C68.593 240.386 69.4425 240.34 70.292 240.499C71.1337 240.651 71.9677 241.067 72.7709 241.757C73.2033 242.128 73.4814 242.552 73.605 243.037L73.7903 243.658L73.9524 243.998L74.215 244.324L74.6707 244.877C75.0027 245.46 75.2267 246.013 75.3425 246.536C75.4584 247.066 75.4969 247.627 75.466 248.217C75.4428 248.732 75.2961 249.315 75.0104 249.974C74.7324 250.626 74.354 251.308 73.883 252.019C73.4119 252.731 72.879 253.458 72.2689 254.208C71.6511 254.958 71.0102 255.7 70.3306 256.428H70.3383ZM79.698 273.696C78.501 274.666 77.3194 275.605 76.1688 276.506L75.3965 276.741L74.6784 276.431L74.1455 275.923L73.8984 275.552C73.7285 275.188 73.7671 274.651 74.0142 273.969C74.2613 273.28 74.5934 272.477 74.9872 271.545C75.4197 270.583 75.914 269.568 76.4854 268.501C77.0492 267.433 77.6129 266.418 78.1535 265.456C78.6941 264.502 79.1883 263.661 79.6362 262.934C80.0763 262.207 80.3776 261.707 80.5397 261.411C81.1344 260.434 81.7213 259.45 82.285 258.45C82.8488 257.45 83.482 256.496 84.1924 255.579L84.2156 255.602L84.5863 255.079L84.9724 254.587L85.4744 254.307L86.1076 254.383L86.7872 254.905L87.1116 255.61L87.1424 256.412L86.9262 257.223C86.8027 257.465 86.5323 257.957 86.0921 258.7C85.6674 259.45 85.1655 260.321 84.594 261.328C84.0226 262.328 83.4202 263.381 82.787 264.486C82.146 265.592 81.5668 266.615 81.0417 267.569C80.5166 268.516 80.0841 269.319 79.7366 269.978C79.3891 270.636 79.2191 271.008 79.2191 271.098L79.7752 270.773L80.6015 270.129L81.4046 269.455L81.8602 269.023C82.1691 268.781 82.6248 268.41 83.2271 267.925C83.8295 267.448 84.4936 266.895 85.2427 266.297C85.984 265.691 86.764 265.062 87.5826 264.411C88.3935 263.767 89.1657 263.146 89.8994 262.555C90.3704 262.176 90.8106 261.828 91.2276 261.51C91.6446 261.184 91.9999 260.904 92.3165 260.661C92.888 260.23 93.359 260.025 93.7374 260.056C94.1158 260.086 94.4711 260.404 94.8108 261.017C95.0889 261.517 95.0734 261.873 94.7799 262.085C94.4865 262.297 94.1003 262.403 93.6138 262.411C91.3666 264.252 89.0653 266.13 86.71 268.039C84.3546 269.947 82.0225 271.833 79.698 273.696ZM110.711 274.211L110.503 274.363C110.155 274.537 109.754 274.507 109.298 274.272C108.843 274.037 108.371 273.734 107.893 273.356L107.244 272.833L106.595 272.318L106.047 271.886L105.414 271.439L104.881 271.22L104.649 271.5C104.472 271.72 104.24 272.023 103.962 272.409C103.676 272.795 103.383 273.212 103.066 273.659C102.788 274.09 102.518 274.514 102.209 274.931C101.915 275.348 101.661 275.719 101.429 276.052C101.197 276.393 100.935 276.771 100.626 277.211L101.097 277.802L101.8 278.294L102.58 278.839L102.981 279.195L103.329 279.574L103.591 280.256L103.398 280.71L103.321 280.808L102.811 281.202C102.611 281.286 102.317 281.248 101.931 281.074L101.136 280.665L100.325 280.187L99.591 279.703L99.035 279.294L98.4018 280.074L97.645 281.013L96.9113 281.967L96.2163 282.853L95.5136 283.74L94.7954 284.603L94.0772 285.466L93.6525 285.989L93.4285 286.398L93.6525 286.769C94.0309 287.057 94.3861 287.315 94.7259 287.542L95.7221 288.261L96.6024 289.049C96.8727 289.322 97.1276 289.64 97.3593 290.003C97.6605 290.496 97.7222 290.867 97.5292 291.102L97.1121 291.321C96.6256 291.405 96.1082 291.299 95.5599 291.003C95.0116 290.708 94.4942 290.367 94.0154 289.996L93.4517 289.541L92.9729 289.147L92.4632 288.754L91.7219 288.208L91.2199 287.898L90.8106 287.678L90.3704 287.398L89.9148 286.883L89.7218 286.345C89.5596 285.936 89.4978 285.603 89.5673 285.345L89.8607 284.717L90.1464 284.436L90.3395 284.315C90.687 283.952 91.0655 283.535 91.4593 283.081C91.8454 282.626 92.2624 282.134 92.7026 281.596C93.081 281.119 93.4748 280.619 93.8918 280.104C94.3011 279.581 94.7105 279.051 95.1352 278.498C95.7376 277.68 96.3553 276.87 96.9808 276.06C97.6063 275.249 98.2241 274.454 98.8342 273.689C99.4443 272.924 100.008 272.204 100.541 271.523C101.074 270.841 101.56 270.235 101.993 269.697C102.325 269.288 102.556 269.023 102.695 268.902L102.981 268.743L103.128 268.781L103.445 268.584L103.676 268.342L103.838 268.152L104.101 268.054C104.348 268.008 104.757 268.16 105.344 268.516C105.931 268.864 106.557 269.303 107.236 269.826L107.661 270.174L108.086 270.53C108.719 271.076 109.29 271.598 109.785 272.098C110.287 272.606 110.603 272.992 110.758 273.265L110.85 273.712L110.688 274.234L110.711 274.211ZM153.123 293.442C147.053 288.14 140.451 282.785 133.539 277.332C127.878 272.863 122.009 268.326 116.071 263.714C114.333 262.373 112.596 261.017 110.858 259.662C110.572 259.442 110.294 259.215 110.001 258.995C109.522 258.616 109.036 258.238 108.549 257.859C108.148 257.541 107.738 257.223 107.329 256.905C104.943 255.041 102.556 253.156 100.17 251.262C99.8767 251.027 99.5679 250.792 99.2667 250.542C63.7356 222.185 29.7259 190.647 23.9572 152.875C23.9417 152.875 23.9262 152.875 23.9262 152.875C23.8181 152.246 23.7332 151.618 23.656 150.981C23.6946 151.239 23.7409 151.489 23.7718 151.746C22.3046 141.052 23.0691 129.873 26.7527 118.118C36.568 80.2018 57.465 61.7363 79.2115 57.3357C81.0803 56.957 82.9414 56.6465 84.8103 56.4799C84.8489 56.4723 84.8874 56.4647 84.926 56.4647C115.77 53.6623 146.551 78.1341 148.405 114.914C148.405 114.914 175.557 80.0883 207.914 66.1671C233.947 54.9727 263.362 57.3054 284.722 102.174C301.047 136.462 272.204 177.18 236.534 213.808C236.804 213.536 237.082 213.263 237.352 212.983C237.066 213.278 236.773 213.566 236.487 213.861C235.043 215.346 233.591 216.823 232.132 218.292C202.045 248.49 168.337 275.56 153.131 293.434L153.123 293.442ZM202.601 288.579C202.184 289.041 201.744 289.466 201.265 289.852L200.694 290.291L200.199 290.677L199.69 291.071L198.995 291.677L198.578 292.086L198.269 292.427L197.89 292.791L197.288 293.116L196.709 293.192C196.261 293.26 195.921 293.237 195.674 293.124L195.118 292.715L194.894 292.382L194.817 292.177C194.516 291.761 194.184 291.314 193.821 290.844C193.45 290.374 193.048 289.867 192.601 289.337C192.214 288.867 191.797 288.383 191.365 287.883C190.94 287.383 190.492 286.875 190.029 286.353C189.342 285.595 188.67 284.838 187.99 284.058C187.311 283.278 186.662 282.52 186.029 281.778C185.395 281.036 184.793 280.339 184.237 279.68C183.673 279.021 183.164 278.43 182.723 277.9C182.384 277.491 182.175 277.218 182.083 277.059L181.99 276.749L182.059 276.612L181.936 276.264L181.743 275.984L181.604 275.787L181.557 275.507C181.557 275.264 181.804 274.901 182.276 274.424C182.747 273.939 183.31 273.424 183.982 272.894L184.422 272.553L184.863 272.219C185.542 271.727 186.183 271.295 186.793 270.924C187.403 270.553 187.859 270.326 188.16 270.243H188.623L189.102 270.515L189.21 270.743C189.303 271.114 189.195 271.485 188.863 271.879C188.531 272.265 188.129 272.644 187.65 273.03L186.994 273.537L186.338 274.045L185.789 274.492L185.218 274.992L184.878 275.454L185.11 275.734C185.295 275.953 185.55 276.241 185.867 276.597C186.191 276.946 186.538 277.324 186.932 277.718C187.303 278.067 187.666 278.43 188.013 278.801C188.361 279.165 188.685 279.498 188.963 279.794C189.249 280.089 189.581 280.422 189.952 280.801L190.639 280.475L191.28 279.907L191.99 279.271L192.431 278.96L192.879 278.71L193.62 278.604L194.021 278.877L194.099 278.976L194.384 279.551L194.068 280.369L193.496 281.043L192.848 281.717L192.207 282.316L191.681 282.763L192.323 283.535L193.095 284.459L193.882 285.368L194.616 286.224L195.35 287.08L196.068 287.958L196.778 288.837L197.203 289.352L197.558 289.647L197.983 289.511C198.354 289.216 198.678 288.928 198.979 288.648L199.914 287.845L200.879 287.171C201.211 286.966 201.566 286.8 201.976 286.648C202.539 286.459 202.918 286.481 203.119 286.716L203.242 287.163C203.227 287.648 203.01 288.117 202.601 288.579ZM223.174 275.363L222.734 276.044L221.985 276.612C221.676 276.771 221.328 276.817 220.919 276.749L220.517 276.658L220.147 276.415L214.023 270.583L213.467 269.985L213.127 269.629C212.331 270.349 211.575 270.992 210.88 271.56C210.192 272.136 209.42 272.704 208.578 273.265L209.297 274.052L210.107 274.757C210.316 274.954 210.617 275.249 211.003 275.651C211.405 276.052 211.822 276.484 212.277 276.938C212.725 277.393 213.15 277.832 213.544 278.256C213.945 278.68 214.247 279.006 214.447 279.225L214.779 279.975L214.471 280.452L213.853 280.665L213.25 280.627C213.011 280.543 212.548 280.21 211.884 279.612C211.212 279.013 210.455 278.301 209.582 277.461C208.972 276.862 208.331 276.234 207.667 275.567C207.003 274.908 206.385 274.264 205.775 273.659C205.173 273.045 204.632 272.492 204.153 272C203.659 271.507 203.281 271.129 203.003 270.864C202.562 270.455 202.13 269.978 201.682 269.409C201.25 268.849 200.848 268.258 200.493 267.622C200.145 266.993 199.852 266.342 199.628 265.668C199.404 264.994 199.28 264.342 199.257 263.714C199.211 262.623 199.334 261.654 199.612 260.805C199.883 259.957 200.531 259.23 201.528 258.632C201.96 258.382 202.346 258.2 202.686 258.101C203.034 258.003 203.443 257.965 203.937 257.988C204.678 258.026 205.404 258.185 206.092 258.457C206.779 258.73 207.42 259.063 208.022 259.472C208.625 259.874 209.196 260.313 209.737 260.783C210.277 261.252 210.771 261.714 211.212 262.161C211.358 262.313 211.629 262.593 212.038 263.025C212.455 263.449 212.895 263.903 213.374 264.388C213.853 264.873 214.316 265.342 214.741 265.789C215.166 266.236 215.474 266.554 215.66 266.751L221.15 272.583C221.483 272.939 221.691 273.166 221.776 273.272L221.961 273.492L222.162 273.696L222.819 274.28L223.12 274.583L223.274 274.901L223.151 275.363H223.174ZM239.545 258.957C239.237 259.253 238.843 259.465 238.372 259.601C237.901 259.737 237.437 259.737 237.005 259.624C235.924 259.412 234.943 259.131 234.062 258.783C233.174 258.435 232.294 258.056 231.414 257.632C230.549 257.215 229.614 256.806 228.641 256.39C227.653 255.973 226.541 255.594 225.282 255.238L224.641 255.428L224.657 255.753C224.749 255.844 224.996 256.072 225.406 256.458C225.823 256.837 226.301 257.291 226.85 257.814C227.413 258.344 228 258.889 228.626 259.465C229.244 260.04 229.831 260.578 230.371 261.07C230.912 261.57 231.367 261.979 231.723 262.313C232.086 262.646 232.279 262.813 232.31 262.805L232.726 263.085L233.059 263.933L232.711 264.842L232.588 265.001L232.441 265.138C232.055 265.501 231.599 265.759 231.058 265.872C230.526 265.994 230.054 265.857 229.653 265.456L229.491 265.304L229.089 264.888C228.649 264.456 228.178 263.994 227.661 263.502C227.143 263.017 226.61 262.509 226.039 261.979C225.491 261.449 224.919 260.919 224.34 260.381C223.753 259.843 223.182 259.306 222.618 258.768C220.795 257.041 218.965 255.254 217.119 253.405L215.915 252.201C215.49 251.785 215.111 251.285 214.764 250.702C214.409 250.118 214.162 249.528 214.03 248.929C213.953 248.604 213.953 248.24 214.015 247.839C214.077 247.445 214.169 247.051 214.316 246.672C214.455 246.293 214.633 245.937 214.841 245.597L215.528 244.726L215.567 244.68C216.301 244.006 217.073 243.521 217.876 243.226C218.679 242.931 219.475 242.802 220.247 242.825C221.035 242.855 221.768 243.029 222.479 243.34C223.181 243.658 223.807 244.067 224.371 244.567L224.811 244.998C226.077 246.263 226.803 247.558 227.004 248.876C227.197 250.202 226.881 251.671 226.054 253.292C227.568 253.565 228.927 253.852 230.132 254.163C231.336 254.473 232.456 254.792 233.506 255.117C234.549 255.443 235.545 255.776 236.48 256.117C237.414 256.458 238.356 256.806 239.337 257.139L239.383 257.185L239.43 257.23L239.491 257.291L239.561 257.359L239.715 257.488L239.87 257.624L240.086 258.01C240.016 258.351 239.847 258.662 239.553 258.95L239.545 258.957ZM252.751 245.233L251.948 245.65L251.044 245.839L250.202 245.771L249.585 245.362C249.245 244.953 248.781 244.445 248.195 243.847C247.6 243.241 246.928 242.575 246.171 241.847C245.422 241.12 244.604 240.348 243.731 239.553C242.858 238.757 241.978 237.932 241.082 237.099C240.302 236.394 239.499 235.675 238.711 234.948C237.924 234.228 237.159 233.539 236.433 232.865C235.7 232.198 235.02 231.585 234.402 231.024C233.777 230.464 233.244 229.979 232.788 229.562C232.433 230.009 232.001 230.479 231.522 230.979C231.028 231.471 230.556 231.895 230.078 232.266C229.684 232.569 229.367 232.721 229.128 232.728L228.394 232.554L228.108 232.024C228.108 231.766 228.271 231.38 228.579 230.865L229.089 230.1L229.73 229.335L230.271 228.737L231.058 227.896C231.344 227.578 231.661 227.252 232.008 226.911C232.356 226.563 232.734 226.215 233.113 225.859C233.676 225.351 234.248 224.859 234.819 224.374C235.391 223.889 235.931 223.48 236.449 223.147C236.966 222.806 237.429 222.571 237.839 222.435C238.256 222.299 238.572 222.299 238.789 222.458L239.19 222.799L239.144 223.071L239.128 223.261L239.036 223.458L238.827 223.753L237.136 225.306C236.742 225.609 236.333 225.98 235.931 226.419C235.514 226.851 235.144 227.245 234.788 227.593L235.051 227.676L235.229 227.654L235.437 227.608L235.877 227.669L235.931 227.684L235.985 227.699C236.032 227.714 236.287 227.919 236.75 228.313C237.221 228.714 237.823 229.229 238.572 229.865C239.321 230.502 240.156 231.221 241.082 232.032C242.009 232.842 242.943 233.667 243.909 234.523C245.461 235.879 246.951 237.227 248.372 238.538C249.785 239.855 251.229 241.219 252.697 242.635C253.245 243.173 253.492 243.673 253.43 244.135C253.353 244.597 253.137 244.96 252.759 245.248L252.751 245.233Z" fill="white"/>
<path d="M54.1203 226.919L53.7497 226.185L53.6647 226.101L52.9466 225.844C52.684 225.844 52.2979 226.056 51.8113 226.488L50.4908 227.677C50.0584 228.086 49.6259 228.502 49.1703 228.934C48.7301 229.366 48.2745 229.82 47.8111 230.275C47.3092 230.782 46.8149 231.282 46.3361 231.782C45.8496 232.282 45.4017 232.751 44.9847 233.175C44.5677 233.607 44.2047 233.986 43.9035 234.319L43.1931 235.076L43.0386 235.311L39.2855 239.083C38.9534 239.416 38.6523 239.765 38.3743 240.136C38.104 240.515 37.9572 240.909 37.9341 241.34C37.8955 241.87 37.9496 242.302 38.0809 242.643C38.2199 242.984 38.3897 243.264 38.6137 243.476L38.6986 243.559L39.4014 244.082L39.9883 244.468C40.3899 244.764 40.7991 245.112 41.2316 245.521C41.5637 245.847 41.9034 246.188 42.2509 246.544C42.5907 246.892 42.9074 247.21 43.2009 247.49C43.6256 247.899 44.004 248.142 44.3206 248.202L45.0619 248.043C45.2627 247.846 45.34 247.521 45.2936 247.081C45.2396 246.635 45.062 246.188 44.7531 245.718L44.3283 245.165L43.865 244.658L43.0232 243.855L42.6448 243.491L42.3128 243.128L41.9729 242.757L41.7644 242.423C41.8339 242.295 42.0347 242.037 42.359 241.658C42.6834 241.28 43.2472 240.659 44.0503 239.81C44.8534 238.962 45.9654 237.788 47.3709 236.304C48.7764 234.819 50.6067 232.903 52.8462 230.57C53.2323 230.153 53.5334 229.722 53.742 229.26C53.9427 228.813 54.074 228.389 54.1281 227.987C54.1821 227.586 54.1745 227.23 54.1127 226.904L54.1203 226.919Z" fill="#173B07"/>
<path d="M75.0329 249.982C75.3186 249.323 75.4653 248.74 75.4885 248.225C75.5193 247.635 75.4884 247.074 75.3649 246.544C75.249 246.014 75.0174 245.461 74.693 244.885L74.2374 244.332L73.9749 244.006L73.8126 243.666L73.6273 243.045C73.5038 242.567 73.2258 242.136 72.7933 241.765C71.9902 241.075 71.1562 240.659 70.3144 240.507C69.465 240.356 68.6155 240.394 67.7737 240.621C66.9242 240.848 66.098 241.219 65.2948 241.749C64.484 242.28 63.7117 242.878 62.9781 243.544C62.2445 244.219 61.5649 244.9 60.9316 245.612C60.3061 246.317 59.7578 246.968 59.279 247.559C58.5454 248.475 57.8426 249.414 57.1708 250.369C56.4989 251.323 55.8502 252.247 55.2092 253.148C54.7227 253.891 54.3752 254.671 54.1745 255.504C53.9814 256.345 53.9273 257.17 54.0354 257.996C54.1358 258.821 54.383 259.602 54.7846 260.344C55.1861 261.086 55.7344 261.737 56.4294 262.275C57.2326 262.911 58.0589 263.282 58.9161 263.396C59.7733 263.51 60.6227 263.457 61.4644 263.222C62.3139 262.995 63.1479 262.624 63.9742 262.116C64.8005 261.601 65.5883 261.033 66.3451 260.389C67.1096 259.753 67.8277 259.079 68.5073 258.382C69.1869 257.678 69.8047 257.026 70.3607 256.436C71.0403 255.708 71.6813 254.966 72.2991 254.216C72.9091 253.466 73.4497 252.739 73.913 252.027C74.3841 251.315 74.7626 250.634 75.0406 249.982H75.0329ZM72.9787 247.642C72.8396 248.006 72.6312 248.452 72.3377 248.96C72.0443 249.475 71.6968 250.013 71.2797 250.588C70.8627 251.156 70.4071 251.755 69.8897 252.383C69.3723 253.012 68.824 253.633 68.2525 254.239C67.9822 254.512 67.5961 254.898 67.1096 255.39C66.6154 255.875 66.067 256.39 65.457 256.928C64.8469 257.466 64.1904 257.988 63.4877 258.518C62.785 259.041 62.09 259.48 61.4027 259.829C60.7077 260.177 60.0435 260.397 59.4026 260.488C58.7539 260.586 58.2056 260.488 57.7268 260.185C57.3175 259.942 57.1322 259.541 57.1708 258.988C57.2094 258.435 57.387 257.814 57.6882 257.14C57.9894 256.458 58.3832 255.746 58.8697 254.989C59.3485 254.231 59.8273 253.535 60.306 252.883C60.7848 252.232 61.2173 251.671 61.6112 251.187C62.005 250.702 62.2676 250.384 62.3989 250.232L62.9162 249.589C63.1788 249.248 63.4955 248.846 63.8585 248.384C64.2291 247.93 64.6461 247.438 65.1249 246.922C65.6037 246.4 66.0902 245.9 66.5999 245.408C67.1096 244.915 67.6192 244.476 68.1366 244.09C68.6541 243.704 69.1638 243.416 69.6426 243.226C70.1214 243.037 70.5693 242.976 70.9786 243.06C71.3878 243.143 71.7353 243.401 72.0288 243.84L72.2219 244.446L72.4149 245.332C72.4844 245.68 72.5539 246.067 72.6234 246.476L72.9941 247.051V247.634L72.9787 247.642Z" fill="#173B07"/>
<path d="M94.7934 262.092C95.0869 261.888 95.0946 261.532 94.8243 261.024C94.4845 260.411 94.1293 260.093 93.7509 260.063C93.3725 260.04 92.9015 260.237 92.33 260.668C92.0211 260.911 91.6581 261.199 91.2411 261.517C90.8241 261.835 90.3839 262.191 89.9129 262.562C89.1792 263.153 88.407 263.774 87.5961 264.418C86.7775 265.069 85.9975 265.698 85.2562 266.304C84.5148 266.909 83.843 267.455 83.2406 267.932C82.6383 268.417 82.1826 268.78 81.8737 269.03L81.4181 269.462L80.615 270.136L79.7887 270.78L79.2326 271.105C79.2326 271.015 79.3948 270.651 79.7501 269.985C80.0976 269.326 80.53 268.523 81.0551 267.576C81.5802 266.629 82.1594 265.599 82.8004 264.493C83.4336 263.387 84.0361 262.335 84.6075 261.335C85.179 260.328 85.6809 259.457 86.1056 258.707C86.5458 257.964 86.8238 257.465 86.9396 257.23L87.1559 256.419L87.1251 255.617L86.8007 254.912L86.1211 254.389L85.4879 254.314L84.9859 254.594L84.5998 255.086L84.2291 255.609L84.2059 255.586C83.4955 256.503 82.8623 257.465 82.2985 258.457C81.7348 259.449 81.1556 260.434 80.5532 261.418C80.3911 261.714 80.0898 262.213 79.6497 262.941C79.2018 263.668 78.7152 264.508 78.1669 265.463C77.6263 266.425 77.0627 267.44 76.4989 268.508C75.9275 269.575 75.4332 270.59 75.0007 271.552C74.5991 272.476 74.2748 273.287 74.0277 273.976C73.7806 274.658 73.7342 275.195 73.9118 275.559L74.159 275.93L74.6918 276.438L75.41 276.748L76.1823 276.513C77.3252 275.612 78.5067 274.673 79.7114 273.703C82.0281 271.84 84.3681 269.947 86.7235 268.045C89.0711 266.137 91.3724 264.259 93.6273 262.418C94.1138 262.41 94.5 262.304 94.7934 262.092Z" fill="#173B07"/>
<path d="M109.813 272.091C109.319 271.591 108.748 271.061 108.114 270.523L107.69 270.167L107.265 269.818C106.585 269.288 105.952 268.849 105.373 268.508C104.794 268.152 104.377 268.001 104.13 268.046L103.867 268.145L103.705 268.334L103.473 268.576L103.157 268.773L103.01 268.735L102.724 268.894C102.585 269.016 102.353 269.281 102.021 269.69C101.581 270.227 101.102 270.833 100.57 271.515C100.037 272.189 99.4652 272.916 98.8629 273.681C98.2528 274.446 97.635 275.234 97.0095 276.052C96.3839 276.862 95.7661 277.673 95.1638 278.491C94.739 279.044 94.3298 279.574 93.9205 280.096C93.5035 280.619 93.1173 281.111 92.7312 281.588C92.2987 282.126 91.8817 282.619 91.4879 283.073C91.094 283.528 90.7157 283.936 90.3682 284.308L90.1751 284.429L89.8894 284.709L89.5959 285.338C89.5264 285.595 89.5804 285.936 89.7503 286.337L89.9434 286.875L90.3991 287.39L90.8392 287.67L91.2485 287.89L91.7505 288.201L92.4918 288.746L93.0015 289.14L93.4803 289.534L94.0441 289.988C94.5229 290.359 95.0403 290.7 95.5886 290.996C96.1368 291.291 96.6543 291.397 97.1408 291.314L97.5577 291.094C97.7508 290.859 97.689 290.488 97.3879 289.996C97.1562 289.632 96.9014 289.314 96.6311 289.041L95.7507 288.254L94.7546 287.534C94.4148 287.307 94.0518 287.049 93.6811 286.762L93.4571 286.39L93.6811 285.981L94.1058 285.459L94.824 284.595L95.5422 283.732L96.2449 282.846L96.94 281.96L97.6736 281.005L98.4304 280.066L99.0637 279.286L99.6197 279.695L100.353 280.18L101.164 280.657L101.96 281.066C102.346 281.24 102.639 281.278 102.84 281.195L103.35 280.801L103.427 280.702L103.62 280.248L103.357 279.566L103.01 279.188L102.608 278.832L101.828 278.286L101.126 277.794L100.654 277.203C100.956 276.771 101.218 276.385 101.458 276.044C101.689 275.711 101.952 275.332 102.238 274.923C102.539 274.507 102.817 274.09 103.095 273.651C103.411 273.204 103.705 272.787 103.991 272.401C104.269 272.015 104.508 271.712 104.678 271.492L104.91 271.212L105.442 271.432L106.076 271.879L106.624 272.31L107.273 272.825L107.921 273.348C108.4 273.727 108.871 274.03 109.327 274.264C109.782 274.492 110.184 274.53 110.532 274.355L110.74 274.204L110.902 273.681L110.81 273.234C110.655 272.962 110.338 272.575 109.836 272.068L109.813 272.091Z" fill="#173B07"/>
<path d="M201.991 286.656C201.581 286.807 201.226 286.974 200.894 287.178L199.929 287.852L198.994 288.655C198.693 288.936 198.369 289.223 197.998 289.519L197.573 289.655L197.218 289.36L196.793 288.845L196.083 287.966L195.365 287.087L194.631 286.232L193.897 285.376L193.11 284.467L192.337 283.543L191.696 282.77L192.222 282.323L192.863 281.725L193.511 281.051L194.083 280.377L194.399 279.559L194.114 278.983L194.036 278.885L193.635 278.612L192.893 278.718L192.446 278.968L192.005 279.279L191.295 279.915L190.654 280.483L189.967 280.809C189.596 280.43 189.264 280.089 188.978 279.801C188.7 279.506 188.376 279.18 188.028 278.809C187.673 278.438 187.31 278.074 186.947 277.726C186.553 277.332 186.206 276.953 185.881 276.605C185.557 276.249 185.31 275.969 185.125 275.742L184.893 275.461L185.233 274.999L185.804 274.499L186.353 274.053L187.009 273.545L187.665 273.038C188.144 272.651 188.546 272.273 188.878 271.886C189.21 271.5 189.318 271.121 189.225 270.75L189.117 270.523L188.638 270.258H188.175C187.874 270.341 187.418 270.561 186.808 270.932C186.198 271.303 185.557 271.735 184.878 272.227L184.437 272.56L183.997 272.901C183.325 273.439 182.762 273.947 182.29 274.431C181.819 274.916 181.572 275.279 181.572 275.514L181.619 275.795L181.758 275.991L181.951 276.272L182.074 276.62L182.005 276.756L182.097 277.067C182.19 277.218 182.399 277.499 182.738 277.908C183.179 278.438 183.688 279.029 184.252 279.688C184.808 280.347 185.41 281.043 186.044 281.786C186.677 282.528 187.333 283.285 188.005 284.065C188.685 284.838 189.356 285.603 190.044 286.36C190.515 286.883 190.955 287.39 191.38 287.89C191.812 288.39 192.222 288.875 192.615 289.345C193.063 289.875 193.465 290.375 193.836 290.852C194.206 291.321 194.538 291.768 194.832 292.185L194.909 292.389L195.133 292.723L195.689 293.132C195.936 293.253 196.276 293.268 196.724 293.2L197.303 293.124L197.905 292.798L198.284 292.435L198.593 292.094L199.01 291.685L199.705 291.079L200.214 290.685L200.709 290.299L201.28 289.86C201.759 289.473 202.207 289.049 202.616 288.587C203.025 288.125 203.242 287.656 203.257 287.171L203.133 286.724C202.933 286.497 202.554 286.466 201.991 286.656Z" fill="#173B07"/>
<path d="M222.858 274.295L222.202 273.712L222.001 273.507L221.816 273.287C221.731 273.181 221.522 272.954 221.19 272.598L215.7 266.766C215.522 266.569 215.213 266.251 214.781 265.804C214.356 265.357 213.892 264.888 213.414 264.403C212.935 263.918 212.487 263.464 212.078 263.04C211.661 262.616 211.39 262.328 211.251 262.176C210.811 261.729 210.317 261.267 209.776 260.798C209.236 260.328 208.664 259.889 208.062 259.488C207.46 259.086 206.811 258.745 206.131 258.473C205.444 258.2 204.726 258.041 203.977 258.003C203.483 257.98 203.066 258.018 202.726 258.117C202.386 258.223 201.992 258.397 201.567 258.647C200.571 259.245 199.923 259.972 199.652 260.821C199.366 261.669 199.251 262.646 199.297 263.729C199.328 264.358 199.444 265.009 199.668 265.683C199.892 266.357 200.185 267.009 200.533 267.637C200.888 268.266 201.289 268.864 201.722 269.425C202.162 269.993 202.602 270.477 203.042 270.879C203.32 271.144 203.707 271.53 204.193 272.015C204.672 272.507 205.212 273.06 205.815 273.674C206.417 274.28 207.043 274.923 207.707 275.582C208.371 276.249 209.012 276.878 209.622 277.476C210.495 278.317 211.251 279.029 211.923 279.627C212.587 280.225 213.043 280.559 213.29 280.642L213.892 280.68L214.51 280.468L214.819 279.99L214.487 279.241C214.286 279.021 213.985 278.695 213.584 278.271C213.182 277.847 212.765 277.408 212.317 276.953C211.861 276.499 211.444 276.067 211.043 275.666C210.657 275.264 210.356 274.961 210.147 274.772L209.336 274.068L208.618 273.28C209.46 272.712 210.232 272.144 210.919 271.576C211.622 271.008 212.371 270.364 213.167 269.644L213.506 270L214.062 270.599L220.186 276.431L220.557 276.673L220.958 276.764C221.368 276.832 221.715 276.794 222.024 276.628L222.773 276.06L223.213 275.378L223.337 274.916L223.183 274.598L222.881 274.295H222.858ZM211.498 268.425L211.035 268.864C210.888 269.001 210.649 269.251 210.309 269.622C209.969 269.993 209.591 270.356 209.189 270.727C208.78 271.099 208.379 271.394 207.969 271.636C207.56 271.879 207.213 271.917 206.919 271.78L206.448 271.348C206.201 271.099 205.892 270.78 205.529 270.387C205.166 270 204.788 269.584 204.386 269.137C203.985 268.69 203.606 268.258 203.259 267.842C202.896 267.418 202.602 267.039 202.355 266.698L201.899 265.971C201.56 265.426 201.336 264.858 201.212 264.274C201.089 263.676 201.073 263.138 201.135 262.653C201.212 262.169 201.382 261.745 201.652 261.411C201.923 261.07 202.278 260.874 202.726 260.805C203.158 260.737 203.676 260.836 204.286 261.108C204.88 261.381 205.544 261.866 206.27 262.593L207.027 263.282L207.861 264.024C208.394 264.502 208.919 265.039 209.413 265.623C209.923 266.206 210.464 266.774 211.02 267.312L211.483 267.789L211.645 268.114L211.491 268.417L211.498 268.425Z" fill="#173B07"/>
<path d="M239.731 257.51L239.577 257.381L239.507 257.313L239.446 257.253L239.399 257.207L239.353 257.162C238.372 256.828 237.422 256.488 236.496 256.139C235.561 255.798 234.565 255.465 233.522 255.139C232.472 254.814 231.352 254.503 230.148 254.185C228.943 253.875 227.584 253.587 226.07 253.314C226.896 251.693 227.213 250.224 227.02 248.898C226.819 247.573 226.086 246.285 224.827 245.02L224.387 244.589C223.823 244.081 223.19 243.68 222.495 243.362C221.784 243.051 221.051 242.885 220.263 242.847C219.491 242.816 218.695 242.953 217.892 243.248C217.089 243.544 216.317 244.028 215.583 244.702L215.544 244.748L214.857 245.619C214.649 245.96 214.471 246.316 214.332 246.694C214.185 247.073 214.093 247.459 214.031 247.861C213.969 248.262 213.969 248.626 214.046 248.951C214.185 249.557 214.432 250.148 214.78 250.724C215.127 251.307 215.514 251.807 215.931 252.223L217.135 253.428C218.989 255.276 220.819 257.063 222.634 258.79C223.197 259.328 223.769 259.858 224.356 260.403C224.935 260.941 225.506 261.471 226.055 262.001C226.618 262.532 227.159 263.039 227.677 263.524C228.194 264.016 228.673 264.478 229.105 264.91L229.507 265.327L229.669 265.478C230.07 265.879 230.541 266.016 231.074 265.895C231.615 265.773 232.078 265.523 232.457 265.16L232.603 265.024L232.727 264.865L233.075 263.956L232.742 263.107L232.325 262.827C232.325 262.827 232.101 262.668 231.738 262.335C231.376 262.009 230.928 261.593 230.387 261.093C229.846 260.6 229.26 260.063 228.642 259.487C228.016 258.911 227.429 258.366 226.866 257.836C226.317 257.313 225.839 256.859 225.422 256.48C225.005 256.101 224.757 255.867 224.672 255.776L224.657 255.45L225.298 255.261C226.557 255.609 227.669 255.988 228.657 256.412C229.638 256.828 230.565 257.237 231.43 257.654C232.31 258.071 233.19 258.449 234.078 258.805C234.959 259.154 235.94 259.434 237.021 259.646C237.453 259.76 237.909 259.76 238.388 259.623C238.859 259.487 239.252 259.275 239.561 258.979C239.855 258.699 240.032 258.381 240.094 258.04L239.878 257.654L239.724 257.518L239.731 257.51ZM224.132 252.822C224.008 253.163 223.831 253.45 223.591 253.678L223.02 254.056C222.873 253.996 222.603 253.784 222.209 253.42C221.823 253.049 221.375 252.625 220.888 252.132C220.533 251.792 220.186 251.428 219.83 251.057C219.468 250.678 219.135 250.33 218.827 249.997L218.054 249.133L217.668 248.618C217.352 248.012 217.22 247.437 217.274 246.884C217.336 246.331 217.521 245.884 217.853 245.543C218.147 245.255 218.549 245.089 219.035 245.043C219.522 244.99 220.085 245.134 220.742 245.467C221.151 245.672 221.583 246.005 222.039 246.46C222.402 246.823 222.742 247.232 223.058 247.694C223.375 248.149 223.638 248.641 223.862 249.179C224.016 249.61 224.147 250.035 224.232 250.474C224.309 250.898 224.348 251.315 224.333 251.701C224.317 252.095 224.255 252.466 224.14 252.807L224.132 252.822Z" fill="#173B07"/>
<path d="M248.377 238.53C246.956 237.212 245.466 235.871 243.913 234.515C242.948 233.667 242.014 232.842 241.087 232.024C240.16 231.213 239.334 230.494 238.577 229.858C237.836 229.221 237.226 228.706 236.755 228.305C236.291 227.911 236.036 227.706 235.99 227.691L235.936 227.676L235.882 227.661L235.442 227.6L235.233 227.646L235.056 227.669L234.793 227.585C235.148 227.237 235.527 226.851 235.936 226.411C236.338 225.972 236.747 225.601 237.141 225.298L238.832 223.745L239.041 223.45L239.133 223.253L239.149 223.064L239.195 222.791L238.793 222.45C238.569 222.291 238.261 222.291 237.844 222.427C237.427 222.564 236.971 222.806 236.454 223.139C235.944 223.48 235.403 223.889 234.824 224.366C234.253 224.851 233.681 225.343 233.117 225.851C232.731 226.207 232.361 226.555 232.013 226.904C231.666 227.244 231.349 227.578 231.063 227.888L230.276 228.729L229.735 229.327L229.094 230.092L228.584 230.857C228.275 231.372 228.113 231.759 228.113 232.016L228.399 232.546L229.133 232.72C229.372 232.713 229.689 232.561 230.083 232.258C230.561 231.895 231.032 231.471 231.527 230.971C232.005 230.479 232.438 230.001 232.793 229.555C233.249 229.971 233.789 230.448 234.407 231.016C235.025 231.577 235.704 232.19 236.438 232.857C237.172 233.523 237.929 234.22 238.716 234.94C239.504 235.667 240.307 236.386 241.087 237.091C241.983 237.931 242.863 238.749 243.736 239.545C244.608 240.34 245.419 241.113 246.176 241.84C246.933 242.567 247.605 243.233 248.199 243.839C248.794 244.445 249.257 244.945 249.59 245.354L250.207 245.763L251.049 245.831L251.953 245.642L252.756 245.225C253.134 244.937 253.35 244.566 253.428 244.112C253.497 243.657 253.25 243.158 252.694 242.612C251.227 241.196 249.783 239.833 248.369 238.515L248.377 238.53Z" fill="#173B07"/>
<path d="M273.379 224.616L273.186 224.427L272.444 223.737L271.703 223.01C270.699 222.026 269.656 220.965 268.575 219.807C267.486 218.663 266.367 217.519 265.193 216.375C264.089 215.292 263.046 214.202 262.073 213.111C261.108 212.02 260.119 210.983 259.115 209.998L258.66 209.551L258.181 209.127C257.115 208.173 256.134 207.355 255.239 206.681C254.343 205.999 253.648 205.62 253.154 205.529L252.281 205.635L251.563 206.105L251.107 206.855L251.215 207.567L251.532 207.915L251.918 208.294L252.335 208.703L252.667 209.066L258.567 214.838L259.795 216.163L259.702 216.247L259.2 216.694L258.683 217.163L258.42 217.421L257.571 218.299C257.277 218.61 256.945 218.958 256.567 219.329L256.003 219.89L255.393 220.147L254.69 219.769C254.389 219.526 254.042 219.223 253.663 218.852C253.339 218.542 252.999 218.193 252.652 217.815C252.296 217.436 251.926 217.057 251.563 216.671C251.192 216.285 250.844 215.913 250.512 215.55C250.157 215.186 249.848 214.861 249.555 214.58L248.821 213.906L248.327 213.596L247.848 213.679L247.308 214.043L246.891 214.739L246.999 215.497C247.3 215.951 247.725 216.497 248.273 217.125C248.829 217.754 249.416 218.39 250.034 219.034C250.651 219.685 251.261 220.291 251.848 220.874C252.435 221.45 252.906 221.912 253.254 222.253L258.15 227.04L258.636 227.502L259.339 228.138L260.127 228.873L260.938 229.645L261.71 230.425L262.251 231.016L262.382 231.145C262.66 231.418 262.992 231.554 263.378 231.577C263.764 231.599 264.127 231.508 264.482 231.311L264.73 231.152L264.93 230.948L265.324 230.433L265.479 229.812L261.231 225.661C260.899 225.419 260.544 225.131 260.189 224.783C259.818 224.442 259.455 224.093 259.1 223.73L258.219 222.882L257.625 222.291L257.023 221.745C257.216 221.503 257.532 221.14 257.972 220.647C258.413 220.147 258.876 219.678 259.332 219.223C259.756 218.807 260.135 218.451 260.49 218.148L261.208 217.716L261.463 217.921L261.818 218.269L262.405 218.86L263.023 219.488L263.563 220.034L263.888 220.359L264.05 220.534C264.374 220.874 264.691 221.2 265 221.518L265.934 222.457C266.405 222.919 266.869 223.366 267.34 223.806C267.795 224.245 268.266 224.699 268.73 225.154L269.633 226.032L269.934 226.328L270.066 226.457L270.66 226.987L271.185 227.29L271.772 227.335L272.529 227.078L273.595 226.237L274.02 225.586L273.811 225.124L273.394 224.593L273.379 224.616Z" fill="#173B07"/>
<path d="M123.508 212.559C124.62 202.182 122.395 202.728 115.716 196.721C110.148 192.351 104.024 185.254 100.124 179.793C94.556 173.242 92.3319 164.509 82.3081 160.684C75.6282 158.495 70.0604 162.32 63.9364 161.775C53.9127 160.684 50.0128 149.217 39.4331 149.762C32.5446 150.3 27.8416 152.709 23.9727 152.89C29.7336 190.655 63.7511 222.201 99.2822 250.55C99.4676 250.164 99.6529 249.785 99.8459 249.422C107.09 236.319 121.84 227.305 123.508 212.559Z" fill="#8DCEE8"/>
<path d="M232.139 218.307C226.069 218.05 220.115 217.103 217.05 213.104C214.262 209.824 214.818 204.909 212.594 201.091C207.582 193.994 205.914 199.455 198.67 195.085C187.542 189.079 202.57 163.418 185.31 159.048C176.398 156.859 164.714 162.32 162.483 148.671C161.927 142.665 164.714 143.21 166.375 138.84C166.938 137.749 169.719 137.204 170.275 135.56C170.823 133.924 168.043 132.826 168.043 131.19C168.599 121.904 166.931 119.723 174.723 114.808C180.291 110.437 193.658 106.067 197.55 100.614C201.45 95.6982 197.002 90.2373 198.662 84.2235C200.076 78.7171 204.138 72.3321 207.914 66.182C175.557 80.1031 148.405 114.929 148.405 114.929C146.551 78.1491 115.769 53.6848 84.9258 56.4797C94.4553 60.9635 98.3243 73.3244 98.7105 83.5873C98.7954 85.9579 98.6949 88.2149 98.4401 90.2372C97.8841 96.2434 96.2161 104.439 97.8841 109.892C100.108 117.534 107.908 119.723 110.132 127.911C111.8 133.917 110.132 140.476 111.244 147.028C112.356 152.488 112.356 161.767 114.58 167.228C120.148 182.52 140.752 173.241 151.331 179.793C163.587 187.435 154.119 205.461 152.999 215.838C151.887 231.13 139.045 257.018 134.906 272.901C134.512 274.431 134.056 275.915 133.539 277.339C140.45 282.793 147.053 288.155 153.123 293.449C168.336 275.575 202.037 248.505 232.124 218.307H232.139Z" fill="#8DCEE8"/>
<path d="M197.558 100.614C193.666 106.075 180.298 110.437 174.73 114.807C166.938 119.723 168.606 121.904 168.05 131.19C168.05 132.826 170.838 133.924 170.282 135.56C169.718 137.196 166.938 137.749 166.382 138.84C164.714 143.21 161.934 142.665 162.49 148.671C164.722 162.319 176.406 156.859 185.318 159.048C202.578 163.418 187.55 189.079 198.678 195.085C205.921 199.455 207.59 193.994 212.601 201.091C214.825 204.916 214.269 209.832 217.057 213.104C220.115 217.103 226.069 218.049 232.147 218.307C233.606 216.838 235.058 215.361 236.502 213.876C236.518 213.861 236.533 213.846 236.549 213.823C272.219 177.187 301.07 136.477 284.737 102.189C263.377 57.3203 233.962 54.9874 207.929 66.1819C204.145 72.332 200.083 78.717 198.678 84.2234C197.017 90.2372 201.466 95.6981 197.566 100.614H197.558ZM211.551 71.8019C211.42 70.4916 213.505 70.4992 213.636 71.8019C214.949 85.2231 223.05 97.7733 207.172 105.385C194.708 111.369 185.441 114.815 183.573 130.364C183.001 135.098 169.34 145.884 184.746 149.057C196.461 151.466 203.389 151.951 206.339 164.349C207.049 167.356 206.284 171.477 206.524 174.582C207.157 182.875 215.698 185.102 221.266 188.511C227.506 192.343 226.154 201.727 236.402 201.833C237.753 201.849 237.753 203.894 236.402 203.886C232.564 203.848 228.857 204.174 226.873 200.326C222.548 191.957 216.185 188.291 208.501 183.815C207.427 183.186 206.493 182.194 205.86 181.141C200.384 171.961 208.215 155.67 191.612 152.496C187.611 151.731 180.816 151.473 177.572 148.497C169.881 141.415 180.955 125.881 183.82 118.231C185.743 113.088 193.442 109.422 198.068 107.355C213.374 100.508 212.964 86.1169 211.559 71.8019H211.551Z" fill="#5AA246"/>
<path d="M153.015 215.838C154.135 205.461 163.595 187.443 151.347 179.793C140.768 173.241 120.164 182.527 114.596 167.227C112.372 161.767 112.372 152.488 111.26 147.027C110.148 140.476 111.808 133.924 110.148 127.91C107.916 119.723 100.124 117.534 97.9001 109.892C96.232 104.431 97.9001 96.2357 98.4561 90.237C98.7109 88.2072 98.8113 85.9578 98.7264 83.5871C98.3402 73.3242 94.4713 60.9633 84.9418 56.4795C84.9032 56.4795 84.8645 56.4795 84.8259 56.4947C82.9571 56.6613 81.096 56.9718 79.2271 57.3505C57.4806 61.7511 36.5914 80.2166 26.7684 118.132C23.0925 129.887 22.328 141.074 23.7876 151.761C23.8416 152.132 23.8725 152.519 23.9343 152.89C23.9343 152.89 23.9575 152.89 23.9729 152.89C27.8341 152.708 32.5449 150.299 39.4333 149.762C50.0131 149.216 53.9129 160.683 63.9367 161.774C70.0606 162.319 75.6284 158.502 82.3084 160.683C92.3322 164.508 94.5563 173.241 100.124 179.793C104.024 185.254 110.148 192.358 115.716 196.721C122.396 202.727 124.62 202.182 123.508 212.558C121.84 227.305 107.082 236.318 99.8462 249.421C99.6531 249.785 99.4678 250.163 99.2825 250.55C99.5836 250.8 99.8925 251.034 100.186 251.269C102.572 253.163 104.958 255.049 107.345 256.912C107.754 257.238 108.155 257.548 108.565 257.866C108.935 258.162 109.306 258.442 109.685 258.73C110.874 259.661 112.063 260.593 113.26 261.509C114.195 262.244 115.152 262.986 116.094 263.713C122.033 268.326 127.902 272.863 133.563 277.332C134.08 275.908 134.535 274.423 134.929 272.893C139.069 257.01 151.911 231.122 153.023 215.83L153.015 215.838ZM124.18 261.093C123.006 261.752 121.956 259.987 123.129 259.328C137.833 250.997 138.659 235.629 140.49 220.844C141.972 208.801 149.162 191.01 130.466 186.662C119.423 184.087 106.858 181.186 102.178 169.56C97.877 158.873 101.29 148.489 98.0005 137.855C95.0119 128.183 86.5867 122.45 83.4205 113.444C78.2696 98.7806 90.4093 78.8912 75.3041 67.2044C74.2462 66.394 75.7289 64.9473 76.7792 65.7577C93.7454 78.8911 76.1381 101.856 87.4438 116.254C93.5214 124.002 100.572 131.932 100.788 142.331C101.035 154.73 98.8732 172.113 113.376 179.104C119.353 181.982 124.774 182.974 131.022 184.678C148.876 189.548 147.996 195.645 144.405 211.414C140.296 229.426 142.791 250.542 124.172 261.085L124.18 261.093Z" fill="#5AA246"/>
<path d="M183.812 118.239C180.947 125.896 169.873 141.423 177.564 148.505C180.8 151.482 187.603 151.739 191.604 152.504C208.207 155.67 200.376 171.969 205.852 181.149C206.485 182.194 207.419 183.194 208.493 183.823C216.169 188.299 222.532 191.957 226.864 200.334C228.849 204.182 232.564 203.856 236.394 203.894C237.745 203.902 237.745 201.857 236.394 201.842C226.146 201.735 227.498 192.351 221.258 188.519C215.69 185.103 207.149 182.884 206.516 174.59C206.276 171.485 207.041 167.364 206.33 164.357C203.38 151.959 196.453 151.474 184.738 149.065C169.332 145.899 182.993 135.106 183.565 130.373C185.433 114.823 194.7 111.369 207.164 105.393C223.042 97.7814 214.941 85.2312 213.628 71.81C213.497 70.5072 211.412 70.4997 211.543 71.81C212.941 86.1325 213.358 100.516 198.052 107.363C193.426 109.43 185.727 113.096 183.804 118.239H183.812Z" fill="#173B07"/>
<path d="M131.029 184.679C124.781 182.974 119.36 181.99 113.383 179.104C98.8724 172.113 101.042 154.731 100.795 142.332C100.587 131.933 93.5284 123.995 87.4508 116.255C76.1451 101.856 93.7524 78.8916 76.7861 65.7582C75.7359 64.9478 74.2531 66.3945 75.3111 67.2049C90.4163 78.8917 78.2766 98.7811 83.4274 113.444C86.5937 122.45 95.0189 128.184 98.0075 137.856C101.297 148.49 97.8762 158.874 102.185 169.561C106.865 181.187 119.43 184.088 130.473 186.663C149.169 191.01 141.972 208.802 140.497 220.845C138.666 235.629 137.832 250.997 123.136 259.328C121.963 259.987 123.021 261.76 124.187 261.093C142.798 250.55 140.311 229.434 144.419 211.423C148.01 195.653 148.899 189.549 131.036 184.686L131.029 184.679Z" fill="#173B07"/>
<path d="M241.485 3.67311C242.675 1.91439 245.265 1.91439 246.454 3.67311L273.529 43.6945C273.93 44.2883 274.531 44.7186 275.223 44.9075L322.309 57.7703C324.398 58.3408 325.213 60.8683 323.851 62.5513L293.519 100.037C293.058 100.606 292.822 101.323 292.853 102.054L294.93 149.923C295.023 152.06 292.912 153.605 290.903 152.871L244.999 136.095C244.334 135.852 243.605 135.852 242.94 136.095L197.036 152.871C195.027 153.605 192.917 152.06 193.009 149.923L195.086 102.054C195.117 101.323 194.881 100.606 194.421 100.037L164.088 62.5513C162.726 60.8683 163.541 58.3408 165.63 57.7703L212.716 44.9075C213.408 44.7186 214.009 44.2883 214.411 43.6945L241.485 3.67311Z" fill="#FFBF42"/>
<path d="M222.084 82V79.12L226.884 74.176C227.828 73.2 228.54 72.432 229.02 71.872C229.516 71.296 229.852 70.816 230.028 70.432C230.22 70.048 230.316 69.672 230.316 69.304C230.316 68.648 230.1 68.136 229.668 67.768C229.252 67.384 228.724 67.192 228.084 67.192C227.428 67.192 226.844 67.384 226.332 67.768C225.82 68.136 225.444 68.704 225.204 69.472L221.964 68.416C222.156 67.488 222.556 66.68 223.164 65.992C223.772 65.304 224.508 64.776 225.372 64.408C226.236 64.024 227.14 63.832 228.084 63.832C229.268 63.832 230.308 64.04 231.204 64.456C232.1 64.872 232.796 65.456 233.292 66.208C233.788 66.96 234.036 67.84 234.036 68.848C234.036 69.488 233.924 70.12 233.7 70.744C233.476 71.352 233.132 71.976 232.668 72.616C232.22 73.24 231.636 73.92 230.916 74.656L226.812 78.88H234.204V82H222.084ZM243.533 82.288C242.109 82.288 240.853 81.904 239.765 81.136C238.693 80.368 237.853 79.288 237.245 77.896C236.637 76.504 236.333 74.888 236.333 73.048C236.333 71.192 236.629 69.576 237.221 68.2C237.829 66.824 238.669 65.752 239.741 64.984C240.829 64.216 242.085 63.832 243.509 63.832C244.965 63.832 246.229 64.216 247.301 64.984C248.389 65.752 249.229 66.832 249.821 68.224C250.429 69.6 250.733 71.208 250.733 73.048C250.733 74.888 250.429 76.504 249.821 77.896C249.229 79.272 248.389 80.352 247.301 81.136C246.229 81.904 244.973 82.288 243.533 82.288ZM243.557 78.928C244.293 78.928 244.917 78.696 245.429 78.232C245.941 77.768 246.333 77.096 246.605 76.216C246.877 75.336 247.013 74.28 247.013 73.048C247.013 71.816 246.877 70.768 246.605 69.904C246.333 69.024 245.933 68.352 245.405 67.888C244.893 67.424 244.261 67.192 243.509 67.192C242.773 67.192 242.149 67.424 241.637 67.888C241.125 68.352 240.733 69.024 240.461 69.904C240.189 70.768 240.053 71.816 240.053 73.048C240.053 74.264 240.189 75.312 240.461 76.192C240.733 77.072 241.125 77.752 241.637 78.232C242.165 78.696 242.805 78.928 243.557 78.928ZM260.097 82.288C258.673 82.288 257.417 81.904 256.329 81.136C255.257 80.368 254.417 79.288 253.809 77.896C253.201 76.504 252.897 74.888 252.897 73.048C252.897 71.192 253.193 69.576 253.785 68.2C254.393 66.824 255.233 65.752 256.305 64.984C257.393 64.216 258.649 63.832 260.073 63.832C261.529 63.832 262.793 64.216 263.865 64.984C264.953 65.752 265.793 66.832 266.385 68.224C266.993 69.6 267.297 71.208 267.297 73.048C267.297 74.888 266.993 76.504 266.385 77.896C265.793 79.272 264.953 80.352 263.865 81.136C262.793 81.904 261.537 82.288 260.097 82.288ZM260.121 78.928C260.857 78.928 261.481 78.696 261.993 78.232C262.505 77.768 262.897 77.096 263.169 76.216C263.441 75.336 263.577 74.28 263.577 73.048C263.577 71.816 263.441 70.768 263.169 69.904C262.897 69.024 262.497 68.352 261.969 67.888C261.457 67.424 260.825 67.192 260.073 67.192C259.337 67.192 258.713 67.424 258.201 67.888C257.689 68.352 257.297 69.024 257.025 69.904C256.753 70.768 256.617 71.816 256.617 73.048C256.617 74.264 256.753 75.312 257.025 76.192C257.297 77.072 257.689 77.752 258.201 78.232C258.729 78.696 259.369 78.928 260.121 78.928Z" fill="#5F3F00"/>
<path d="M221.867 103.968V92.8981H223.944V94.4413L223.752 93.9961C224.019 93.5905 224.38 93.2789 224.835 93.0613C225.3 92.8338 225.829 92.72 226.422 92.72C227.194 92.72 227.892 92.908 228.515 93.2839C229.138 93.6598 229.633 94.1692 229.999 94.8123C230.365 95.4454 230.548 96.1576 230.548 96.949C230.548 97.7305 230.365 98.4428 229.999 99.0858C229.642 99.7288 229.153 100.238 228.53 100.614C227.906 100.99 227.199 101.178 226.408 101.178C225.854 101.178 225.339 101.079 224.864 100.881C224.399 100.674 224.024 100.372 223.737 99.9761L224.093 99.5161V103.968H221.867ZM226.141 99.1748C226.556 99.1748 226.922 99.0809 227.239 98.8929C227.555 98.7049 227.802 98.4428 227.981 98.1065C228.159 97.7701 228.248 97.3843 228.248 96.949C228.248 96.5138 228.159 96.1329 227.981 95.8065C227.802 95.4701 227.555 95.208 227.239 95.02C226.922 94.8221 226.556 94.7232 226.141 94.7232C225.745 94.7232 225.389 94.8172 225.072 95.0052C224.765 95.1931 224.523 95.4553 224.345 95.7916C224.177 96.128 224.093 96.5138 224.093 96.949C224.093 97.3843 224.177 97.7701 224.345 98.1065C224.523 98.4428 224.765 98.7049 225.072 98.8929C225.389 99.0809 225.745 99.1748 226.141 99.1748ZM235.724 101.178C234.923 101.178 234.191 100.995 233.528 100.629C232.875 100.263 232.351 99.7634 231.955 99.1303C231.569 98.4873 231.376 97.7602 231.376 96.949C231.376 96.128 231.569 95.4009 231.955 94.7677C232.351 94.1346 232.875 93.6351 233.528 93.269C234.191 92.903 234.923 92.72 235.724 92.72C236.525 92.72 237.253 92.903 237.905 93.269C238.558 93.6351 239.078 94.1346 239.463 94.7677C239.859 95.4009 240.057 96.128 240.057 96.949C240.057 97.7602 239.859 98.4873 239.463 99.1303C239.078 99.7634 238.558 100.263 237.905 100.629C237.253 100.995 236.525 101.178 235.724 101.178ZM235.724 99.1748C236.13 99.1748 236.481 99.0809 236.778 98.8929C237.084 98.7049 237.322 98.4428 237.49 98.1065C237.668 97.7701 237.757 97.3843 237.757 96.949C237.757 96.5138 237.668 96.1329 237.49 95.8065C237.322 95.4701 237.084 95.208 236.778 95.02C236.481 94.8221 236.13 94.7232 235.724 94.7232C235.319 94.7232 234.962 94.8221 234.656 95.02C234.349 95.208 234.107 95.4701 233.929 95.8065C233.76 96.1329 233.676 96.5138 233.676 96.949C233.676 97.3843 233.76 97.7701 233.929 98.1065C234.107 98.4428 234.349 98.7049 234.656 98.8929C234.962 99.0809 235.319 99.1748 235.724 99.1748ZM241.22 101V92.8981H243.446V101H241.22ZM241.22 92.171V89.9452H243.446V92.171H241.22ZM244.926 101V92.8981H247.004V94.5006L246.885 94.1445C247.073 93.6598 247.374 93.3037 247.79 93.0761C248.215 92.8387 248.71 92.72 249.274 92.72C249.887 92.72 250.421 92.8486 250.876 93.1058C251.341 93.363 251.702 93.7241 251.96 94.189C252.217 94.6441 252.345 95.1783 252.345 95.7916V101H250.12V96.2665C250.12 95.9499 250.055 95.6778 249.927 95.4503C249.808 95.2228 249.635 95.0447 249.407 94.9161C249.19 94.7875 248.933 94.7232 248.636 94.7232C248.349 94.7232 248.092 94.7875 247.864 94.9161C247.637 95.0447 247.459 95.2228 247.33 95.4503C247.211 95.6778 247.152 95.9499 247.152 96.2665V101H244.926ZM257.563 101.089C256.584 101.089 255.822 100.827 255.278 100.303C254.744 99.7684 254.477 99.0265 254.477 98.0768V94.8271H253.112V92.8981H253.186C253.601 92.8981 253.918 92.7942 254.135 92.5865C254.363 92.3787 254.477 92.0671 254.477 91.6516V91.0581H256.703V92.8981H258.602V94.8271H256.703V97.9284C256.703 98.2054 256.752 98.4378 256.851 98.6258C256.95 98.8039 257.103 98.9374 257.311 99.0265C257.519 99.1155 257.776 99.16 258.083 99.16C258.152 99.16 258.231 99.1551 258.32 99.1452C258.409 99.1353 258.503 99.1254 258.602 99.1155V101C258.454 101.02 258.285 101.04 258.097 101.059C257.909 101.079 257.731 101.089 257.563 101.089ZM262.933 101.178C262.043 101.178 261.266 100.97 260.604 100.555C259.951 100.129 259.506 99.5606 259.268 98.8484L260.9 98.0768C261.108 98.512 261.39 98.8533 261.746 99.1006C262.102 99.348 262.498 99.4716 262.933 99.4716C263.25 99.4716 263.492 99.4073 263.66 99.2787C263.829 99.1501 263.913 98.972 263.913 98.7445C263.913 98.6258 263.883 98.5269 263.824 98.4477C263.764 98.3587 263.675 98.2796 263.557 98.2103C263.438 98.1411 263.289 98.0817 263.111 98.0323L261.731 97.6465C261.069 97.4585 260.559 97.1568 260.203 96.7413C259.847 96.3159 259.669 95.8163 259.669 95.2426C259.669 94.7381 259.797 94.2978 260.055 93.9219C260.312 93.546 260.673 93.2542 261.138 93.0465C261.603 92.8288 262.137 92.72 262.74 92.72C263.532 92.72 264.224 92.908 264.818 93.2839C265.421 93.6499 265.847 94.1692 266.094 94.8419L264.447 95.6135C264.328 95.2772 264.111 95.0101 263.794 94.8123C263.487 94.6045 263.136 94.5006 262.74 94.5006C262.454 94.5006 262.226 94.56 262.058 94.6787C261.9 94.7974 261.82 94.9606 261.82 95.1684C261.82 95.2772 261.85 95.3761 261.909 95.4652C261.969 95.5542 262.063 95.6333 262.191 95.7026C262.33 95.7718 262.498 95.8361 262.696 95.8955L263.987 96.2813C264.66 96.4791 265.174 96.7809 265.53 97.1865C265.886 97.5822 266.064 98.0718 266.064 98.6555C266.064 99.16 265.931 99.6002 265.664 99.9761C265.406 100.352 265.045 100.649 264.58 100.866C264.115 101.074 263.566 101.178 262.933 101.178Z" fill="#5F3F00"/>
<path d="M118.584 365V347.12H122.304V361.76H129.864V365H118.584ZM137.517 365.288C136.125 365.288 134.917 364.984 133.893 364.376C132.869 363.752 132.077 362.92 131.517 361.88C130.957 360.84 130.677 359.688 130.677 358.424C130.677 357.112 130.965 355.944 131.541 354.92C132.133 353.896 132.925 353.088 133.917 352.496C134.909 351.904 136.029 351.608 137.277 351.608C138.317 351.608 139.237 351.776 140.037 352.112C140.837 352.432 141.509 352.888 142.053 353.48C142.613 354.072 143.037 354.76 143.325 355.544C143.613 356.312 143.757 357.152 143.757 358.064C143.757 358.32 143.741 358.576 143.709 358.832C143.693 359.072 143.653 359.28 143.589 359.456H133.773V356.816H141.549L139.845 358.064C140.005 357.376 139.997 356.768 139.821 356.24C139.645 355.696 139.333 355.272 138.885 354.968C138.453 354.648 137.917 354.488 137.277 354.488C136.653 354.488 136.117 354.64 135.669 354.944C135.221 355.248 134.885 355.696 134.661 356.288C134.437 356.88 134.349 357.6 134.397 358.448C134.333 359.184 134.421 359.832 134.661 360.392C134.901 360.952 135.269 361.392 135.765 361.712C136.261 362.016 136.861 362.168 137.565 362.168C138.205 362.168 138.749 362.04 139.197 361.784C139.661 361.528 140.021 361.176 140.277 360.728L143.157 362.096C142.901 362.736 142.493 363.296 141.933 363.776C141.389 364.256 140.741 364.632 139.989 364.904C139.237 365.16 138.413 365.288 137.517 365.288ZM149.507 365L144.347 351.896H148.235L151.811 361.808H150.323L153.899 351.896H157.787L152.627 365H149.507ZM165.209 365.288C163.817 365.288 162.609 364.984 161.585 364.376C160.561 363.752 159.769 362.92 159.209 361.88C158.649 360.84 158.369 359.688 158.369 358.424C158.369 357.112 158.657 355.944 159.233 354.92C159.825 353.896 160.617 353.088 161.609 352.496C162.601 351.904 163.721 351.608 164.969 351.608C166.009 351.608 166.929 351.776 167.729 352.112C168.529 352.432 169.201 352.888 169.745 353.48C170.305 354.072 170.729 354.76 171.017 355.544C171.305 356.312 171.449 357.152 171.449 358.064C171.449 358.32 171.433 358.576 171.401 358.832C171.385 359.072 171.345 359.28 171.281 359.456H161.465V356.816H169.241L167.537 358.064C167.697 357.376 167.689 356.768 167.513 356.24C167.337 355.696 167.025 355.272 166.577 354.968C166.145 354.648 165.609 354.488 164.969 354.488C164.345 354.488 163.809 354.64 163.361 354.944C162.913 355.248 162.577 355.696 162.353 356.288C162.129 356.88 162.041 357.6 162.089 358.448C162.025 359.184 162.113 359.832 162.353 360.392C162.593 360.952 162.961 361.392 163.457 361.712C163.953 362.016 164.553 362.168 165.257 362.168C165.897 362.168 166.441 362.04 166.889 361.784C167.353 361.528 167.713 361.176 167.969 360.728L170.849 362.096C170.593 362.736 170.185 363.296 169.625 363.776C169.081 364.256 168.433 364.632 167.681 364.904C166.929 365.16 166.105 365.288 165.209 365.288ZM173.329 365V346.832H176.929V365H173.329ZM183.084 365V362.12L187.884 357.176C188.828 356.2 189.54 355.432 190.02 354.872C190.516 354.296 190.852 353.816 191.028 353.432C191.22 353.048 191.316 352.672 191.316 352.304C191.316 351.648 191.1 351.136 190.668 350.768C190.252 350.384 189.724 350.192 189.084 350.192C188.428 350.192 187.844 350.384 187.332 350.768C186.82 351.136 186.444 351.704 186.204 352.472L182.964 351.416C183.156 350.488 183.556 349.68 184.164 348.992C184.772 348.304 185.508 347.776 186.372 347.408C187.236 347.024 188.14 346.832 189.084 346.832C190.268 346.832 191.308 347.04 192.204 347.456C193.1 347.872 193.796 348.456 194.292 349.208C194.788 349.96 195.036 350.84 195.036 351.848C195.036 352.488 194.924 353.12 194.7 353.744C194.476 354.352 194.132 354.976 193.668 355.616C193.22 356.24 192.636 356.92 191.916 357.656L187.812 361.88H195.204V365H183.084Z" fill="#242E49"/>
<path d="M114.328 405V393.08H122.088V394.52H115.896V398.296H121.768V399.736H115.896V403.56H122.088V405H114.328ZM123.695 405V392.888H125.183V405H123.695ZM131.3 405.192C130.468 405.192 129.727 404.995 129.076 404.6C128.425 404.205 127.913 403.667 127.54 402.984C127.167 402.291 126.98 401.517 126.98 400.664C126.98 399.8 127.161 399.032 127.524 398.36C127.897 397.688 128.399 397.16 129.028 396.776C129.668 396.381 130.383 396.184 131.172 396.184C131.812 396.184 132.377 396.301 132.868 396.536C133.369 396.76 133.791 397.069 134.132 397.464C134.484 397.848 134.751 398.291 134.932 398.792C135.124 399.283 135.22 399.795 135.22 400.328C135.22 400.445 135.209 400.579 135.188 400.728C135.177 400.867 135.161 401 135.14 401.128H128.068V399.848H134.276L133.572 400.424C133.668 399.869 133.615 399.373 133.412 398.936C133.209 398.499 132.911 398.152 132.516 397.896C132.121 397.64 131.673 397.512 131.172 397.512C130.671 397.512 130.212 397.64 129.796 397.896C129.38 398.152 129.055 398.52 128.82 399C128.596 399.469 128.505 400.029 128.548 400.68C128.505 401.309 128.601 401.864 128.836 402.344C129.081 402.813 129.423 403.181 129.86 403.448C130.308 403.704 130.793 403.832 131.316 403.832C131.892 403.832 132.377 403.699 132.772 403.432C133.167 403.165 133.487 402.824 133.732 402.408L134.98 403.048C134.809 403.443 134.543 403.805 134.18 404.136C133.828 404.456 133.407 404.712 132.916 404.904C132.436 405.096 131.897 405.192 131.3 405.192ZM137 405V396.376H138.456V398.136L138.248 397.864C138.461 397.32 138.803 396.904 139.272 396.616C139.741 396.328 140.269 396.184 140.856 396.184C141.528 396.184 142.131 396.371 142.664 396.744C143.208 397.117 143.581 397.608 143.784 398.216L143.368 398.232C143.592 397.56 143.971 397.053 144.504 396.712C145.037 396.36 145.629 396.184 146.28 396.184C146.877 396.184 147.416 396.323 147.896 396.6C148.387 396.877 148.776 397.261 149.064 397.752C149.352 398.243 149.496 398.797 149.496 399.416V405H147.992V399.896C147.992 399.416 147.907 399.011 147.736 398.68C147.565 398.349 147.331 398.093 147.032 397.912C146.744 397.72 146.403 397.624 146.008 397.624C145.624 397.624 145.277 397.72 144.968 397.912C144.669 398.093 144.429 398.355 144.248 398.696C144.077 399.027 143.992 399.427 143.992 399.896V405H142.488V399.896C142.488 399.416 142.403 399.011 142.232 398.68C142.061 398.349 141.827 398.093 141.528 397.912C141.24 397.72 140.899 397.624 140.504 397.624C140.12 397.624 139.773 397.72 139.464 397.912C139.165 398.093 138.925 398.355 138.744 398.696C138.573 399.027 138.488 399.427 138.488 399.896V405H137ZM155.418 405.192C154.586 405.192 153.844 404.995 153.194 404.6C152.543 404.205 152.031 403.667 151.658 402.984C151.284 402.291 151.098 401.517 151.098 400.664C151.098 399.8 151.279 399.032 151.642 398.36C152.015 397.688 152.516 397.16 153.146 396.776C153.786 396.381 154.5 396.184 155.29 396.184C155.93 396.184 156.495 396.301 156.986 396.536C157.487 396.76 157.908 397.069 158.25 397.464C158.602 397.848 158.868 398.291 159.05 398.792C159.242 399.283 159.338 399.795 159.338 400.328C159.338 400.445 159.327 400.579 159.306 400.728C159.295 400.867 159.279 401 159.258 401.128H152.186V399.848H158.394L157.69 400.424C157.786 399.869 157.732 399.373 157.53 398.936C157.327 398.499 157.028 398.152 156.634 397.896C156.239 397.64 155.791 397.512 155.29 397.512C154.788 397.512 154.33 397.64 153.914 397.896C153.498 398.152 153.172 398.52 152.938 399C152.714 399.469 152.623 400.029 152.666 400.68C152.623 401.309 152.719 401.864 152.954 402.344C153.199 402.813 153.54 403.181 153.978 403.448C154.426 403.704 154.911 403.832 155.434 403.832C156.01 403.832 156.495 403.699 156.89 403.432C157.284 403.165 157.604 402.824 157.85 402.408L159.098 403.048C158.927 403.443 158.66 403.805 158.298 404.136C157.946 404.456 157.524 404.712 157.034 404.904C156.554 405.096 156.015 405.192 155.418 405.192ZM161.118 405V396.376H162.574V398.056L162.334 397.912C162.547 397.368 162.888 396.947 163.358 396.648C163.838 396.339 164.398 396.184 165.038 396.184C165.656 396.184 166.206 396.323 166.686 396.6C167.176 396.877 167.56 397.261 167.838 397.752C168.126 398.243 168.27 398.797 168.27 399.416V405H166.766V399.896C166.766 399.416 166.68 399.011 166.51 398.68C166.339 398.349 166.094 398.093 165.774 397.912C165.464 397.72 165.107 397.624 164.702 397.624C164.296 397.624 163.934 397.72 163.614 397.912C163.304 398.093 163.059 398.355 162.878 398.696C162.696 399.027 162.606 399.427 162.606 399.896V405H161.118ZM173.743 405.096C172.9 405.096 172.25 404.856 171.791 404.376C171.343 403.896 171.119 403.219 171.119 402.344V397.8H169.551V396.376H169.871C170.255 396.376 170.559 396.259 170.783 396.024C171.007 395.789 171.119 395.48 171.119 395.096V394.392H172.607V396.376H174.543V397.8H172.607V402.296C172.607 402.584 172.65 402.835 172.735 403.048C172.831 403.261 172.986 403.432 173.199 403.56C173.412 403.677 173.695 403.736 174.047 403.736C174.122 403.736 174.212 403.731 174.319 403.72C174.436 403.709 174.543 403.699 174.639 403.688V405C174.5 405.032 174.346 405.053 174.175 405.064C174.004 405.085 173.86 405.096 173.743 405.096ZM178.841 405.192C178.276 405.192 177.775 405.091 177.337 404.888C176.911 404.675 176.575 404.387 176.329 404.024C176.084 403.651 175.961 403.224 175.961 402.744C175.961 402.285 176.057 401.875 176.249 401.512C176.452 401.139 176.761 400.824 177.177 400.568C177.604 400.312 178.137 400.131 178.777 400.024L181.977 399.496V400.744L179.113 401.224C178.559 401.32 178.153 401.496 177.897 401.752C177.652 402.008 177.529 402.323 177.529 402.696C177.529 403.048 177.668 403.341 177.945 403.576C178.233 403.811 178.591 403.928 179.017 403.928C179.561 403.928 180.031 403.816 180.425 403.592C180.831 403.357 181.145 403.043 181.369 402.648C181.604 402.253 181.721 401.816 181.721 401.336V399.144C181.721 398.675 181.545 398.296 181.193 398.008C180.852 397.709 180.399 397.56 179.833 397.56C179.343 397.56 178.905 397.688 178.521 397.944C178.148 398.189 177.871 398.52 177.689 398.936L176.393 398.264C176.553 397.869 176.809 397.517 177.161 397.208C177.513 396.888 177.924 396.637 178.393 396.456C178.863 396.275 179.353 396.184 179.865 396.184C180.527 396.184 181.108 396.312 181.609 396.568C182.111 396.813 182.5 397.16 182.777 397.608C183.065 398.045 183.209 398.557 183.209 399.144V405H181.753V403.368L182.025 403.464C181.844 403.805 181.599 404.104 181.289 404.36C180.98 404.616 180.617 404.819 180.201 404.968C179.785 405.117 179.332 405.192 178.841 405.192ZM185.356 405V396.376H186.812V397.96L186.652 397.736C186.855 397.245 187.164 396.883 187.58 396.648C187.996 396.403 188.503 396.28 189.1 396.28H189.628V397.688H188.876C188.268 397.688 187.778 397.88 187.404 398.264C187.031 398.637 186.844 399.171 186.844 399.864V405H185.356ZM191.254 408.52C191.062 408.52 190.87 408.504 190.678 408.472C190.486 408.451 190.305 408.403 190.134 408.328V407C190.251 407.011 190.395 407.032 190.566 407.064C190.747 407.096 190.923 407.112 191.094 407.112C191.595 407.112 191.974 407 192.23 406.776C192.497 406.552 192.747 406.173 192.982 405.64L193.526 404.344L193.494 405.64L189.814 396.376H191.43L194.294 403.736H193.814L196.662 396.376H198.31L194.422 406.024C194.241 406.483 194.006 406.904 193.718 407.288C193.441 407.672 193.099 407.971 192.694 408.184C192.289 408.408 191.809 408.52 191.254 408.52Z" fill="#242E49"/>
</svg>
