<svg width="48" height="48" viewBox="0 0 48 48" fill="none" xmlns="http://www.w3.org/2000/svg">
<path d="M23.3172 18.6382C23.7015 18.279 24.2985 18.279 24.6828 18.6382L25.7055 19.594C25.817 19.6982 25.9509 19.7755 26.097 19.82L27.436 20.2277C27.9393 20.381 28.2378 20.898 28.1189 21.4104L27.8025 22.774C27.7679 22.9227 27.7679 23.0773 27.8025 23.226L28.1189 24.5896C28.2378 25.102 27.9393 25.619 27.436 25.7723L26.097 26.18C25.9509 26.2245 25.817 26.3018 25.7055 26.406L24.6828 27.3618C24.2985 27.721 23.7015 27.721 23.3172 27.3618L22.2945 26.406C22.183 26.3018 22.0491 26.2245 21.903 26.18L20.564 25.7723C20.0607 25.619 19.7622 25.102 19.8811 24.5896L20.1975 23.226C20.2321 23.0773 20.2321 22.9227 20.1975 22.774L19.8811 21.4104C19.7622 20.898 20.0607 20.381 20.564 20.2277L21.903 19.82C22.0491 19.7755 22.183 19.6982 22.2945 19.594L23.3172 18.6382Z" stroke="#7E7E7E" stroke-width="2"/>
<circle cx="24" cy="24" r="10" stroke="#7E7E7E" stroke-width="2"/>
<path d="M21 31L23.2 28.0667C23.6 27.5333 24.4 27.5333 24.8 28.0667L27 31" stroke="#7E7E7E" stroke-width="2"/>
</svg>
