<svg width="423" height="415" viewBox="0 0 423 415" fill="none" xmlns="http://www.w3.org/2000/svg">
<path d="M325.83 190.03C328.44 190.21 331.05 191.18 333.35 193.12C336.81 196.05 339.05 200.61 339.38 205.12C339.34 204.62 339.27 204.11 339.19 203.6H377.92C376.36 190.53 370.5 177.6 361.85 167.86C353.07 177.03 344.29 186.2 335.52 195.37C334.95 194.67 334.34 194.02 333.67 193.42C342.46 184.24 351.25 175.05 360.05 165.86C358.76 164.54 357.45 163.26 356.06 162.09C347.4 154.76 336.97 150.89 325.91 150.89H325.84V190.01H325.82L325.83 190.03Z" fill="white"/>
<path d="M378.271 206.32C378.271 206.32 378.271 206.3 378.271 206.28H339.421L339.391 205.11C339.721 209.74 338.051 214.32 333.621 217.06C331.011 218.67 328.011 219.55 325.031 219.7C325.301 219.69 325.581 219.72 325.851 219.69V258.75C337.021 258.2 348.301 254.74 357.921 248.8C359.901 247.58 361.641 246.27 363.261 244.91C353.641 235.45 344.021 225.99 334.391 216.53C335.151 215.99 335.811 215.38 336.391 214.73C346.011 224.19 355.651 233.66 365.271 243.12C377.811 231.21 378.921 215.46 378.261 206.31L378.271 206.32Z" fill="white"/>
<path d="M335.532 195.38C344.302 186.21 353.082 177.04 361.862 167.87C361.562 167.54 361.302 167.18 360.992 166.86C360.752 166.59 360.502 166.32 360.252 166.06C360.182 165.99 360.112 165.94 360.052 165.87C351.252 175.06 342.462 184.25 333.672 193.43C334.332 194.03 334.952 194.68 335.522 195.38H335.532Z" fill="#683507"/>
<path d="M339.391 205.12L339.421 206.29H378.271C378.201 205.4 378.041 204.5 377.931 203.61H339.201C339.281 204.11 339.351 204.62 339.391 205.13V205.12Z" fill="#683507"/>
<path d="M323.312 190.1C324.152 190 324.992 189.97 325.832 190.03H325.852V150.91C324.962 150.91 324.062 151 323.172 151.05V190.11C323.172 190.11 323.262 190.11 323.312 190.11V190.1Z" fill="#683507"/>
<path d="M334.391 216.54C344.011 226 353.641 235.46 363.261 244.92C363.471 244.74 363.711 244.57 363.921 244.39C364.241 244.11 364.561 243.83 364.871 243.54C365.011 243.41 365.141 243.27 365.281 243.14C355.661 233.68 346.021 224.21 336.401 214.75C335.821 215.4 335.161 216 334.401 216.55L334.391 216.54Z" fill="#683507"/>
<path d="M325.032 219.71C324.592 219.74 324.162 219.75 323.732 219.74C323.542 219.74 323.362 219.76 323.182 219.74V258.85C324.072 258.85 324.972 258.8 325.862 258.75V219.69C325.582 219.72 325.312 219.69 325.042 219.7L325.032 219.71Z" fill="#683507"/>
<path d="M349.481 277.26L348.401 276.63C347.851 276.63 347.411 276.92 347.041 277.51C346.741 278.11 346.441 278.81 346.131 279.62C345.831 280.42 345.531 281.23 345.241 282.06C344.941 282.88 344.681 283.7 344.441 284.49C344.201 285.3 343.991 286 343.801 286.6L343.661 286.33L343.491 285.69L343.291 284.85L343.061 283.98L342.901 283.37L342.661 282.42L342.341 281.31L341.981 280.19L341.691 279.4L341.301 278.62L340.761 278.02L340.051 277.78L339.391 277.96L339.031 278.65L339.161 279.17L339.421 279.91C339.491 280.19 339.601 280.56 339.741 281.01C339.871 281.46 340.011 281.96 340.171 282.5C340.331 283.04 340.501 283.61 340.671 284.18C340.841 284.77 341.011 285.32 341.171 285.86C341.331 286.4 341.481 286.9 341.611 287.35C341.741 287.8 341.841 288.16 341.931 288.42L342.301 289.16L342.731 289.77C342.731 290.01 342.731 290.43 342.751 291.01C342.751 291.59 342.771 292.25 342.781 292.99C342.791 293.74 342.801 294.51 342.811 295.31C342.811 296.11 342.841 296.86 342.861 297.55C342.901 298.24 342.931 298.83 342.951 299.32C342.981 299.82 343.021 300.11 343.061 300.21L343.701 301.09C343.991 301.33 344.381 301.5 344.881 301.6L345.331 301.66C345.831 301.66 346.171 301.45 346.331 301.01C346.491 300.58 346.581 300.08 346.601 299.49V299.31C346.601 298.87 346.581 298.35 346.541 297.73C346.501 297.12 346.451 296.48 346.411 295.8C346.361 295.13 346.311 294.44 346.271 293.73C346.231 293.02 346.211 292.33 346.211 291.66C346.211 290.9 346.251 290.2 346.311 289.55C346.381 288.91 346.521 288.38 346.721 287.96C346.941 287.48 347.111 287.03 347.251 286.6C347.381 286.17 347.551 285.68 347.751 285.09C348.091 284.11 348.451 283.13 348.831 282.13C349.211 281.14 349.541 280.22 349.821 279.38L349.931 279L349.971 278.65L349.821 277.9L349.461 277.24L349.481 277.26Z" fill="#173B07"/>
<path d="M216.49 216.44C215.91 216.52 215.33 216.6 214.74 216.62C215.33 216.6 215.9 216.52 216.49 216.44Z" fill="white"/>
<path d="M213.43 216.6C212.85 216.58 212.29 216.54 211.73 216.45C212.29 216.54 212.85 216.57 213.43 216.6Z" fill="white"/>
<path d="M210.46 216.21C209.91 216.08 209.36 215.91 208.82 215.72C209.36 215.91 209.9 216.08 210.46 216.21Z" fill="white"/>
<path d="M207.661 215.26C207.121 215.01 206.621 214.7 206.121 214.37C206.621 214.7 207.121 215 207.661 215.26Z" fill="white"/>
<path d="M134.85 280.11C134.41 279.52 133.85 279.22 133.19 279.22L133.06 279.88L132.71 280.09L132.01 279.91L131.33 279.58C130.49 279.28 129.78 279.34 129.21 279.76C128.64 280.18 128.17 280.77 127.81 281.53C127.47 282.23 127.17 283.22 126.89 284.49C126.62 285.77 126.43 287.15 126.3 288.63C126.2 289.87 126.18 291.12 126.26 292.36C126.33 293.6 126.51 294.72 126.81 295.72C127.11 296.72 127.54 297.55 128.11 298.19C128.67 298.83 129.39 299.16 130.27 299.18C130.93 299.2 131.53 299.04 132.06 298.7C132.59 298.36 133.06 297.9 133.48 297.34C133.91 296.77 134.27 296.14 134.57 295.41C134.87 294.69 135.12 293.97 135.34 293.23C135.55 292.49 135.71 291.78 135.84 291.09C135.96 290.39 136.05 289.81 136.11 289.33C136.25 288.09 136.31 286.86 136.27 285.64C136.24 284.43 136.11 283.34 135.86 282.39C135.62 281.44 135.28 280.67 134.84 280.07L134.85 280.11Z" fill="white"/>
<path d="M202.821 284.99C203.041 284.47 203.211 283.94 203.301 283.4C203.401 282.86 203.451 282.34 203.451 281.84C203.451 281.2 203.381 280.66 203.241 280.25C203.011 279.57 202.711 279.08 202.341 278.77L201.181 278.32C200.721 278.34 200.271 278.52 199.851 278.87C199.431 279.23 199.111 279.72 198.911 280.36L198.821 280.99L198.761 282.13C198.741 282.58 198.721 283.05 198.721 283.56C198.711 284.07 198.701 284.57 198.701 285.05C198.701 285.73 198.711 286.34 198.731 286.87C198.751 287.4 198.791 287.73 198.851 287.88L199.511 288L200.481 287.76L201.391 287.11L202.181 286.16L202.821 284.98V284.99Z" fill="white"/>
<path d="M220.81 215.34C221.63 215 222.45 214.6 223.23 214.14H223.21L223.58 213.95C222.68 214.5 221.73 214.97 220.75 215.36C220.77 215.35 220.79 215.34 220.82 215.34H220.81Z" fill="white"/>
<path d="M221.21 188.56C221.14 188.52 221.06 188.5 220.99 188.46C221.08 188.51 221.18 188.55 221.28 188.6C221.26 188.59 221.24 188.57 221.21 188.56Z" fill="white"/>
<path d="M223.23 214.15C224.64 216.07 225.98 218.07 227.28 220.11C225.98 218.07 224.65 216.07 223.23 214.15Z" fill="white"/>
<path d="M224.881 221.27C225.421 222.13 225.951 223 226.491 223.88C225.951 223 225.431 222.13 224.881 221.27Z" fill="white"/>
<path d="M203.08 184.15C203.08 184.15 203.02 184.07 202.98 184.03C203.02 184.07 203.05 184.11 203.08 184.15Z" fill="white"/>
<path d="M202.49 193.43C202.68 193.16 202.87 192.9 203.08 192.64C202.87 192.89 202.68 193.16 202.49 193.43Z" fill="white"/>
<path d="M205.23 190.5C205.46 190.31 205.69 190.12 205.93 189.94C205.69 190.12 205.45 190.31 205.23 190.5Z" fill="white"/>
<path d="M162.932 198.09C163.342 200.5 163.662 202.93 163.842 205.37C163.662 202.93 163.352 200.5 162.932 198.09Z" fill="white"/>
<path d="M199.641 201.99C199.641 201.28 199.701 200.57 199.801 199.88C199.701 200.57 199.641 201.27 199.641 201.99Z" fill="white"/>
<path d="M205.141 213.71C204.621 213.3 204.141 212.81 203.691 212.31C204.151 212.81 204.621 213.3 205.141 213.71Z" fill="white"/>
<path d="M202.981 211.57C202.341 210.75 201.761 209.83 201.291 208.79C201.761 209.83 202.331 210.74 202.981 211.57Z" fill="white"/>
<path d="M200.551 197.07C200.681 196.71 200.811 196.35 200.961 196C200.801 196.35 200.681 196.71 200.551 197.07Z" fill="white"/>
<path d="M203.771 191.87C203.981 191.64 204.202 191.41 204.422 191.2C204.192 191.41 203.981 191.65 203.771 191.87Z" fill="white"/>
<path d="M96.1404 219.73C91.0104 219.61 86.1304 217.18 83.7504 211.9C82.8704 209.93 82.1004 207.27 82.1004 205.1L82.1804 206.29H43.1504C43.2604 213.15 45.6004 222.65 49.2304 230.72C51.4704 235.7 54.4404 240.01 57.9404 243.76C67.1504 234.14 76.3604 224.51 85.5804 214.88C86.1504 215.59 86.8004 216.21 87.4904 216.76C78.2804 226.38 69.0604 236.01 59.8604 245.64C68.8004 254.14 80.9704 258.87 95.2004 258.87C95.3304 258.87 95.4604 258.86 95.6004 258.86V219.75C95.7804 219.76 95.9604 219.73 96.1404 219.75V219.73Z" fill="white"/>
<path d="M298.762 282.14C298.492 281.28 298.102 280.5 297.592 279.79C297.082 279.09 296.412 278.57 295.592 278.23L294.802 278L293.932 277.88L293.132 277.91L292.592 278.11C292.612 278.81 292.632 279.43 292.652 279.96C292.672 280.49 292.702 281.07 292.732 281.71C292.762 282.34 292.782 282.94 292.802 283.51C292.822 284.08 292.842 284.58 292.842 285.01L292.862 285.84L292.742 294.33L292.772 295.31V296.36L292.762 297.38L292.902 298.27L293.032 298.55H293.442L294.132 298.35L294.792 298.05C295.632 297.57 296.332 296.9 296.902 296.05C297.462 295.2 297.922 294.28 298.272 293.28C298.622 292.29 298.882 291.27 299.062 290.23C299.232 289.19 299.332 288.22 299.372 287.35C299.412 286.56 299.392 285.72 299.312 284.81C299.232 283.89 299.062 283.01 298.782 282.14H298.762Z" fill="white"/>
<path d="M150.691 206.32C150.691 206.32 150.691 206.3 150.691 206.28H111.851L111.811 205.11C112.161 209.74 110.471 214.32 106.041 217.06C103.431 218.67 100.431 219.55 97.4512 219.7C97.7212 219.69 98.0112 219.72 98.2912 219.69V258.75C109.461 258.2 120.741 254.74 130.351 248.8C132.321 247.58 134.071 246.27 135.691 244.91C126.071 235.45 116.441 226 106.821 216.53C107.581 215.99 108.241 215.38 108.811 214.73C118.441 224.19 128.071 233.65 137.701 243.12C150.241 231.21 151.361 215.46 150.701 206.31L150.691 206.32Z" fill="white"/>
<path d="M378.21 288.94C378.38 288.42 378.44 288.26 378.58 287.73L378.86 286.74L378.92 286.43C379.46 286.11 380.03 285.83 380.57 285.5C408.54 268.23 423.76 237.46 421.27 203.2C419.85 183.59 412.61 164.38 401.27 148.37C402.61 144.41 403.2 140.13 402.81 135.7C400.45 108.72 362.89 93.58 336.13 90.36C340.2 78.79 337.29 65.63 328.21 55.43C321.55 47.94 312.16 41.72 309.44 39.99C308.89 39.64 308.33 39.31 307.76 39C300.49 35.02 293.21 33 286.11 33C275.73 33 266.34 37.32 260.02 44.69C256.4 44.4 252.67 43.85 249.23 43.25C241.86 39.2 234.55 37.14 227.51 37.14C212.28 37.14 199.33 46.74 195.28 61.03C194.62 63.35 194.22 65.69 194.07 68.03C192.75 61.29 189.87 56.35 187.69 53.39C177.45 39.48 161.47 38.07 156.21 37.6C154.53 37.46 152.41 37.35 149.94 37.35C145.84 37.35 124.55 37.74 107.52 45.47C92.23 52.41 83.37 70.27 86.72 87.22C56.45 90.12 16.28 109.33 14.82 137.15C14.56 142.12 15.43 146.85 17.24 151.09C6.01999 167.21 0 186.07 0 205.77C0 224.37 6.93999 241.8 9.92999 248.42C17.25 264.69 28.91 277.91 43.36 287.16V287.85C43.4 289.11 43.43 290.36 43.47 291.15L43.51 294.18V294.61C43.35 295.87 43.27 297.13 43.27 298.33C43.27 302.74 44.2 307.05 46.01 311.15L46.22 311.61C48.84 317.26 53.09 321.97 58.53 325.25C62.17 327.56 67.8 330.04 75.24 330.04C76.43 330.04 77.61 329.98 78.77 329.86C81.26 329.91 83.81 329.73 86.36 329.3C87.54 329.11 88.68 328.75 89.82 328.42C92.8 329.79 95.93 330.83 99.18 331.4C101.26 331.79 103.41 331.97 105.72 331.97C107.68 331.97 109.67 331.82 111.78 331.51C114.62 331.08 117.31 330.31 119.84 329.24C121.86 329.85 123.91 330.35 126.05 330.62C127.61 330.82 129.14 330.91 130.63 330.91C134.77 330.91 138.83 330.2 142.76 328.77C146.91 327.24 150.72 325 154.22 322L154.53 321.69C157.6 324.6 161.19 326.86 165.22 328.34C168.94 329.74 172.82 330.44 176.76 330.44C179.49 330.44 182.16 330.05 184.67 329.4C189.65 331.58 195.13 332.57 200.79 332.01C202.82 332.4 204.88 332.6 206.93 332.6C210.91 332.6 214.76 331.79 218.38 330.39C220.2 330.73 222.29 330.97 223.92 330.91C227.32 330.91 230.68 330.31 233.85 329.25C235.92 329.71 238.13 330.05 240.63 330.05C241.82 330.05 242.99 329.99 244.16 329.87C246.62 329.92 249.21 329.74 251.75 329.31C252.3 329.22 252.81 329.02 253.34 328.91C256.45 329.94 259.94 330.57 263.16 330.57C264.83 330.57 266.61 330.42 268.33 330.13C271.76 330.68 275.57 330.66 279 330.05C280.23 329.83 281.43 329.54 282.61 329.18C285.68 330.11 288.89 330.68 292.22 330.68C294.65 330.68 297.09 330.43 299.66 329.91L300.41 329.75C302.16 329.35 303.85 328.8 305.52 328.18L306.07 328.41C307.35 328.94 308.85 329.47 310.64 329.94C313.14 330.6 316.18 331 318.76 331C320.99 331 323.18 330.76 325.34 330.3L325.6 330.28C327.74 330.19 329.72 329.95 331.78 329.52C332.23 329.42 332.66 329.25 333.11 329.13C335.05 329.91 337.05 330.57 339.15 330.99C341.03 331.35 343.41 331.6 345.32 331.6C358.41 331.6 369.81 323.71 374.37 311.49C375.66 308.01 376.38 304.32 376.51 300.51L376.53 299.33C376.53 298.36 376.49 297.2 376.39 295.61L376.29 294.17L376.78 292.86C377.32 291.45 377.78 290.15 378.19 288.96L378.21 288.94ZM193.75 84.93C194.32 82.31 194.63 79.82 194.73 77.47C197.02 88.31 204.47 98.45 215.97 105.55C223.23 110.03 229.74 113.01 235.84 114.63C231.25 120.54 226.39 126.88 221.16 133.77C218.7 137.01 215.92 140.69 212.98 144.65C205.25 134.98 197.63 125.11 190.18 115.45C187.7 112.23 185.19 108.98 182.66 105.72C188.04 100.44 191.94 93.35 193.75 84.94V84.93ZM82.82 299.07C82.5 299.43 82.03 299.66 81.43 299.76C80.83 299.86 80.23 299.91 79.63 299.91L78.92 299.89L78.3 299.87H77.67L76.76 299.9L76.19 299.96L75.74 300.03L75.22 300.08L74.56 299.96L74.08 299.66L73.34 298.96L73.18 298.3L73.23 297.91L73.3 297.7C73.34 297.2 73.37 296.65 73.39 296.06C73.41 295.47 73.42 294.83 73.42 294.15C73.42 293.55 73.42 292.92 73.4 292.27C73.4 291.62 73.38 290.95 73.36 290.27C73.32 289.26 73.29 288.26 73.27 287.25C73.25 286.23 73.23 285.25 73.23 284.29C73.23 283.33 73.21 282.42 73.2 281.57C73.18 280.71 73.18 279.95 73.18 279.27C73.18 278.75 73.2 278.4 73.23 278.23L73.35 277.93L73.49 277.87L73.61 277.53L73.64 277.2L73.66 276.96L73.79 276.72C73.95 276.54 74.36 276.41 75.02 276.33C75.68 276.25 76.43 276.21 77.27 276.21L77.82 276.23L78.36 276.25C79.18 276.29 79.94 276.36 80.63 276.45C81.32 276.54 81.81 276.65 82.09 276.77L82.44 277.06L82.63 277.56L82.57 277.8C82.41 278.15 82.09 278.37 81.6 278.46C81.11 278.55 80.56 278.6 79.96 278.6L79.15 278.58H78.34L77.65 278.57L76.9 278.6L76.36 278.75V279.11C76.36 279.39 76.36 279.77 76.39 280.23C76.41 280.7 76.44 281.21 76.48 281.75C76.54 282.25 76.59 282.75 76.61 283.25C76.65 283.75 76.67 284.2 76.7 284.61C76.73 285 76.76 285.47 76.81 285.99L77.53 286.17L78.37 286.13L79.3 286.09L79.82 286.12L80.32 286.21L80.94 286.59L81.08 287.06V287.18L80.93 287.79L80.18 288.23L79.32 288.39L78.4 288.51L77.54 288.56L76.86 288.58V290.76L76.89 291.95V293.06L76.92 294.17L76.9 295.28V296.39L76.89 297.05L76.97 297.5L77.37 297.65C77.83 297.65 78.26 297.63 78.67 297.6L79.87 297.56L81.03 297.63L82.19 297.92C82.73 298.12 83.01 298.37 83.01 298.67L82.83 299.09L82.82 299.07ZM108.45 301.51C108.21 301.69 107.83 301.81 107.29 301.9C106.76 301.98 106.23 302.02 105.71 302.02C105.19 302.02 104.77 301.98 104.48 301.93C103.64 301.79 102.84 301.54 102.09 301.16C101.33 300.79 100.63 300.33 99.99 299.76C99.17 299.04 98.47 298.2 97.9 297.25C97.33 296.3 96.9 295.31 96.63 294.29C96.27 292.93 96.03 291.42 95.93 289.77L95.88 288.86L95.86 287.91C95.86 286.81 95.93 285.74 96.07 284.71C96.2 283.67 96.42 282.72 96.7 281.83C97 280.91 97.4 280.12 97.9 279.47C98.4 278.82 98.97 278.28 99.59 277.86C100.21 277.44 100.86 277.11 101.55 276.9C102.23 276.68 102.91 276.54 103.56 276.48L103.97 276.45H104.37C104.98 276.45 105.53 276.5 106.06 276.6C106.58 276.7 107.04 276.84 107.43 277.02L108.37 277.63L108.71 278.33L108.53 278.83L108.09 279.12L107.44 279.19L106.43 279.1L105.33 278.91L104.31 278.72L103.5 278.62L102.45 278.78L101.5 279.37C101.21 279.66 100.94 280.04 100.7 280.53C100.46 281.02 100.25 281.64 100.07 282.38C99.95 282.92 99.86 283.47 99.78 284.04C99.71 284.6 99.66 285.14 99.62 285.65C99.58 286.17 99.55 286.64 99.53 287.08L99.46 288.19C99.46 289.21 99.51 290.21 99.58 291.19C99.66 292.16 99.84 293.12 100.12 294.06C100.32 294.77 100.58 295.44 100.91 296.1C101.23 296.75 101.63 297.38 102.11 297.98C102.45 298.42 102.86 298.77 103.34 299.03C103.82 299.29 104.32 299.49 104.85 299.63C105.35 299.77 105.88 299.84 106.44 299.84H106.74L107.35 299.75L107.98 299.69H108.13C108.75 299.7 109.11 299.87 109.22 300.16L109.25 300.37C109.25 300.71 108.98 301.09 108.43 301.53L108.45 301.51ZM117.31 301.9L116.12 301L115.19 300.01C117.01 299.66 118.81 299.28 120.62 298.84C119.64 299.94 118.54 300.96 117.31 301.9ZM139.02 289.74C138.92 290.54 138.76 291.38 138.54 292.28C138.31 293.17 138.02 294.05 137.65 294.91C137.27 295.77 136.83 296.59 136.32 297.36C135.81 298.13 135.23 298.8 134.58 299.36C133.93 299.92 133.21 300.34 132.41 300.64C131.62 300.93 130.75 301.02 129.81 300.9C128.38 300.72 127.19 300.26 126.24 299.51C125.28 298.77 124.52 297.84 123.94 296.73C123.36 295.62 122.96 294.37 122.72 293.01C122.49 291.65 122.39 290.28 122.44 288.89C122.48 287.27 122.68 285.7 123.03 284.2C123.39 282.69 123.9 281.41 124.54 280.35C124.92 279.73 125.37 279.2 125.88 278.77C126.39 278.34 126.99 278.06 127.7 277.95L128.33 277.84L128.9 277.53C129.38 277.13 129.89 276.87 130.44 276.76C130.98 276.65 131.53 276.65 132.1 276.75C133.52 276.99 134.72 277.52 135.68 278.36C136.64 279.19 137.4 280.21 137.95 281.41C138.5 282.62 138.86 283.94 139.02 285.38C139.18 286.82 139.18 288.28 139.02 289.75V289.74ZM176.84 285.78C176.86 286.25 176.92 286.63 177.02 286.91C177.18 286.89 177.54 286.81 178.11 286.67C178.67 286.53 179.25 286.43 179.85 286.37L180.1 286.35L180.33 286.33C180.81 286.33 181.22 286.42 181.58 286.59C181.93 286.76 182.11 287.08 182.11 287.54L181.24 288.48L180.41 288.81L180.01 288.92L179.71 288.96L179.2 289.08L177.03 289.68V289.8C177.03 290.14 177.07 290.69 177.14 291.44C177.21 292.19 177.3 293.01 177.39 293.89C177.49 294.77 177.57 295.66 177.64 296.55C177.71 297.45 177.75 298.2 177.75 298.82L177.72 299.56L177.63 300.03L177.3 300.37L176.76 300.48L175.72 300.28L175.02 299.87C174.72 299.53 174.47 298.92 174.28 298.07C174.09 297.21 173.94 296.2 173.83 295.05C173.72 293.9 173.64 292.66 173.6 291.32C173.56 289.98 173.55 288.68 173.55 287.42C173.55 285.94 173.57 284.58 173.62 283.36C173.67 282.14 173.72 281.21 173.76 280.59L173.79 280.09V279.71L173.76 279.23L173.72 278.93L173.68 278.71L173.64 278.46V278.34L174.19 277.89L174.8 277.77L175.1 277.79L175.43 277.83L175.55 277.85L175.67 277.87L176.5 277.73L177.52 277.44L178.66 277.15L179.89 277.02L180.48 277.05L181.03 277.17L181.82 277.64L182.11 278.28L181.87 278.85L181.09 279.27L180.2 279.41L178.98 279.5L177.76 279.64L176.87 279.91V280.21C176.87 280.75 176.86 281.39 176.84 282.1C176.82 282.82 176.81 283.54 176.81 284.24C176.81 284.8 176.82 285.32 176.84 285.79V285.78ZM207.95 302.34L206.93 302.64L205.66 302.29L204.7 301.38C204.1 300.49 203.61 299.63 203.24 298.78C202.87 297.92 202.53 297.05 202.2 296.16C201.88 295.27 201.52 294.34 201.13 293.37C200.74 292.41 200.22 291.38 199.59 290.28L199.01 289.98L198.8 290.22C198.8 290.34 198.81 290.68 198.84 291.23C198.86 291.78 198.88 292.43 198.9 293.18C198.92 293.94 198.95 294.73 198.98 295.56C199.02 296.4 199.04 297.17 199.08 297.89C199.12 298.62 199.14 299.22 199.16 299.7C199.18 300.18 199.2 300.43 199.23 300.45L199.32 300.93L198.96 301.76L198.09 302.16L197.9 302.19H197.7C197.18 302.19 196.68 302.05 196.22 301.77C195.76 301.48 195.53 301.07 195.53 300.5V299.72C195.53 299.11 195.52 298.47 195.5 297.76C195.48 297.06 195.46 296.33 195.44 295.58C195.42 294.83 195.39 294.06 195.36 293.28C195.33 292.5 195.31 291.73 195.29 290.96C195.22 288.5 195.2 285.98 195.2 283.41V281.72C195.2 281.14 195.28 280.52 195.44 279.87C195.6 279.22 195.84 278.63 196.16 278.11L196.91 277.33L197.93 276.71L199.04 276.31L200.12 276.16H200.18C201.16 276.18 202.04 276.36 202.8 276.7C203.56 277.04 204.21 277.49 204.73 278.04C205.25 278.59 205.64 279.22 205.92 279.92C206.19 280.62 206.35 281.35 206.39 282.08V282.68C206.39 284.45 205.99 285.87 205.21 286.94C204.43 288.01 203.19 288.84 201.48 289.42C202.34 290.65 203.08 291.78 203.7 292.82C204.33 293.86 204.89 294.86 205.39 295.8C205.89 296.74 206.34 297.66 206.76 298.54C207.17 299.42 207.6 300.31 208.04 301.22V301.52L208.06 301.72V301.92L207.95 302.34ZM224.77 288.65C224.75 289.69 224.73 290.72 224.73 291.75C224.72 292.77 224.73 293.81 224.74 294.85V297.24C224.74 298.03 224.75 298.84 224.77 299.67C224.77 300.23 224.67 300.6 224.45 300.76L223.68 300.93L222.75 300.54L221.91 299.97L221.6 299.38L221.45 298.55L221.4 297.62V296.74C221.46 294.31 221.49 291.81 221.49 289.24C221.49 286.67 221.52 284.1 221.58 281.58C221.63 280.06 221.69 278.56 221.77 277.1V276.6L221.8 276.1L222.84 275.88L223.77 276.26L224.45 277L224.72 277.86C224.78 279.68 224.81 281.48 224.81 283.25C224.81 285.02 224.81 286.83 224.78 288.66L224.77 288.65ZM248.22 299.06C247.9 299.42 247.43 299.65 246.83 299.75C246.23 299.85 245.63 299.9 245.02 299.9L244.31 299.88L243.69 299.86H243.07L242.16 299.89L241.59 299.95L241.14 300.02L240.62 300.07L239.96 299.95L239.48 299.65L238.74 298.95L238.58 298.29L238.63 297.9L238.7 297.69C238.74 297.19 238.77 296.64 238.79 296.05C238.81 295.46 238.82 294.82 238.82 294.14C238.82 293.54 238.82 292.91 238.8 292.26C238.8 291.61 238.78 290.94 238.76 290.26C238.72 289.25 238.69 288.25 238.67 287.24C238.65 286.22 238.63 285.24 238.62 284.28C238.61 283.32 238.6 282.41 238.59 281.56C238.57 280.7 238.57 279.94 238.57 279.26C238.57 278.74 238.59 278.39 238.62 278.22L238.74 277.92L238.88 277.86L239 277.52L239.03 277.19L239.05 276.95L239.19 276.71C239.35 276.53 239.76 276.4 240.42 276.32C241.09 276.24 241.83 276.2 242.68 276.2L243.22 276.22L243.76 276.24C244.58 276.28 245.34 276.35 246.03 276.44C246.72 276.53 247.21 276.64 247.49 276.76L247.84 277.05L248.04 277.55L247.97 277.79C247.81 278.14 247.49 278.36 247 278.45C246.51 278.54 245.96 278.59 245.36 278.59L244.55 278.57H243.74L243.05 278.56L242.3 278.59L241.76 278.74V279.1C241.76 279.38 241.77 279.76 241.79 280.22C241.81 280.69 241.84 281.2 241.88 281.74C241.94 282.24 241.99 282.74 242.01 283.24C242.05 283.74 242.07 284.19 242.1 284.6C242.13 284.99 242.16 285.46 242.21 285.98L242.93 286.16L243.77 286.12L244.7 286.08L245.23 286.11L245.73 286.2L246.35 286.58L246.49 287.05V287.17L246.34 287.78L245.59 288.22L244.73 288.38L243.81 288.5L242.95 288.55L242.27 288.57V290.75L242.3 291.94V293.05L242.33 294.16L242.31 295.27V296.38L242.3 297.04L242.38 297.49L242.78 297.64C243.24 297.64 243.67 297.62 244.08 297.59L245.28 297.55L246.44 297.62L247.6 297.91C248.14 298.11 248.41 298.36 248.41 298.66L248.23 299.08L248.22 299.06ZM280.45 111.13L280.22 111.4C275.93 115.44 272.46 120.73 268.83 125.33C261.33 134.85 253.94 144.44 246.63 154.1C239.98 162.9 233.39 171.74 227 180.73C232.12 182.26 237.45 184.78 240.76 188.02C248.6 195.69 247.01 207.57 241.07 215.74C237.73 220.33 234.21 223.22 230.31 225.03C229.85 224.25 229.36 223.49 228.89 222.72C232.54 228.7 235.86 234.94 239.19 240.91C238.53 241.38 237.81 241.88 237.05 242.4C238.44 241.44 239.73 240.54 240.71 239.81C242.9 238.27 246.37 236.1 248.83 237.82C255.44 242.44 242.6 248.85 240.31 250.19C237.72 251.73 233.01 254.14 230.15 255.49C225.26 257.82 223.01 251.65 226.08 249.63C228.39 248.11 233.13 245.06 236.97 242.45C233.97 237.09 230.99 231.48 227.78 226.04C223.05 227.65 217.75 227.98 211.51 227.98C194.88 227.98 178.25 227.92 161.62 228C162.15 226.14 162.59 224.24 162.94 222.3C160.02 238.16 151.12 251.43 137.25 260C124.69 267.75 109.75 272.02 95.18 272.02C69 272.02 47.32 258.59 37.2 236.1C33.68 228.28 29.91 216.2 29.91 205.74C29.91 187.58 37.45 170.38 51.12 157.28C64.14 144.83 81.35 137.68 98.33 137.68C99.85 137.68 101.36 137.77 102.86 137.88C102.5 137.85 102.15 137.81 101.8 137.79C103.44 134.46 105.38 131.31 107.47 128.26C78.92 125.1 54.88 140.94 46.22 140.02C37.49 139.1 67.44 114.83 98.04 116.86C104.45 117.29 110.06 117.97 115.06 118.86C116.82 117.07 118.68 115.36 120.67 113.77C126.11 109.4 132.04 106.24 137.99 102.68L138.9 101.91C138.9 95.7 138.97 89.77 138.97 83.57C132.87 83.54 126.46 84.34 122.36 85.17C113.8 86.88 114.63 75.08 119.87 72.69C130.51 67.86 147.33 66.83 153.55 67.38C159.78 67.93 166.48 69.23 164.46 78.57C162.45 87.91 156.41 86.62 148.72 84.61C146.63 84.06 144.19 83.77 141.64 83.65V102L141.8 102.16C162.1 127.45 181.22 153.69 202.03 178.56C203.21 178.56 204.39 178.56 205.57 178.54C210.38 178.5 215.57 178.62 220.57 179.29C221.71 179.44 222.94 179.67 224.21 179.97C223.78 180.57 223.35 181.17 222.92 181.77C230.07 171.64 237.49 161.7 244.98 151.82C252.21 142.29 259.51 132.8 266.92 123.41C270.54 118.81 274.02 113.52 278.31 109.48L278.54 109.3C274.75 105.85 270.71 102.73 266.5 100.05C266.13 99.81 265.78 99.35 265.84 98.89C266.62 91.79 266.13 84.51 266.11 77.38V77.32C258.65 77.41 251.15 76.55 243.75 75.3C243.02 74.7 242.29 74.17 241.58 73.65C243.7 75.17 245.9 76.99 247.95 79.29C252.34 84.23 250.06 91.37 231.65 80.02C220.22 72.97 221.57 62.1 234.9 69.49C236.45 70.35 238.29 71.42 240.24 72.72C239.7 72.36 239.16 71.98 238.64 71.67C250.63 74.04 263.26 75.86 275.28 74.01C278.37 73.54 281.26 72.74 284.09 71.74C284.11 71.76 284.13 71.77 284.14 71.79C279.04 65.75 282.63 59.32 293.35 65.2C293.35 65.2 301.41 70.32 305.81 75.27C310.2 80.21 309.38 86.62 289.51 76C288.19 75.3 287.08 74.52 286.11 73.71C286.15 73.75 286.18 73.78 286.22 73.81C282.55 75.2 278.8 76.27 274.76 76.77C272.78 77.01 270.78 77.16 268.79 77.24L268.81 77.37C268.81 81.21 268.89 85.06 268.88 88.91C268.87 91.03 268.88 93.15 268.78 95.26C268.74 96.4 269.16 98.56 267.97 97.79C271.11 99.84 274.09 102.18 276.93 104.62C283.9 110.61 290.18 117.42 295.36 124.96C301.63 122.98 309.11 121.35 318.22 120.1C348.62 115.96 380.18 138.11 371.53 139.63C362.09 141.29 332.66 124.02 300.98 134.34C302.18 136.66 303.32 139.02 304.29 141.46C303.45 141.75 302.62 142.08 301.78 142.41C300.8 139.95 299.62 137.54 298.4 135.16C275.69 143.62 271.91 155.58 264.13 162.73C261.82 164.86 251.37 164.77 261.41 150.44C268.57 140.22 276.09 131.66 292.88 125.81C289.27 120.5 285.07 115.54 280.45 111.09V111.13ZM274.77 284.02C274.76 284.98 274.75 285.92 274.73 286.84C274.71 287.77 274.71 288.6 274.73 289.34C274.73 289.64 274.73 290.05 274.71 290.54C274.71 291.04 274.69 291.59 274.68 292.2C274.67 292.81 274.66 293.43 274.65 294.08C274.65 294.73 274.63 295.37 274.63 295.99C274.63 296.45 274.62 296.9 274.6 297.33L274.54 298.53L274.46 299.48L274.36 300.03L273.74 300.55L272.88 300.49L272.03 300.07L271.49 299.48L271.31 298.94L271.22 298.25L271.16 297.59L271.1 297.14C271 296.72 270.75 296.09 270.35 295.25C269.94 294.4 269.49 293.49 268.99 292.51C268.49 291.53 267.99 290.56 267.5 289.6C267.01 288.65 266.63 287.86 266.34 287.24C266.24 287.08 266.07 286.76 265.84 286.28C265.61 285.8 265.37 285.3 265.12 284.8C264.87 284.28 264.62 283.83 264.38 283.43L263.9 282.82V283.5L263.87 284.18C263.87 285.26 263.88 286.35 263.9 287.45C263.92 288.54 263.94 289.62 263.96 290.68C263.96 290.8 263.96 291.11 263.99 291.58C264.01 292.06 264.03 292.63 264.05 293.29C264.07 293.95 264.09 294.67 264.09 295.42C264.1 296.19 264.11 296.89 264.12 297.54C264.13 298.19 264.13 298.75 264.12 299.21C264.12 299.67 264.08 299.93 264.05 299.99L263.43 300.56L262.75 300.53L262.18 300.22L261.88 299.9L261.84 299.16C261.84 298.73 261.84 298.2 261.84 297.56C261.85 296.93 261.86 296.26 261.88 295.53C261.9 294.81 261.92 294.11 261.94 293.44C261.96 292.77 261.98 292.18 261.99 291.67C261.99 291.16 262.01 290.81 262.01 290.63C261.99 289.29 261.97 287.97 261.97 286.66C261.97 285.35 261.96 284.11 261.94 282.93H261.97L261.99 282.16L262.02 281.27V280.39L261.94 279.7C261.82 279.06 261.82 278.61 261.91 278.36L262.35 277.95L262.94 278.1L263.36 278.4L263.61 278.75L263.64 278.82L263.75 278.85L264.26 279.09C264.78 279.39 265.33 279.93 265.88 280.71C266.45 281.49 267 282.36 267.55 283.31C268.1 284.26 268.62 285.22 269.12 286.2C269.61 287.17 270.05 288 270.43 288.68L270.63 289.18L270.9 289.89L271.16 290.59L271.34 290.99V289.15C271.36 288.57 271.38 287.87 271.4 287.04C271.42 286.22 271.44 285.37 271.47 284.5C271.5 283.63 271.53 282.78 271.58 281.96C271.62 281.14 271.69 280.44 271.79 279.85L271.91 278.96L271.95 278.24L272.01 277.65L272.18 277.14C272.66 277.02 273.11 277.06 273.53 277.26L274.24 277.81L274.62 278.68C274.7 279.42 274.74 280.25 274.75 281.16C274.76 282.07 274.76 283.01 274.75 283.98L274.77 284.02ZM301.34 290.28C301.17 291.5 300.91 292.67 300.56 293.8C300.21 294.92 299.73 295.96 299.11 296.92C298.5 297.87 297.71 298.67 296.75 299.31C295.89 299.87 294.89 300.29 293.75 300.54C293.14 300.66 292.64 300.72 292.23 300.72L291.19 300.57L290.5 300.15L290.02 299.52C289.84 299.18 289.68 298.69 289.55 298.05C289.42 297.41 289.3 296.67 289.2 295.84C289.1 295.01 289.02 294.1 288.96 293.12C288.9 292.14 288.85 291.13 288.81 290.11C288.77 289.03 288.74 287.95 288.72 286.88C288.7 285.81 288.69 284.81 288.69 283.87C288.69 282.93 288.69 282.1 288.71 281.36C288.73 280.62 288.73 280.02 288.75 279.59C288.81 278.93 288.81 278.19 288.75 277.39L289.34 276.98L289.76 276.76L290.21 276.61L290.92 276.43C291.62 276.25 292.37 276.15 293.15 276.13C293.93 276.11 294.7 276.18 295.45 276.34C296.2 276.5 296.92 276.75 297.6 277.11C298.28 277.46 298.89 277.91 299.4 278.45C300.17 279.27 300.7 280.18 301.02 281.16C301.34 282.14 301.55 283.17 301.65 284.23L301.72 285.44L301.74 286.67C301.64 287.87 301.5 289.08 301.33 290.31L301.34 290.28ZM304.68 302.67L304.22 302.91V302.82C304.31 302.11 304.38 301.24 304.43 300.25C304.91 300.34 305.39 300.42 305.86 300.5L306.55 301.43C305.79 302 305.15 302.38 304.68 302.67ZM326.14 299.92L325.49 300.24C325.21 300.3 324.83 300.34 324.36 300.36C323.89 300.38 323.39 300.4 322.87 300.42C322.35 300.44 321.83 300.46 321.32 300.49C320.8 300.53 320.36 300.56 319.98 300.6L319.71 300.7L319.57 300.79L319.45 300.88L319.23 300.96L318.29 300.98L317.42 300.7L316.47 300.11L315.92 299.43L315.65 298.62L315.54 297.6L315.45 296.49L315.38 295.31L315.34 294.29L315.32 293.63C315.26 291 315.23 288.43 315.23 285.94C315.23 283.45 315.3 280.88 315.42 278.25L315.48 277.61L315.54 277.02L315.75 276.57L316.23 276.3L317.3 276.32L318.12 276.87C318.66 277.47 318.91 278.33 318.85 279.46C318.85 280.28 318.87 281.15 318.89 282.05C318.92 282.96 318.96 283.87 319 284.81C319.04 285.74 319.08 286.68 319.12 287.62C319.16 288.56 319.18 289.48 319.18 290.36C319.18 290.58 319.18 290.93 319.2 291.4C319.2 291.87 319.22 292.4 319.24 292.98C319.26 293.57 319.28 294.16 319.3 294.79C319.32 295.41 319.35 295.98 319.38 296.5C319.41 297.02 319.44 297.46 319.47 297.82L319.58 298.42C319.62 298.48 319.87 298.48 320.33 298.42L321.29 298.3L322.55 298.19L323.82 298.13L324.78 298.2L325.29 298.3L325.74 298.44L326.24 298.89L326.37 299.43L326.12 299.93L326.14 299.92ZM332.27 301.5L332.24 301.48H332.31L332.27 301.5ZM349.94 279L349.83 279.38C349.55 280.22 349.22 281.14 348.84 282.13C348.46 283.13 348.1 284.11 347.76 285.09C347.56 285.68 347.39 286.17 347.26 286.6C347.12 287.02 346.95 287.47 346.73 287.96C346.53 288.38 346.39 288.91 346.32 289.55C346.25 290.19 346.22 290.9 346.22 291.66C346.22 292.32 346.24 293.01 346.28 293.73C346.32 294.44 346.37 295.13 346.42 295.8C346.47 296.48 346.51 297.12 346.55 297.73C346.59 298.34 346.61 298.87 346.61 299.31V299.49C346.59 300.08 346.5 300.58 346.34 301.01C346.18 301.44 345.84 301.66 345.34 301.66L344.89 301.6C344.39 301.5 343.99 301.33 343.71 301.09L343.07 300.21C343.03 300.11 343 299.82 342.96 299.32C342.93 298.83 342.9 298.24 342.87 297.55C342.84 296.86 342.82 296.11 342.82 295.31C342.81 294.51 342.8 293.74 342.79 292.99C342.79 292.25 342.77 291.59 342.76 291.01C342.74 290.43 342.74 290.01 342.74 289.77L342.31 289.16L341.94 288.42C341.86 288.16 341.75 287.81 341.62 287.35C341.49 286.9 341.34 286.4 341.18 285.86C341.02 285.32 340.86 284.76 340.68 284.18C340.51 283.6 340.34 283.04 340.18 282.5C340.02 281.96 339.88 281.46 339.75 281.01C339.62 280.56 339.51 280.19 339.43 279.91L339.17 279.17L339.04 278.65L339.4 277.96L340.06 277.78L340.77 278.02L341.31 278.62L341.7 279.4L341.99 280.19L342.35 281.31L342.67 282.42L342.91 283.37L343.07 283.98L343.3 284.85L343.5 285.69L343.67 286.33L343.81 286.6C343.99 286 344.2 285.3 344.45 284.49C344.69 283.69 344.96 282.88 345.25 282.06C345.55 281.24 345.84 280.43 346.14 279.62C346.44 278.82 346.75 278.12 347.05 277.51C347.41 276.93 347.86 276.63 348.41 276.63L349.49 277.26L349.85 277.92L350 278.67L349.96 279.02L349.94 279ZM360.45 299.21L357.45 296.18C359.93 295.35 362.38 294.45 364.8 293.45C363.56 295.53 362.17 297.51 360.44 299.22L360.45 299.21ZM364.84 260.01C352.28 267.76 337.34 272.03 322.77 272.03C296.59 272.03 274.91 258.6 264.79 236.11C261.27 228.29 257.5 216.21 257.5 205.75C257.5 187.59 265.03 170.39 278.71 157.29C291.72 144.84 308.93 137.69 325.91 137.69C340.12 137.69 353.5 142.64 364.57 152.01C379.89 164.96 389.92 184.9 391.4 205.34C393.1 228.61 383.41 248.54 364.83 260L364.84 260.01Z" fill="white"/>
<path d="M323.721 219.73C318.581 219.61 313.711 217.18 311.331 211.9C310.441 209.93 309.681 207.27 309.681 205.1L309.751 206.29H270.721C270.831 213.15 273.171 222.65 276.811 230.72C279.051 235.7 282.031 240.01 285.521 243.75C294.741 234.13 303.951 224.5 313.161 214.88C313.741 215.59 314.381 216.21 315.071 216.76C305.861 226.38 296.651 236.01 287.441 245.64C296.381 254.14 308.541 258.87 322.781 258.87C322.911 258.87 323.051 258.86 323.181 258.86V219.75C323.361 219.76 323.541 219.73 323.731 219.75L323.721 219.73Z" fill="white"/>
<path d="M309.681 205.1C309.681 201.49 311.051 198.22 313.201 195.65C313.191 195.66 313.181 195.67 313.171 195.68C304.071 186.74 294.971 177.8 285.881 168.85C277.251 177.85 271.381 189.77 270.811 203.6H309.771C309.721 204.1 309.681 204.59 309.681 205.1Z" fill="white"/>
<path d="M314.952 193.87C317.322 191.8 320.252 190.45 323.312 190.09C323.262 190.09 323.212 190.09 323.172 190.09V151.03C310.622 151.77 297.682 157.51 287.762 166.94C296.862 175.88 305.952 184.82 315.052 193.76C315.012 193.79 314.992 193.83 314.952 193.86V193.87Z" fill="white"/>
<path d="M216.15 186.96C216.4 186.99 216.65 187.03 216.91 187.07C216.66 187.03 216.4 186.99 216.15 186.96Z" fill="white"/>
<path d="M82.1005 205.1C82.1005 201.48 83.4704 198.21 85.6304 195.64C85.6104 195.65 85.6005 195.66 85.5905 195.68C76.5005 186.73 67.4005 177.79 58.3005 168.85C49.6705 177.85 43.8005 189.77 43.2305 203.6H82.1904C82.1404 204.1 82.1005 204.59 82.1005 205.1Z" fill="white"/>
<path d="M139.92 104.73C134.53 107.95 128.42 111 123.49 114.97C121.69 116.42 119.99 117.96 118.37 119.55C139.3 123.95 148.22 132.58 156.84 143.24C167.84 156.85 157.43 157.66 154.97 155.69C146.71 149.08 142.11 137.38 118.77 130.51C115.98 129.69 113.23 129.15 110.51 128.72C108.36 131.68 106.37 134.76 104.68 138.05C104.54 138.04 104.39 138.03 104.24 138.01C116.24 139.19 127.48 143.96 137.01 152.01C145.96 159.58 153.05 169.57 157.73 180.62C157.44 179.94 157.2 179.24 156.89 178.57C170.75 178.58 184.6 178.65 198.46 178.6C174.24 149.39 140.26 104.51 139.92 104.71V104.73Z" fill="white"/>
<path d="M213.98 186.92C214.21 186.9 214.45 186.92 214.69 186.92C214.46 186.92 214.22 186.92 213.98 186.92Z" fill="white"/>
<path d="M207.261 189.03C207.111 189.12 206.971 189.24 206.811 189.33C207.031 189.18 207.271 189.04 207.501 188.9C207.421 188.95 207.321 188.97 207.251 189.02L207.261 189.03Z" fill="white"/>
<path d="M98.25 190.03C100.86 190.22 103.47 191.18 105.77 193.12C109.23 196.05 111.48 200.61 111.79 205.12C111.76 204.62 111.69 204.11 111.61 203.6H150.34C148.78 190.53 142.92 177.6 134.27 167.86C125.48 177.03 116.71 186.2 107.93 195.37C107.37 194.67 106.75 194.02 106.09 193.42C114.88 184.24 123.67 175.04 132.46 165.86C131.18 164.54 129.87 163.26 128.48 162.09C119.81 154.76 109.38 150.89 98.33 150.89H98.29C98.27 163.93 98.27 176.97 98.27 190.01H98.25V190.03Z" fill="white"/>
<path d="M219.021 187.59C218.921 187.56 218.831 187.5 218.731 187.47C218.591 187.43 218.441 187.42 218.301 187.38C218.541 187.45 218.791 187.52 219.021 187.6V187.59Z" fill="white"/>
<path d="M87.4217 193.83C89.7817 191.79 92.6917 190.45 95.7317 190.1C95.6817 190.1 95.6417 190.1 95.5917 190.1V151.04C83.0417 151.78 70.0916 157.52 60.1816 166.95C69.2716 175.89 78.3717 184.83 87.4717 193.77C87.4517 193.79 87.4317 193.81 87.4117 193.83H87.4217Z" fill="white"/>
<path d="M137.26 243.55C136.96 243.83 136.64 244.11 136.33 244.38C136.65 244.11 136.96 243.83 137.26 243.55Z" fill="white"/>
<path d="M132.672 166.05C132.922 166.32 133.182 166.6 133.432 166.87C133.182 166.59 132.932 166.32 132.672 166.05Z" fill="white"/>
<path d="M313.201 195.65C313.741 195.01 314.321 194.42 314.951 193.87C314.991 193.84 315.021 193.8 315.051 193.77C305.951 184.83 296.861 175.89 287.761 166.95C287.121 167.56 286.491 168.2 285.871 168.85C294.971 177.8 304.071 186.74 313.161 195.68C313.171 195.68 313.181 195.66 313.191 195.65H313.201Z" fill="#683507"/>
<path d="M313.152 214.88C303.942 224.5 294.732 234.13 285.512 243.75C286.122 244.41 286.782 245.02 287.422 245.63C296.632 236.01 305.842 226.38 315.052 216.75C314.362 216.2 313.722 215.59 313.142 214.87L313.152 214.88Z" fill="#683507"/>
<path d="M309.681 205.1C309.681 204.6 309.711 204.1 309.771 203.6H270.811C270.781 204.33 270.691 205.03 270.691 205.77C270.691 205.93 270.731 206.13 270.731 206.29H309.761L309.691 205.1H309.681Z" fill="#683507"/>
<path d="M325.832 190.03C324.992 189.97 324.152 190 323.312 190.1C320.252 190.46 317.322 191.81 314.952 193.88C314.332 194.43 313.742 195.02 313.202 195.66C311.052 198.23 309.682 201.5 309.682 205.11C309.682 207.29 310.442 209.95 311.332 211.91C313.712 217.19 318.582 219.61 323.722 219.74C324.152 219.74 324.592 219.74 325.022 219.71C328.002 219.56 331.002 218.68 333.612 217.07C338.042 214.34 339.712 209.75 339.382 205.12C339.052 200.61 336.812 196.05 333.352 193.12C331.052 191.17 328.442 190.21 325.832 190.03Z" fill="#5AA246"/>
<path d="M216.911 187.07C216.661 187.03 216.401 186.99 216.151 186.96C215.661 186.91 215.171 186.9 214.691 186.91C214.461 186.91 214.221 186.91 213.981 186.91C213.431 186.95 212.891 187.02 212.351 187.12C212.181 187.15 212.021 187.16 211.851 187.2C211.141 187.36 210.441 187.56 209.751 187.82C208.981 188.12 208.231 188.49 207.511 188.91C207.281 189.05 207.041 189.19 206.821 189.34C206.521 189.54 206.211 189.73 205.931 189.95C205.691 190.13 205.451 190.32 205.231 190.51C204.961 190.74 204.691 190.97 204.431 191.21C204.201 191.42 203.991 191.66 203.781 191.88C203.541 192.13 203.311 192.38 203.081 192.65C202.871 192.9 202.681 193.17 202.491 193.44C202.301 193.71 202.101 193.98 201.921 194.26C201.731 194.56 201.571 194.87 201.401 195.18C201.261 195.46 201.101 195.73 200.961 196.02C200.801 196.37 200.681 196.73 200.551 197.09C200.451 197.36 200.331 197.63 200.251 197.9C200.121 198.33 200.041 198.77 199.951 199.21C199.901 199.44 199.831 199.67 199.791 199.9C199.691 200.59 199.631 201.29 199.631 202.01C199.631 204.18 200.391 206.85 201.271 208.81C201.741 209.85 202.321 210.76 202.961 211.59C203.171 211.86 203.431 212.08 203.671 212.34C204.131 212.84 204.601 213.33 205.121 213.74C205.431 213.99 205.771 214.19 206.101 214.4C206.601 214.72 207.101 215.03 207.641 215.29C208.011 215.47 208.411 215.61 208.801 215.75C209.341 215.94 209.881 216.11 210.441 216.24C210.851 216.34 211.281 216.42 211.711 216.48C212.271 216.57 212.831 216.6 213.411 216.63C213.841 216.65 214.281 216.67 214.721 216.65C215.311 216.63 215.891 216.55 216.471 216.47C216.901 216.41 217.331 216.37 217.761 216.28C218.401 216.14 219.031 215.94 219.651 215.73C220.011 215.61 220.371 215.53 220.721 215.4C221.701 215.01 222.651 214.54 223.551 213.99C227.981 211.26 229.661 206.67 229.321 202.04C229.001 197.53 226.751 192.97 223.291 190.04C222.631 189.49 221.951 189.03 221.261 188.63C221.171 188.58 221.071 188.54 220.971 188.49C220.331 188.14 219.671 187.85 219.001 187.62C218.771 187.54 218.521 187.47 218.281 187.4C217.821 187.27 217.351 187.17 216.891 187.1L216.911 187.07Z" fill="#683507"/>
<path d="M163.822 215.01C163.872 214.33 163.912 213.64 163.932 212.95C164.022 210.46 164.022 207.94 163.842 205.37C163.662 202.93 163.352 200.5 162.932 198.09C162.792 197.23 162.562 196.39 162.382 195.53C162.062 194.01 161.752 192.49 161.342 190.99C161.052 189.9 160.692 188.84 160.352 187.77C159.962 186.54 159.582 185.31 159.132 184.1C158.702 182.94 158.212 181.79 157.722 180.65C153.032 169.6 145.952 159.61 137.002 152.04C127.472 143.99 116.242 139.22 104.232 138.04C103.782 137.99 103.322 137.96 102.872 137.93C101.372 137.82 99.8619 137.73 98.3419 137.73C81.3619 137.73 64.1618 144.87 51.1318 157.33C37.4518 170.42 29.9219 187.63 29.9219 205.79C29.9219 216.25 33.6919 228.33 37.2119 236.15C47.3319 258.64 69.0118 272.07 95.1918 272.07C109.762 272.07 124.712 267.8 137.262 260.05C151.132 251.49 160.032 238.21 162.952 222.35C163.022 222.01 163.042 221.65 163.102 221.31C163.452 219.26 163.682 217.16 163.822 215.03V215.01ZM137.702 243.13C137.702 243.13 137.712 243.14 137.722 243.15C137.582 243.29 137.422 243.42 137.272 243.55C136.972 243.83 136.652 244.11 136.342 244.38C136.132 244.57 135.942 244.76 135.722 244.94C135.712 244.94 135.702 244.92 135.702 244.91C134.082 246.27 132.332 247.58 130.362 248.8C120.752 254.74 109.472 258.2 98.3019 258.75V258.78C97.4019 258.82 96.5118 258.85 95.6218 258.85C95.4818 258.85 95.3519 258.85 95.2219 258.85C80.9919 258.85 68.8218 254.11 59.8818 245.62C59.8518 245.64 59.8318 245.67 59.8118 245.69C59.1718 245.07 58.5418 244.43 57.9318 243.78C57.9418 243.77 57.9519 243.75 57.9719 243.74C54.4719 240 51.5018 235.68 49.2618 230.7C45.6318 222.63 43.2818 213.13 43.1818 206.27H43.1418V205.75C43.1418 205.02 43.1618 204.3 43.1918 203.58H43.2518C43.8218 189.75 49.6918 177.82 58.3218 168.83L58.3019 168.81C58.9219 168.16 59.5518 167.53 60.1918 166.92C60.1918 166.92 60.2119 166.93 60.2119 166.94C70.1119 157.51 83.0718 151.78 95.6218 151.03V150.98C96.5118 150.92 97.4119 150.89 98.3019 150.89H98.3619C109.412 150.89 119.842 154.76 128.512 162.09C129.902 163.26 131.212 164.54 132.492 165.86C132.502 165.86 132.502 165.86 132.512 165.85C132.572 165.91 132.632 165.98 132.692 166.04C132.952 166.31 133.202 166.59 133.452 166.86C133.752 167.18 134.042 167.49 134.342 167.81L134.302 167.85C142.952 177.59 148.812 190.52 150.372 203.59H150.442C150.552 204.48 150.642 205.38 150.712 206.27C150.712 206.27 150.712 206.29 150.712 206.31C151.372 215.46 150.252 231.22 137.712 243.12L137.702 243.13Z" fill="#804822"/>
<path d="M391.412 205.37C389.932 184.92 379.902 164.99 364.582 152.04C353.502 142.68 340.132 137.72 325.922 137.72C308.942 137.72 291.732 144.86 278.722 157.32C265.032 170.41 257.512 187.62 257.512 205.78C257.512 216.24 261.272 228.32 264.802 236.14C274.932 258.63 296.602 272.06 322.782 272.06C337.352 272.06 352.292 267.79 364.852 260.04C383.432 248.57 393.112 228.65 391.422 205.38L391.412 205.37ZM365.272 243.14C365.132 243.27 365.002 243.41 364.862 243.54C364.552 243.83 364.232 244.11 363.912 244.39C363.702 244.57 363.472 244.74 363.252 244.92C361.632 246.28 359.892 247.59 357.912 248.81C348.292 254.75 337.012 258.21 325.842 258.76C324.952 258.8 324.052 258.85 323.162 258.86C323.032 258.86 322.892 258.87 322.762 258.87C308.522 258.87 296.362 254.13 287.422 245.64C286.772 245.02 286.122 244.41 285.512 243.76C282.022 240.02 279.052 235.71 276.802 230.73C273.162 222.66 270.822 213.16 270.712 206.3C270.712 206.14 270.672 205.94 270.672 205.78C270.672 205.04 270.762 204.34 270.792 203.61C271.362 189.78 277.232 177.85 285.862 168.86C286.482 168.22 287.102 167.57 287.752 166.96C297.662 157.53 310.612 151.8 323.162 151.05C324.052 151 324.952 150.91 325.842 150.91H325.882C336.972 150.91 347.392 154.78 356.062 162.11C357.452 163.28 358.762 164.56 360.052 165.88C360.102 165.95 360.182 166 360.252 166.07C360.502 166.33 360.752 166.6 360.992 166.87C361.292 167.19 361.562 167.55 361.862 167.88C370.512 177.62 376.372 190.55 377.932 203.62C378.042 204.51 378.202 205.41 378.272 206.3C378.272 206.31 378.272 206.32 378.272 206.34C378.932 215.49 377.812 231.25 365.282 243.15L365.272 243.14Z" fill="#804822"/>
<path d="M325.772 298.45L325.322 298.31L324.812 298.21L323.852 298.14L322.582 298.2L321.322 298.31L320.362 298.43C319.902 298.49 319.652 298.49 319.612 298.43L319.502 297.83C319.472 297.47 319.442 297.03 319.412 296.51C319.382 295.99 319.352 295.41 319.332 294.8C319.312 294.18 319.292 293.58 319.272 292.99C319.252 292.41 319.232 291.88 319.232 291.41C319.222 290.94 319.212 290.59 319.212 290.37C319.212 289.49 319.192 288.57 319.152 287.63C319.112 286.69 319.072 285.75 319.032 284.82C318.992 283.88 318.962 282.97 318.922 282.06C318.892 281.16 318.882 280.29 318.882 279.47C318.942 278.35 318.702 277.49 318.152 276.88L317.332 276.33L316.262 276.31L315.782 276.58L315.572 277.03L315.512 277.62L315.452 278.26C315.332 280.89 315.262 283.46 315.262 285.95C315.262 288.44 315.302 291.01 315.352 293.64L315.372 294.3L315.412 295.32L315.482 296.5L315.572 297.61L315.682 298.63L315.952 299.44L316.502 300.12L317.452 300.71L318.322 300.99L319.262 300.97L319.482 300.89L319.602 300.8L319.742 300.71L320.012 300.61C320.392 300.57 320.832 300.54 321.352 300.5C321.862 300.47 322.382 300.45 322.902 300.43C323.422 300.41 323.922 300.39 324.392 300.37C324.862 300.35 325.242 300.31 325.522 300.25L326.172 299.93L326.422 299.43L326.292 298.89L325.792 298.44L325.772 298.45Z" fill="#173B07"/>
<path d="M301.661 284.22C301.561 283.16 301.351 282.13 301.031 281.15C300.711 280.17 300.171 279.26 299.411 278.44C298.891 277.9 298.291 277.46 297.611 277.1C296.931 276.75 296.211 276.49 295.461 276.33C294.711 276.17 293.941 276.1 293.161 276.12C292.381 276.14 291.641 276.24 290.931 276.42L290.221 276.6L289.771 276.75L289.351 276.97L288.761 277.38C288.821 278.18 288.821 278.92 288.761 279.58C288.741 280.02 288.731 280.61 288.721 281.35C288.711 282.09 288.701 282.93 288.701 283.86C288.701 284.79 288.711 285.8 288.731 286.87C288.751 287.94 288.781 289.02 288.821 290.1C288.861 291.12 288.911 292.13 288.971 293.11C289.031 294.09 289.111 295 289.211 295.83C289.311 296.66 289.421 297.4 289.561 298.04C289.691 298.68 289.851 299.17 290.031 299.51L290.511 300.14L291.201 300.56L292.241 300.71C292.651 300.71 293.161 300.66 293.761 300.53C294.901 300.27 295.901 299.86 296.761 299.3C297.721 298.66 298.511 297.86 299.121 296.91C299.741 295.96 300.221 294.92 300.571 293.79C300.921 292.67 301.181 291.49 301.351 290.27C301.521 289.05 301.661 287.83 301.761 286.63L301.741 285.4L301.671 284.19L301.661 284.22ZM299.031 290.24C298.861 291.28 298.601 292.3 298.241 293.29C297.891 294.28 297.431 295.2 296.871 296.06C296.311 296.92 295.611 297.58 294.761 298.06L294.101 298.36L293.411 298.54H293.001L292.871 298.27L292.731 297.38V295.3L292.711 294.32L292.831 285.83L292.811 285C292.811 284.57 292.791 284.07 292.771 283.5C292.751 282.93 292.731 282.32 292.701 281.7C292.671 281.07 292.641 280.49 292.621 279.95C292.601 279.42 292.581 278.8 292.561 278.1L293.101 277.9L293.901 277.87L294.771 277.99L295.561 278.22C296.381 278.56 297.051 279.08 297.561 279.78C298.071 280.48 298.461 281.27 298.731 282.13C299.001 282.99 299.181 283.88 299.261 284.8C299.341 285.71 299.361 286.55 299.321 287.34C299.281 288.22 299.181 289.18 299.011 290.22L299.031 290.24Z" fill="#173B07"/>
<path d="M274.271 277.87L273.561 277.32C273.141 277.12 272.691 277.08 272.211 277.2L272.041 277.71L271.981 278.3L271.941 279.02L271.821 279.91C271.721 280.49 271.651 281.2 271.611 282.02C271.571 282.84 271.531 283.69 271.501 284.56C271.471 285.43 271.441 286.28 271.431 287.1C271.411 287.92 271.391 288.63 271.371 289.21V291.05L271.191 290.65L270.931 289.95L270.661 289.24L270.461 288.74C270.081 288.06 269.641 287.23 269.151 286.26C268.661 285.28 268.131 284.32 267.581 283.37C267.031 282.42 266.471 281.55 265.911 280.77C265.351 279.98 264.811 279.45 264.291 279.15L263.781 278.91L263.671 278.88L263.641 278.81L263.391 278.46L262.971 278.16L262.381 278.01L261.941 278.42C261.851 278.67 261.851 279.12 261.971 279.76L262.051 280.45V281.33L262.021 282.22L262.001 282.99H261.971C261.991 284.17 262.001 285.42 262.001 286.72C262.001 288.02 262.021 289.35 262.041 290.69C262.041 290.88 262.041 291.22 262.021 291.73C262.011 292.24 261.991 292.83 261.971 293.5C261.951 294.17 261.931 294.87 261.911 295.59C261.891 296.32 261.881 296.99 261.871 297.62C261.871 298.26 261.871 298.78 261.871 299.22L261.911 299.96L262.211 300.28L262.781 300.59L263.461 300.62L264.081 300.05C264.121 299.99 264.151 299.73 264.151 299.27C264.161 298.81 264.161 298.25 264.151 297.6C264.151 296.95 264.131 296.24 264.121 295.48C264.121 294.72 264.101 294.01 264.081 293.35C264.061 292.69 264.041 292.12 264.021 291.64C264.001 291.16 263.991 290.86 263.991 290.74C263.971 289.67 263.951 288.6 263.931 287.51C263.911 286.41 263.901 285.33 263.901 284.24L263.921 283.56V282.88L264.411 283.49C264.651 283.89 264.891 284.34 265.151 284.86C265.401 285.36 265.641 285.86 265.871 286.34C266.101 286.82 266.261 287.14 266.371 287.3C266.661 287.92 267.041 288.71 267.531 289.66C268.021 290.61 268.521 291.58 269.021 292.57C269.521 293.55 269.971 294.46 270.381 295.31C270.781 296.15 271.031 296.79 271.131 297.2L271.191 297.65L271.251 298.31L271.341 299L271.521 299.54L272.061 300.13L272.911 300.55L273.771 300.61L274.391 300.09L274.491 299.54L274.571 298.59L274.631 297.39C274.651 296.96 274.661 296.51 274.661 296.05C274.661 295.43 274.661 294.79 274.681 294.14C274.691 293.49 274.701 292.87 274.711 292.26C274.711 291.65 274.731 291.1 274.741 290.6C274.751 290.1 274.761 289.7 274.761 289.4C274.741 288.66 274.741 287.83 274.761 286.9C274.781 285.98 274.791 285.03 274.801 284.08C274.811 283.12 274.811 282.18 274.801 281.26C274.791 280.35 274.751 279.52 274.671 278.78L274.291 277.91L274.271 277.87Z" fill="#173B07"/>
<path d="M108.161 299.69H108.011L107.381 299.75L106.771 299.84H106.471C105.911 299.84 105.381 299.77 104.881 299.63C104.361 299.49 103.861 299.29 103.371 299.03C102.891 298.77 102.481 298.42 102.141 297.98C101.661 297.37 101.261 296.75 100.941 296.1C100.621 295.44 100.351 294.77 100.151 294.06C99.8706 293.12 99.6907 292.16 99.6107 291.19C99.5307 290.22 99.4907 289.22 99.4907 288.19L99.5606 287.08C99.5806 286.63 99.6106 286.16 99.6506 285.65C99.6906 285.14 99.7406 284.61 99.8106 284.04C99.8806 283.47 99.9806 282.92 100.101 282.38C100.281 281.64 100.491 281.02 100.731 280.53C100.971 280.04 101.241 279.65 101.531 279.37L102.481 278.78L103.531 278.62L104.341 278.72L105.361 278.91L106.461 279.1L107.471 279.19L108.121 279.12L108.561 278.83L108.741 278.33L108.401 277.63L107.461 277.02C107.071 276.84 106.611 276.7 106.091 276.6C105.571 276.5 105.011 276.45 104.401 276.45H104.001L103.591 276.48C102.931 276.54 102.261 276.68 101.581 276.9C100.901 277.12 100.241 277.44 99.6206 277.86C99.0006 278.28 98.4406 278.82 97.9306 279.47C97.4306 280.12 97.0307 280.91 96.7307 281.83C96.4507 282.71 96.2306 283.67 96.1006 284.71C95.9606 285.74 95.8906 286.81 95.8906 287.91L95.9106 288.86L95.9606 289.77C96.0606 291.42 96.2906 292.92 96.6606 294.29C96.9306 295.31 97.3606 296.3 97.9306 297.25C98.5006 298.2 99.2006 299.04 100.021 299.76C100.661 300.33 101.361 300.79 102.121 301.16C102.871 301.54 103.671 301.79 104.511 301.93C104.811 301.99 105.221 302.02 105.741 302.02C106.261 302.02 106.791 301.98 107.321 301.9C107.851 301.81 108.241 301.69 108.481 301.51C109.021 301.08 109.301 300.69 109.301 300.35L109.271 300.14C109.171 299.84 108.811 299.68 108.181 299.67L108.161 299.69Z" fill="#173B07"/>
<path d="M82.1917 297.9L81.0317 297.61L79.8716 297.54L78.6717 297.58C78.2617 297.61 77.8416 297.63 77.3716 297.63L76.9717 297.48L76.8917 297.03V295.26L76.9217 294.15L76.9017 293.04V291.93L76.8617 290.74V288.56L77.5417 288.54L78.4017 288.49L79.3217 288.37L80.1816 288.21L80.9316 287.77L81.0817 287.16V287.04L80.9417 286.57L80.3217 286.19L79.8217 286.1L79.3017 286.07L78.3716 286.11L77.5317 286.15L76.8116 285.97C76.7716 285.45 76.7317 284.99 76.7017 284.59C76.6717 284.19 76.6417 283.73 76.6117 283.23C76.5817 282.73 76.5417 282.23 76.4817 281.73C76.4417 281.19 76.4117 280.68 76.3917 280.21C76.3717 279.74 76.3617 279.37 76.3617 279.09V278.73L76.9017 278.58L77.6517 278.55H79.1517L79.9617 278.58C80.5717 278.58 81.1117 278.53 81.6017 278.44C82.0917 278.35 82.4117 278.13 82.5717 277.78L82.6317 277.54L82.4417 277.04L82.0917 276.75C81.8117 276.63 81.3217 276.52 80.6317 276.43C79.9417 276.34 79.1817 276.27 78.3617 276.23L77.8217 276.21L77.2717 276.19C76.4317 276.19 75.6817 276.23 75.0217 276.31C74.3617 276.39 73.9517 276.52 73.7917 276.7L73.6617 276.94L73.6417 277.18L73.6117 277.51L73.4917 277.85L73.3517 277.91L73.2317 278.21C73.2017 278.38 73.1816 278.73 73.1816 279.25C73.1816 279.93 73.1817 280.7 73.2017 281.55C73.2017 282.4 73.2217 283.31 73.2317 284.27C73.2317 285.23 73.2517 286.22 73.2717 287.23C73.2917 288.24 73.3217 289.25 73.3617 290.25C73.3817 290.93 73.4017 291.6 73.4017 292.25C73.4117 292.9 73.4217 293.53 73.4217 294.13C73.4217 294.81 73.4117 295.45 73.3917 296.04C73.3717 296.63 73.3417 297.18 73.3017 297.68L73.2317 297.89L73.1816 298.28L73.3417 298.94L74.0817 299.64L74.5616 299.94L75.2217 300.06L75.7417 300.01L76.1917 299.94L76.7617 299.88L77.6717 299.85H78.3017L78.9217 299.87L79.6317 299.89C80.2317 299.89 80.8316 299.84 81.4316 299.74C82.0316 299.64 82.4917 299.41 82.8217 299.05L83.0016 298.63C83.0016 298.33 82.7316 298.08 82.1816 297.88L82.1917 297.9Z" fill="#173B07"/>
<path d="M176.881 280.21V279.91L177.771 279.64L178.991 279.5L180.211 279.41L181.101 279.27L181.881 278.85L182.121 278.28L181.831 277.64L181.041 277.17L180.491 277.05L179.901 277.02L178.671 277.15L177.531 277.44L176.511 277.73L175.681 277.87L175.561 277.85L175.441 277.83L175.111 277.79L174.811 277.77L174.201 277.89L173.651 278.34V278.46L173.691 278.71L173.731 278.93L173.771 279.23L173.801 279.71V280.09L173.771 280.59C173.731 281.21 173.691 282.14 173.631 283.36C173.581 284.59 173.561 285.94 173.561 287.42C173.561 288.68 173.581 289.98 173.611 291.32C173.651 292.66 173.731 293.9 173.841 295.05C173.951 296.2 174.101 297.21 174.291 298.07C174.481 298.93 174.731 299.53 175.031 299.87L175.731 300.28L176.771 300.48L177.311 300.37L177.641 300.03L177.731 299.56L177.761 298.82C177.761 298.2 177.721 297.44 177.651 296.55C177.581 295.66 177.491 294.77 177.401 293.89C177.311 293 177.221 292.19 177.151 291.44C177.081 290.69 177.041 290.14 177.041 289.8V289.68L179.211 289.08L179.721 288.96L180.021 288.92L180.421 288.81L181.251 288.48L182.121 287.54C182.121 287.08 181.941 286.77 181.591 286.59C181.241 286.42 180.821 286.33 180.341 286.33L180.111 286.35L179.861 286.37C179.261 286.43 178.681 286.53 178.121 286.67C177.551 286.81 177.191 286.89 177.031 286.91C176.931 286.63 176.871 286.25 176.851 285.78C176.831 285.31 176.821 284.79 176.821 284.23C176.821 283.53 176.831 282.82 176.851 282.09C176.871 281.37 176.881 280.74 176.881 280.2V280.21Z" fill="#173B07"/>
<path d="M208.051 301.55V301.25C207.611 300.35 207.181 299.46 206.771 298.57C206.351 297.69 205.901 296.77 205.401 295.83C204.901 294.89 204.341 293.9 203.711 292.85C203.091 291.81 202.351 290.67 201.491 289.45C203.201 288.87 204.441 288.04 205.221 286.97C206.001 285.9 206.401 284.48 206.401 282.71V282.11C206.361 281.37 206.201 280.65 205.931 279.95C205.661 279.25 205.261 278.62 204.741 278.07C204.221 277.52 203.571 277.07 202.811 276.73C202.041 276.39 201.171 276.21 200.191 276.19H200.131L199.051 276.34L197.941 276.74L196.921 277.36L196.171 278.14C195.851 278.66 195.601 279.25 195.451 279.9C195.291 280.55 195.211 281.17 195.211 281.75V283.44C195.211 286 195.241 288.52 195.301 290.99C195.321 291.76 195.341 292.53 195.371 293.31C195.401 294.1 195.421 294.86 195.451 295.61C195.471 296.36 195.491 297.09 195.511 297.79C195.531 298.5 195.541 299.15 195.541 299.75V300.53C195.541 301.1 195.771 301.51 196.231 301.8C196.691 302.08 197.191 302.22 197.711 302.22H197.911L198.101 302.19L198.971 301.79L199.331 300.96L199.241 300.48C199.241 300.48 199.201 300.21 199.171 299.73C199.151 299.25 199.131 298.65 199.091 297.92C199.051 297.2 199.031 296.43 198.991 295.59C198.961 294.76 198.931 293.97 198.911 293.21C198.891 292.46 198.871 291.81 198.851 291.26C198.831 290.71 198.811 290.37 198.811 290.25L199.021 290.01L199.601 290.31C200.231 291.41 200.741 292.45 201.141 293.4C201.531 294.36 201.891 295.29 202.211 296.19C202.531 297.08 202.881 297.95 203.251 298.81C203.621 299.66 204.111 300.52 204.711 301.41L205.671 302.32L206.941 302.67L207.961 302.37L208.081 301.95V301.75L208.051 301.55ZM200.481 287.77L199.511 288.01L198.851 287.89C198.791 287.75 198.751 287.41 198.731 286.88C198.711 286.35 198.701 285.74 198.701 285.06C198.701 284.58 198.701 284.08 198.721 283.57C198.721 283.06 198.741 282.59 198.761 282.14L198.821 281L198.911 280.37C199.111 279.73 199.431 279.23 199.851 278.88C200.281 278.53 200.721 278.34 201.181 278.33L202.341 278.78C202.711 279.08 203.021 279.58 203.241 280.26C203.381 280.68 203.451 281.21 203.451 281.85C203.451 282.35 203.401 282.87 203.301 283.41C203.201 283.96 203.031 284.49 202.821 285L202.181 286.18L201.391 287.13L200.481 287.78V287.77Z" fill="#173B07"/>
<path d="M135.69 278.36C134.73 277.53 133.53 276.99 132.11 276.75C131.55 276.65 131 276.65 130.45 276.76C129.91 276.87 129.4 277.13 128.91 277.53L128.34 277.84L127.71 277.95C127.01 278.07 126.4 278.34 125.89 278.77C125.38 279.2 124.93 279.73 124.55 280.35C123.91 281.41 123.4 282.69 123.04 284.2C122.68 285.7 122.49 287.27 122.45 288.89C122.4 290.28 122.5 291.65 122.73 293.01C122.96 294.37 123.37 295.62 123.95 296.73C124.54 297.84 125.3 298.77 126.25 299.51C127.2 300.26 128.39 300.71 129.82 300.9C130.76 301.02 131.63 300.94 132.42 300.64C133.21 300.35 133.94 299.93 134.59 299.36C135.24 298.8 135.82 298.13 136.33 297.36C136.84 296.58 137.28 295.77 137.66 294.91C138.03 294.04 138.32 293.17 138.55 292.28C138.77 291.39 138.93 290.54 139.03 289.74C139.19 288.27 139.19 286.81 139.03 285.37C138.87 283.93 138.52 282.6 137.96 281.4C137.41 280.2 136.65 279.18 135.69 278.35V278.36ZM136.12 289.36C136.06 289.84 135.97 290.43 135.85 291.12C135.73 291.81 135.56 292.52 135.35 293.26C135.14 293.99 134.88 294.72 134.58 295.44C134.28 296.17 133.92 296.8 133.49 297.37C133.07 297.93 132.6 298.38 132.07 298.73C131.54 299.07 130.94 299.23 130.28 299.21C129.4 299.19 128.67 298.86 128.12 298.22C127.55 297.58 127.12 296.75 126.82 295.75C126.52 294.75 126.33 293.63 126.27 292.39C126.19 291.15 126.21 289.9 126.31 288.66C126.43 287.18 126.63 285.8 126.9 284.52C127.17 283.25 127.47 282.26 127.82 281.56C128.18 280.8 128.65 280.21 129.22 279.79C129.79 279.37 130.5 279.31 131.34 279.61L132.02 279.94L132.72 280.12L133.07 279.91L133.2 279.25C133.86 279.25 134.41 279.55 134.86 280.14C135.3 280.73 135.65 281.5 135.88 282.46C136.12 283.41 136.25 284.5 136.29 285.71C136.32 286.92 136.26 288.16 136.13 289.4L136.12 289.36Z" fill="#173B07"/>
<path d="M224.45 277.01L223.77 276.27L222.84 275.89L221.8 276.11L221.78 276.61V277.11C221.69 278.57 221.63 280.07 221.58 281.59C221.53 284.12 221.49 286.67 221.49 289.25C221.49 291.83 221.46 294.32 221.4 296.75V297.63L221.45 298.56L221.6 299.39L221.91 299.98L222.75 300.55L223.68 300.94L224.45 300.77C224.66 300.6 224.77 300.23 224.77 299.68C224.75 298.86 224.74 298.05 224.74 297.25V294.86C224.72 293.82 224.72 292.78 224.73 291.76C224.73 290.74 224.75 289.71 224.77 288.66C224.79 286.83 224.8 285.04 224.8 283.25C224.8 281.46 224.77 279.68 224.71 277.86L224.44 277L224.45 277.01Z" fill="#173B07"/>
<path d="M247.6 297.9L246.44 297.61L245.28 297.54L244.08 297.58C243.67 297.61 243.25 297.63 242.78 297.63L242.38 297.48L242.3 297.03V295.26L242.33 294.15L242.31 293.04V291.93L242.27 290.74V288.56L242.95 288.54L243.81 288.49L244.73 288.37L245.59 288.21L246.34 287.77L246.49 287.16V287.04L246.35 286.57L245.73 286.19L245.23 286.1L244.7 286.07L243.77 286.11L242.93 286.15L242.21 285.97C242.16 285.45 242.13 284.99 242.1 284.59C242.07 284.19 242.04 283.73 242.01 283.23C241.98 282.73 241.94 282.23 241.88 281.73C241.84 281.19 241.81 280.68 241.79 280.21C241.77 279.74 241.76 279.37 241.76 279.09V278.73L242.3 278.58L243.05 278.55H244.55L245.36 278.58C245.97 278.58 246.51 278.53 247 278.44C247.49 278.35 247.81 278.13 247.97 277.78L248.04 277.54L247.84 277.04L247.49 276.75C247.21 276.63 246.72 276.52 246.03 276.43C245.34 276.34 244.58 276.27 243.76 276.23L243.22 276.21L242.68 276.19C241.83 276.19 241.09 276.23 240.42 276.31C239.76 276.39 239.35 276.52 239.19 276.7L239.05 276.94L239.03 277.18L239 277.51L238.88 277.85L238.74 277.91L238.62 278.21C238.59 278.38 238.57 278.73 238.57 279.25C238.57 279.93 238.57 280.7 238.59 281.55C238.59 282.4 238.61 283.31 238.62 284.27C238.63 285.23 238.65 286.22 238.67 287.23C238.69 288.24 238.72 289.25 238.76 290.25C238.78 290.93 238.8 291.6 238.8 292.25C238.8 292.9 238.82 293.53 238.82 294.13C238.82 294.81 238.82 295.45 238.79 296.04C238.77 296.63 238.74 297.18 238.7 297.68L238.63 297.89L238.58 298.28L238.74 298.94L239.48 299.64L239.96 299.94L240.62 300.06L241.14 300.01L241.59 299.94L242.16 299.88L243.07 299.85H243.69L244.31 299.87L245.02 299.89C245.63 299.89 246.23 299.84 246.83 299.74C247.43 299.64 247.89 299.41 248.22 299.05L248.4 298.63C248.4 298.33 248.13 298.08 247.59 297.88L247.6 297.9Z" fill="#173B07"/>
<path d="M85.6212 195.64C86.1612 194.98 86.7713 194.39 87.4213 193.83C87.4413 193.81 87.4613 193.79 87.4813 193.77C78.3813 184.83 69.2812 175.89 60.1912 166.95C60.1912 166.95 60.1713 166.94 60.1713 166.93C59.5313 167.54 58.8913 168.18 58.2812 168.82L58.3013 168.84C67.4013 177.78 76.5012 186.72 85.5912 195.67C85.5912 195.66 85.6112 195.65 85.6312 195.63L85.6212 195.64Z" fill="#683507"/>
<path d="M95.7318 190.1C96.5718 190 97.4118 189.97 98.2518 190.03H98.2718V150.91C97.3718 150.91 96.4818 150.94 95.5918 151V190.11C95.5918 190.11 95.6818 190.11 95.7318 190.11V190.1Z" fill="#683507"/>
<path d="M107.942 195.38C116.722 186.21 125.492 177.04 134.282 167.87L134.322 167.83C134.022 167.51 133.732 167.19 133.432 166.88C133.182 166.6 132.922 166.33 132.672 166.06C132.612 166 132.552 165.93 132.492 165.87C132.492 165.87 132.492 165.87 132.472 165.88C123.682 175.06 114.892 184.26 106.102 193.44C106.762 194.04 107.382 194.69 107.942 195.39V195.38Z" fill="#683507"/>
<path d="M111.801 205.12L111.841 206.29H150.691C150.621 205.4 150.521 204.5 150.421 203.61H111.621C111.711 204.11 111.771 204.62 111.801 205.13V205.12Z" fill="#683507"/>
<path d="M97.4415 219.71C97.0015 219.74 96.5715 219.75 96.1415 219.74C95.9615 219.74 95.7816 219.76 95.6016 219.74V258.85C96.4916 258.85 97.3916 258.82 98.2816 258.78V219.69C98.0016 219.72 97.7215 219.69 97.4415 219.7V219.71Z" fill="#683507"/>
<path d="M106.821 216.54C116.441 226 126.061 235.46 135.691 244.92C135.691 244.92 135.701 244.94 135.711 244.95C135.931 244.77 136.121 244.58 136.331 244.39C136.651 244.12 136.961 243.84 137.261 243.56C137.411 243.43 137.561 243.3 137.711 243.16C137.711 243.16 137.701 243.14 137.691 243.14C128.061 233.67 118.441 224.21 108.801 214.75C108.231 215.4 107.571 216 106.811 216.55L106.821 216.54Z" fill="#683507"/>
<path d="M82.1013 205.1C82.1013 204.6 82.1413 204.1 82.1913 203.6H43.1713C43.1413 204.32 43.1113 205.04 43.1113 205.77V206.29H82.1813L82.1013 205.1Z" fill="#683507"/>
<path d="M85.5706 214.88C76.3606 224.5 67.1406 234.13 57.9306 243.76C57.9106 243.77 57.9006 243.79 57.8906 243.8C58.5006 244.46 59.1206 245.1 59.7706 245.71C59.7906 245.69 59.8106 245.66 59.8406 245.64C69.0506 236.02 78.2706 226.39 87.4706 216.76C86.7806 216.21 86.1306 215.6 85.5606 214.88H85.5706Z" fill="#683507"/>
<path d="M98.2518 190.03C97.4018 189.97 96.5618 190 95.7318 190.1C92.6918 190.46 89.7818 191.79 87.4218 193.83C86.7818 194.39 86.1718 194.99 85.6218 195.64C83.4618 198.21 82.0918 201.48 82.0918 205.1C82.0918 207.28 82.8618 209.94 83.7418 211.9C86.1218 217.18 90.9918 219.6 96.1318 219.73C96.5618 219.73 97.0018 219.73 97.4318 219.7C100.412 219.55 103.412 218.67 106.022 217.06C110.452 214.33 112.132 209.74 111.792 205.11C111.472 200.6 109.232 196.04 105.772 193.11C103.472 191.16 100.862 190.2 98.2518 190.02V190.03Z" fill="#5AA246"/>
<path d="M209.76 187.83C210.45 187.57 211.15 187.37 211.86 187.21C212.03 187.17 212.19 187.16 212.36 187.13C212.9 187.03 213.44 186.95 213.99 186.92C214.22 186.9 214.46 186.92 214.7 186.92C215.18 186.92 215.67 186.92 216.16 186.97C216.41 187 216.66 187.04 216.92 187.08C217.39 187.16 217.85 187.26 218.31 187.38C218.45 187.42 218.6 187.43 218.74 187.47C220.22 185.49 221.71 183.59 222.96 181.82C223.38 181.22 223.82 180.62 224.25 180.02C222.98 179.73 221.75 179.5 220.61 179.34C215.61 178.67 210.42 178.55 205.61 178.59C204.43 178.6 203.25 178.6 202.07 178.61C204.64 181.68 207.14 184.81 209.77 187.83H209.76Z" fill="#5AA246"/>
<path d="M224.882 221.27C223.572 219.24 222.232 217.25 220.812 215.34C220.792 215.34 220.772 215.35 220.742 215.36C220.392 215.5 220.032 215.57 219.672 215.69C219.052 215.9 218.422 216.1 217.782 216.24C217.352 216.33 216.922 216.37 216.492 216.43C215.902 216.51 215.332 216.59 214.742 216.61C214.302 216.63 213.862 216.61 213.432 216.59C212.852 216.57 212.292 216.53 211.732 216.44C211.302 216.38 210.872 216.3 210.462 216.2C209.912 216.07 209.362 215.9 208.822 215.71C208.432 215.57 208.032 215.42 207.662 215.25C207.122 215 206.622 214.69 206.122 214.36C205.782 214.15 205.452 213.95 205.142 213.7C204.622 213.29 204.152 212.8 203.692 212.3C203.462 212.05 203.202 211.83 202.982 211.55C202.332 210.73 201.762 209.81 201.292 208.77C200.402 206.81 199.652 204.14 199.652 201.97C199.652 201.26 199.712 200.55 199.812 199.86C199.852 199.63 199.922 199.4 199.972 199.17C200.062 198.73 200.142 198.29 200.272 197.86C200.352 197.58 200.472 197.32 200.572 197.05C200.702 196.69 200.822 196.33 200.982 195.98C201.112 195.69 201.272 195.42 201.422 195.14C201.592 194.83 201.752 194.52 201.942 194.22C202.112 193.94 202.312 193.67 202.512 193.4C202.702 193.13 202.892 192.87 203.102 192.61C203.322 192.34 203.562 192.09 203.802 191.84C204.012 191.61 204.232 191.38 204.452 191.17C204.712 190.93 204.982 190.7 205.252 190.47C205.482 190.28 205.712 190.09 205.952 189.91C206.242 189.7 206.542 189.5 206.842 189.3C206.992 189.2 207.132 189.09 207.292 189C205.952 187.47 204.562 185.83 203.112 184.12C203.082 184.08 203.052 184.04 203.012 184C201.552 182.27 200.042 180.46 198.492 178.59C184.632 178.64 170.782 178.57 156.922 178.56C157.232 179.23 157.472 179.93 157.762 180.61C158.242 181.75 158.732 182.9 159.172 184.06C159.622 185.27 160.002 186.5 160.392 187.73C160.732 188.8 161.092 189.87 161.382 190.95C161.792 192.45 162.102 193.97 162.422 195.49C162.602 196.35 162.822 197.19 162.972 198.05C163.382 200.46 163.702 202.89 163.882 205.33C164.062 207.9 164.062 210.42 163.972 212.91C163.952 213.61 163.912 214.29 163.862 214.97C163.722 217.1 163.492 219.2 163.142 221.25C163.092 221.59 163.062 221.95 162.992 222.29C162.642 224.23 162.202 226.13 161.672 227.99C178.302 227.91 194.932 227.97 211.562 227.97C217.802 227.97 223.112 227.64 227.832 226.03C227.392 225.29 226.962 224.56 226.512 223.83C225.972 222.95 225.452 222.08 224.902 221.22L224.882 221.27Z" fill="#5AA246"/>
<path d="M221.211 188.56C221.211 188.56 221.261 188.59 221.281 188.6C221.971 189 222.651 189.46 223.311 190.01C226.771 192.94 229.011 197.49 229.341 202.01C229.681 206.64 228.001 211.22 223.571 213.96L223.201 214.16H223.221C224.641 216.07 225.971 218.07 227.271 220.11C227.821 220.98 228.361 221.88 228.891 222.76C229.361 223.53 229.851 224.29 230.311 225.07C234.211 223.25 237.721 220.37 241.071 215.78C247.011 207.61 248.601 195.73 240.761 188.06C237.451 184.82 232.131 182.3 227.001 180.77C226.431 181.57 225.831 182.37 225.261 183.18C224.081 184.86 222.641 186.67 221.201 188.57L221.211 188.56Z" fill="#5AA246"/>
<path d="M223.231 214.15C222.451 214.61 221.641 215.01 220.811 215.35C222.231 217.26 223.571 219.25 224.881 221.28C225.421 222.14 225.951 223.01 226.491 223.89C226.941 224.62 227.371 225.35 227.811 226.09C231.021 231.53 234.011 237.14 237.001 242.5C237.031 242.48 237.051 242.47 237.071 242.45C237.831 241.93 238.551 241.43 239.211 240.96C235.871 234.99 232.551 228.75 228.911 222.77C228.371 221.88 227.841 220.99 227.291 220.12C225.991 218.08 224.651 216.08 223.241 214.16L223.231 214.15Z" fill="#683507"/>
<path d="M226.101 249.67C223.031 251.69 225.281 257.86 230.171 255.53C233.021 254.17 237.731 251.76 240.331 250.23C242.621 248.89 255.461 242.48 248.851 237.86C246.391 236.14 242.921 238.31 240.731 239.85C239.751 240.59 238.461 241.49 237.071 242.44C237.051 242.46 237.021 242.47 237.001 242.49C233.161 245.11 228.421 248.15 226.111 249.67H226.101Z" fill="#5AA246"/>
<path d="M104.671 138.07C106.361 134.78 108.351 131.7 110.501 128.74C109.491 128.58 108.481 128.42 107.481 128.31C105.391 131.36 103.441 134.51 101.811 137.84C102.171 137.86 102.521 137.9 102.871 137.93C103.321 137.97 103.781 138 104.231 138.04C104.381 138.06 104.521 138.06 104.671 138.08V138.07Z" fill="#683507"/>
<path d="M123.49 114.97C128.42 111.01 134.54 107.95 139.92 104.73C140.25 104.53 174.24 149.4 198.46 178.62C200.01 180.5 201.52 182.3 202.98 184.03C203.02 184.07 203.05 184.11 203.08 184.15C204.53 185.86 205.93 187.5 207.26 189.03C207.33 188.98 207.43 188.96 207.51 188.91C208.23 188.5 208.98 188.12 209.75 187.83C207.12 184.81 204.63 181.67 202.05 178.6C181.24 153.73 162.12 127.48 141.82 102.2L141.66 102.04V83.69C140.78 83.64 139.88 83.62 138.98 83.61C138.98 89.81 138.91 95.74 138.91 101.95L138 102.72C132.05 106.28 126.11 109.43 120.68 113.81C118.7 115.4 116.84 117.11 115.07 118.9C116.21 119.1 117.29 119.33 118.36 119.55C119.98 117.96 121.68 116.42 123.48 114.97H123.49Z" fill="#683507"/>
<path d="M148.75 84.66C156.44 86.67 162.48 87.95 164.49 78.62C166.51 69.28 159.8 67.98 153.58 67.43C147.35 66.88 130.54 67.91 119.9 72.74C114.66 75.12 113.83 86.93 122.39 85.22C126.49 84.4 132.89 83.59 139 83.62C139.91 83.62 140.8 83.66 141.68 83.7C144.23 83.83 146.67 84.12 148.76 84.66H148.75Z" fill="#5AA246"/>
<path d="M118.761 130.52C142.101 137.38 146.711 149.09 154.961 155.7C157.421 157.66 167.831 156.86 156.831 143.25C148.211 132.59 139.291 123.96 118.361 119.56C117.291 119.33 116.211 119.11 115.071 118.91C110.071 118.02 104.471 117.34 98.0509 116.91C67.4509 114.88 37.5009 139.15 46.2309 140.07C54.8909 140.99 78.9209 125.15 107.481 128.31C108.481 128.42 109.491 128.58 110.501 128.74C113.231 129.17 115.971 129.71 118.761 130.53V130.52Z" fill="#5AA246"/>
<path d="M234.941 69.5499C221.601 62.1599 220.261 73.03 231.691 80.08C250.091 91.43 252.381 84.2899 247.991 79.3499C245.941 77.0499 243.741 75.23 241.621 73.71C241.171 73.38 240.731 73.08 240.281 72.78C238.341 71.49 236.491 70.4099 234.941 69.5499Z" fill="#5AA246"/>
<path d="M289.541 76.0499C309.401 86.6699 310.231 80.26 305.841 75.32C301.451 70.37 293.381 65.2499 293.381 65.2499C282.661 59.3699 279.071 65.8 284.171 71.84C284.721 72.49 285.381 73.14 286.131 73.76C287.101 74.57 288.221 75.3399 289.531 76.0499H289.541Z" fill="#5AA246"/>
<path d="M298.41 135.23C299.63 137.61 300.81 140.02 301.79 142.48C302.63 142.15 303.46 141.83 304.3 141.53C303.33 139.09 302.19 136.73 300.99 134.41C300.17 134.68 299.35 134.88 298.53 135.19C298.49 135.2 298.45 135.22 298.41 135.24V135.23Z" fill="#683507"/>
<path d="M276.941 104.68C274.101 102.24 271.121 99.89 267.981 97.85C269.171 98.63 268.751 96.46 268.791 95.32C268.891 93.21 268.881 91.09 268.891 88.97C268.911 85.12 268.831 81.27 268.821 77.43L268.801 77.3C270.801 77.22 272.791 77.07 274.771 76.83C278.821 76.34 282.571 75.26 286.231 73.87C286.191 73.84 286.161 73.81 286.121 73.77C285.361 73.15 284.711 72.5 284.161 71.85C284.151 71.83 284.121 71.82 284.111 71.8C281.281 72.8 278.391 73.6 275.301 74.07C263.281 75.92 250.651 74.1 238.661 71.73C239.181 72.05 239.731 72.42 240.261 72.78C240.711 73.08 241.151 73.38 241.601 73.71C242.311 74.23 243.041 74.76 243.771 75.36C251.161 76.61 258.661 77.47 266.131 77.38V77.44C266.151 84.57 266.631 91.85 265.851 98.95C265.791 99.41 266.141 99.87 266.511 100.11C270.721 102.79 274.761 105.91 278.551 109.36L278.321 109.54C274.031 113.58 270.551 118.87 266.931 123.47C259.521 132.86 252.221 142.35 244.991 151.88C237.501 161.76 230.081 171.7 222.931 181.83C221.681 183.6 220.191 185.5 218.711 187.48C218.811 187.51 218.901 187.57 219.001 187.6C219.671 187.83 220.331 188.12 220.971 188.47C221.041 188.51 221.121 188.52 221.191 188.57C222.631 186.67 224.071 184.86 225.251 183.18C225.821 182.37 226.411 181.58 226.991 180.77C233.381 171.78 239.971 162.93 246.621 154.14C253.931 144.48 261.321 134.88 268.821 125.37C272.451 120.76 275.921 115.48 280.211 111.44L280.441 111.17C285.061 115.62 289.261 120.58 292.871 125.89C293.691 125.6 294.491 125.31 295.351 125.04C290.171 117.5 283.891 110.7 276.921 104.7L276.941 104.68Z" fill="#683507"/>
<path d="M261.42 150.5C251.38 164.83 261.83 164.92 264.14 162.79C271.91 155.64 275.7 143.68 298.41 135.22C298.45 135.2 298.48 135.18 298.53 135.17C299.35 134.87 300.17 134.66 300.99 134.39C332.68 124.07 362.1 141.34 371.54 139.68C380.19 138.16 348.63 116.01 318.23 120.15C309.12 121.39 301.64 123.03 295.37 125.01C294.51 125.28 293.71 125.57 292.89 125.86C276.1 131.72 268.58 140.27 261.42 150.49V150.5Z" fill="#5AA246"/>
<path d="M332.545 3.67311C333.735 1.91439 336.325 1.91439 337.515 3.67311L364.589 43.6945C364.991 44.2883 365.592 44.7186 366.283 44.9075L413.37 57.7703C415.458 58.3408 416.273 60.8683 414.912 62.5513L384.579 100.037C384.119 100.606 383.882 101.323 383.914 102.054L385.99 149.923C386.083 152.06 383.973 153.605 381.964 152.871L336.06 136.095C335.395 135.852 334.665 135.852 334 136.095L288.097 152.871C286.087 153.605 283.977 152.06 284.07 149.923L286.146 102.054C286.178 101.323 285.942 100.606 285.481 100.037L255.149 62.5513C253.787 60.8683 254.602 58.3408 256.69 57.7703L303.777 44.9075C304.468 44.7186 305.07 44.2883 305.471 43.6945L332.545 3.67311Z" fill="#FFBF42"/>
<path d="M317.933 78.288C316.989 78.288 316.077 78.112 315.197 77.76C314.317 77.392 313.565 76.88 312.941 76.224C312.317 75.552 311.909 74.752 311.717 73.824L315.005 72.72C315.245 73.488 315.629 74.048 316.157 74.4C316.685 74.752 317.277 74.928 317.933 74.928C318.493 74.928 318.981 74.816 319.397 74.592C319.813 74.352 320.133 74.024 320.357 73.608C320.597 73.176 320.717 72.68 320.717 72.12C320.717 71.56 320.597 71.072 320.357 70.656C320.133 70.24 319.813 69.92 319.397 69.696C318.981 69.456 318.493 69.336 317.933 69.336C317.357 69.336 316.845 69.464 316.397 69.72C315.949 69.96 315.621 70.336 315.413 70.848L312.365 70.128L313.805 60.12H323.789V63.24H315.317L316.709 61.56L315.725 69L314.717 68.112C315.117 67.456 315.621 66.976 316.229 66.672C316.853 66.368 317.653 66.216 318.629 66.216C319.829 66.216 320.861 66.472 321.725 66.984C322.589 67.48 323.253 68.168 323.717 69.048C324.197 69.928 324.437 70.952 324.437 72.12C324.437 73.288 324.149 74.344 323.573 75.288C323.013 76.216 322.245 76.952 321.269 77.496C320.293 78.024 319.181 78.288 317.933 78.288ZM333.755 78.288C332.331 78.288 331.075 77.904 329.987 77.136C328.915 76.368 328.075 75.288 327.467 73.896C326.859 72.504 326.555 70.888 326.555 69.048C326.555 67.192 326.851 65.576 327.443 64.2C328.051 62.824 328.891 61.752 329.963 60.984C331.051 60.216 332.307 59.832 333.731 59.832C335.187 59.832 336.451 60.216 337.523 60.984C338.611 61.752 339.451 62.832 340.043 64.224C340.651 65.6 340.955 67.208 340.955 69.048C340.955 70.888 340.651 72.504 340.043 73.896C339.451 75.272 338.611 76.352 337.523 77.136C336.451 77.904 335.195 78.288 333.755 78.288ZM333.779 74.928C334.515 74.928 335.139 74.696 335.651 74.232C336.163 73.768 336.555 73.096 336.827 72.216C337.099 71.336 337.235 70.28 337.235 69.048C337.235 67.816 337.099 66.768 336.827 65.904C336.555 65.024 336.155 64.352 335.627 63.888C335.115 63.424 334.483 63.192 333.731 63.192C332.995 63.192 332.371 63.424 331.859 63.888C331.347 64.352 330.955 65.024 330.683 65.904C330.411 66.768 330.275 67.816 330.275 69.048C330.275 70.264 330.411 71.312 330.683 72.192C330.955 73.072 331.347 73.752 331.859 74.232C332.387 74.696 333.027 74.928 333.779 74.928ZM350.32 78.288C348.896 78.288 347.64 77.904 346.552 77.136C345.48 76.368 344.64 75.288 344.032 73.896C343.424 72.504 343.12 70.888 343.12 69.048C343.12 67.192 343.416 65.576 344.008 64.2C344.616 62.824 345.456 61.752 346.528 60.984C347.616 60.216 348.872 59.832 350.296 59.832C351.752 59.832 353.016 60.216 354.088 60.984C355.176 61.752 356.016 62.832 356.608 64.224C357.216 65.6 357.52 67.208 357.52 69.048C357.52 70.888 357.216 72.504 356.608 73.896C356.016 75.272 355.176 76.352 354.088 77.136C353.016 77.904 351.76 78.288 350.32 78.288ZM350.344 74.928C351.08 74.928 351.704 74.696 352.216 74.232C352.728 73.768 353.12 73.096 353.392 72.216C353.664 71.336 353.8 70.28 353.8 69.048C353.8 67.816 353.664 66.768 353.392 65.904C353.12 65.024 352.72 64.352 352.192 63.888C351.68 63.424 351.048 63.192 350.296 63.192C349.56 63.192 348.936 63.424 348.424 63.888C347.912 64.352 347.52 65.024 347.248 65.904C346.976 66.768 346.84 67.816 346.84 69.048C346.84 70.264 346.976 71.312 347.248 72.192C347.52 73.072 347.912 73.752 348.424 74.232C348.952 74.696 349.592 74.928 350.344 74.928Z" fill="#5F3F00"/>
<path d="M312.867 100.968V89.8981H314.944V91.4413L314.752 90.9961C315.019 90.5905 315.38 90.2789 315.835 90.0613C316.3 89.8338 316.829 89.72 317.422 89.72C318.194 89.72 318.892 89.908 319.515 90.2839C320.138 90.6598 320.633 91.1692 320.999 91.8123C321.365 92.4454 321.548 93.1576 321.548 93.949C321.548 94.7305 321.365 95.4428 320.999 96.0858C320.642 96.7288 320.153 97.2383 319.53 97.6142C318.906 97.9901 318.199 98.1781 317.408 98.1781C316.854 98.1781 316.339 98.0791 315.864 97.8813C315.399 97.6735 315.024 97.3718 314.737 96.9761L315.093 96.5161V100.968H312.867ZM317.141 96.1748C317.556 96.1748 317.922 96.0809 318.239 95.8929C318.555 95.7049 318.802 95.4428 318.981 95.1065C319.159 94.7701 319.248 94.3843 319.248 93.949C319.248 93.5138 319.159 93.1329 318.981 92.8065C318.802 92.4701 318.555 92.208 318.239 92.02C317.922 91.8221 317.556 91.7232 317.141 91.7232C316.745 91.7232 316.389 91.8172 316.072 92.0052C315.765 92.1931 315.523 92.4553 315.345 92.7916C315.177 93.128 315.093 93.5138 315.093 93.949C315.093 94.3843 315.177 94.7701 315.345 95.1065C315.523 95.4428 315.765 95.7049 316.072 95.8929C316.389 96.0809 316.745 96.1748 317.141 96.1748ZM326.724 98.1781C325.923 98.1781 325.191 97.9951 324.528 97.629C323.875 97.263 323.351 96.7634 322.955 96.1303C322.569 95.4873 322.376 94.7602 322.376 93.949C322.376 93.128 322.569 92.4009 322.955 91.7677C323.351 91.1346 323.875 90.6351 324.528 90.269C325.191 89.903 325.923 89.72 326.724 89.72C327.525 89.72 328.253 89.903 328.905 90.269C329.558 90.6351 330.078 91.1346 330.463 91.7677C330.859 92.4009 331.057 93.128 331.057 93.949C331.057 94.7602 330.859 95.4873 330.463 96.1303C330.078 96.7634 329.558 97.263 328.905 97.629C328.253 97.9951 327.525 98.1781 326.724 98.1781ZM326.724 96.1748C327.13 96.1748 327.481 96.0809 327.778 95.8929C328.084 95.7049 328.322 95.4428 328.49 95.1065C328.668 94.7701 328.757 94.3843 328.757 93.949C328.757 93.5138 328.668 93.1329 328.49 92.8065C328.322 92.4701 328.084 92.208 327.778 92.02C327.481 91.8221 327.13 91.7232 326.724 91.7232C326.319 91.7232 325.962 91.8221 325.656 92.02C325.349 92.208 325.107 92.4701 324.929 92.8065C324.76 93.1329 324.676 93.5138 324.676 93.949C324.676 94.3843 324.76 94.7701 324.929 95.1065C325.107 95.4428 325.349 95.7049 325.656 95.8929C325.962 96.0809 326.319 96.1748 326.724 96.1748ZM332.22 98V89.8981H334.446V98H332.22ZM332.22 89.171V86.9452H334.446V89.171H332.22ZM335.926 98V89.8981H338.004V91.5006L337.885 91.1445C338.073 90.6598 338.374 90.3037 338.79 90.0761C339.215 89.8387 339.71 89.72 340.274 89.72C340.887 89.72 341.421 89.8486 341.876 90.1058C342.341 90.363 342.702 90.7241 342.96 91.189C343.217 91.6441 343.345 92.1783 343.345 92.7916V98H341.12V93.2665C341.12 92.9499 341.055 92.6778 340.927 92.4503C340.808 92.2228 340.635 92.0447 340.407 91.9161C340.19 91.7875 339.933 91.7232 339.636 91.7232C339.349 91.7232 339.092 91.7875 338.864 91.9161C338.637 92.0447 338.459 92.2228 338.33 92.4503C338.211 92.6778 338.152 92.9499 338.152 93.2665V98H335.926ZM348.563 98.089C347.584 98.089 346.822 97.8269 346.278 97.3026C345.744 96.7684 345.477 96.0265 345.477 95.0768V91.8271H344.112V89.8981H344.186C344.601 89.8981 344.918 89.7942 345.135 89.5865C345.363 89.3787 345.477 89.0671 345.477 88.6516V88.0581H347.703V89.8981H349.602V91.8271H347.703V94.9284C347.703 95.2054 347.752 95.4378 347.851 95.6258C347.95 95.8039 348.103 95.9374 348.311 96.0265C348.519 96.1155 348.776 96.16 349.083 96.16C349.152 96.16 349.231 96.1551 349.32 96.1452C349.409 96.1353 349.503 96.1254 349.602 96.1155V98C349.454 98.0198 349.285 98.0396 349.097 98.0594C348.909 98.0791 348.731 98.089 348.563 98.089ZM353.933 98.1781C353.043 98.1781 352.266 97.9703 351.604 97.5548C350.951 97.1295 350.506 96.5606 350.268 95.8484L351.9 95.0768C352.108 95.512 352.39 95.8533 352.746 96.1006C353.102 96.348 353.498 96.4716 353.933 96.4716C354.25 96.4716 354.492 96.4073 354.66 96.2787C354.829 96.1501 354.913 95.972 354.913 95.7445C354.913 95.6258 354.883 95.5269 354.824 95.4477C354.764 95.3587 354.675 95.2796 354.557 95.2103C354.438 95.1411 354.289 95.0817 354.111 95.0323L352.731 94.6465C352.069 94.4585 351.559 94.1568 351.203 93.7413C350.847 93.3159 350.669 92.8163 350.669 92.2426C350.669 91.7381 350.797 91.2978 351.055 90.9219C351.312 90.546 351.673 90.2542 352.138 90.0465C352.603 89.8288 353.137 89.72 353.74 89.72C354.532 89.72 355.224 89.908 355.818 90.2839C356.421 90.6499 356.847 91.1692 357.094 91.8419L355.447 92.6135C355.328 92.2772 355.111 92.0101 354.794 91.8123C354.487 91.6045 354.136 91.5006 353.74 91.5006C353.454 91.5006 353.226 91.56 353.058 91.6787C352.9 91.7974 352.82 91.9606 352.82 92.1684C352.82 92.2772 352.85 92.3761 352.909 92.4652C352.969 92.5542 353.063 92.6333 353.191 92.7026C353.33 92.7718 353.498 92.8361 353.696 92.8955L354.987 93.2813C355.66 93.4791 356.174 93.7809 356.53 94.1865C356.886 94.5822 357.064 95.0718 357.064 95.6555C357.064 96.16 356.931 96.6002 356.664 96.9761C356.406 97.352 356.045 97.6488 355.58 97.8665C355.115 98.0742 354.566 98.1781 353.933 98.1781Z" fill="#5F3F00"/>
<path d="M162.699 364V346.12H166.419V360.76H173.979V364H162.699ZM181.632 364.288C180.24 364.288 179.032 363.984 178.008 363.376C176.984 362.752 176.192 361.92 175.632 360.88C175.072 359.84 174.792 358.688 174.792 357.424C174.792 356.112 175.08 354.944 175.656 353.92C176.248 352.896 177.04 352.088 178.032 351.496C179.024 350.904 180.144 350.608 181.392 350.608C182.432 350.608 183.352 350.776 184.152 351.112C184.952 351.432 185.624 351.888 186.168 352.48C186.728 353.072 187.152 353.76 187.44 354.544C187.728 355.312 187.872 356.152 187.872 357.064C187.872 357.32 187.856 357.576 187.824 357.832C187.808 358.072 187.768 358.28 187.704 358.456H177.888V355.816H185.664L183.96 357.064C184.12 356.376 184.112 355.768 183.936 355.24C183.76 354.696 183.448 354.272 183 353.968C182.568 353.648 182.032 353.488 181.392 353.488C180.768 353.488 180.232 353.64 179.784 353.944C179.336 354.248 179 354.696 178.776 355.288C178.552 355.88 178.464 356.6 178.512 357.448C178.448 358.184 178.536 358.832 178.776 359.392C179.016 359.952 179.384 360.392 179.88 360.712C180.376 361.016 180.976 361.168 181.68 361.168C182.32 361.168 182.864 361.04 183.312 360.784C183.776 360.528 184.136 360.176 184.392 359.728L187.272 361.096C187.016 361.736 186.608 362.296 186.048 362.776C185.504 363.256 184.856 363.632 184.104 363.904C183.352 364.16 182.528 364.288 181.632 364.288ZM193.621 364L188.461 350.896H192.349L195.925 360.808H194.437L198.013 350.896H201.901L196.741 364H193.621ZM209.323 364.288C207.931 364.288 206.723 363.984 205.699 363.376C204.675 362.752 203.883 361.92 203.323 360.88C202.763 359.84 202.483 358.688 202.483 357.424C202.483 356.112 202.771 354.944 203.347 353.92C203.939 352.896 204.731 352.088 205.723 351.496C206.715 350.904 207.835 350.608 209.083 350.608C210.123 350.608 211.043 350.776 211.843 351.112C212.643 351.432 213.315 351.888 213.859 352.48C214.419 353.072 214.843 353.76 215.131 354.544C215.419 355.312 215.563 356.152 215.563 357.064C215.563 357.32 215.547 357.576 215.515 357.832C215.499 358.072 215.459 358.28 215.395 358.456H205.579V355.816H213.355L211.651 357.064C211.811 356.376 211.803 355.768 211.627 355.24C211.451 354.696 211.139 354.272 210.691 353.968C210.259 353.648 209.723 353.488 209.083 353.488C208.459 353.488 207.923 353.64 207.475 353.944C207.027 354.248 206.691 354.696 206.467 355.288C206.243 355.88 206.155 356.6 206.203 357.448C206.139 358.184 206.227 358.832 206.467 359.392C206.707 359.952 207.075 360.392 207.571 360.712C208.067 361.016 208.667 361.168 209.371 361.168C210.011 361.168 210.555 361.04 211.003 360.784C211.467 360.528 211.827 360.176 212.083 359.728L214.963 361.096C214.707 361.736 214.299 362.296 213.739 362.776C213.195 363.256 212.547 363.632 211.795 363.904C211.043 364.16 210.219 364.288 209.323 364.288ZM217.443 364V345.832H221.043V364H217.443ZM233.198 364.288C232.206 364.288 231.262 364.104 230.366 363.736C229.47 363.352 228.71 362.816 228.086 362.128C227.462 361.44 227.046 360.632 226.838 359.704L230.126 358.6C230.398 359.368 230.798 359.952 231.326 360.352C231.854 360.736 232.478 360.928 233.198 360.928C233.79 360.928 234.294 360.816 234.71 360.592C235.142 360.368 235.478 360.056 235.718 359.656C235.958 359.24 236.078 358.76 236.078 358.216C236.078 357.672 235.958 357.208 235.718 356.824C235.494 356.424 235.166 356.12 234.734 355.912C234.318 355.688 233.806 355.576 233.198 355.576C232.846 355.576 232.494 355.616 232.142 355.696C231.79 355.776 231.47 355.888 231.182 356.032L230.318 354.232L234.902 349.24H227.918V346.12H239.078V349L234.374 354.352L234.494 352.84C235.566 352.84 236.494 353.064 237.278 353.512C238.078 353.944 238.694 354.552 239.126 355.336C239.574 356.12 239.798 357.032 239.798 358.072C239.798 359.256 239.51 360.32 238.934 361.264C238.358 362.208 237.574 362.952 236.582 363.496C235.59 364.024 234.462 364.288 233.198 364.288Z" fill="#242E49"/>
<path d="M153.731 404V392.08H155.299V404H153.731ZM157.614 404V395.376H159.07V397.056L158.83 396.912C159.044 396.368 159.385 395.947 159.854 395.648C160.334 395.339 160.894 395.184 161.534 395.184C162.153 395.184 162.702 395.323 163.182 395.6C163.673 395.877 164.057 396.261 164.334 396.752C164.622 397.243 164.766 397.797 164.766 398.416V404H163.262V398.896C163.262 398.416 163.177 398.011 163.006 397.68C162.836 397.349 162.59 397.093 162.27 396.912C161.961 396.72 161.604 396.624 161.198 396.624C160.793 396.624 160.43 396.72 160.11 396.912C159.801 397.093 159.556 397.355 159.374 397.696C159.193 398.027 159.102 398.427 159.102 398.896V404H157.614ZM170.239 404.096C169.397 404.096 168.746 403.856 168.287 403.376C167.839 402.896 167.615 402.219 167.615 401.344V396.8H166.047V395.376H166.367C166.751 395.376 167.055 395.259 167.279 395.024C167.503 394.789 167.615 394.48 167.615 394.096V393.392H169.103V395.376H171.039V396.8H169.103V401.296C169.103 401.584 169.146 401.835 169.231 402.048C169.327 402.261 169.482 402.432 169.695 402.56C169.909 402.677 170.191 402.736 170.543 402.736C170.618 402.736 170.709 402.731 170.815 402.72C170.933 402.709 171.039 402.699 171.135 402.688V404C170.997 404.032 170.842 404.053 170.671 404.064C170.501 404.085 170.357 404.096 170.239 404.096ZM176.653 404.192C175.821 404.192 175.079 403.995 174.429 403.6C173.778 403.205 173.266 402.667 172.893 401.984C172.519 401.291 172.333 400.517 172.333 399.664C172.333 398.8 172.514 398.032 172.877 397.36C173.25 396.688 173.751 396.16 174.381 395.776C175.021 395.381 175.735 395.184 176.525 395.184C177.165 395.184 177.73 395.301 178.221 395.536C178.722 395.76 179.143 396.069 179.485 396.464C179.837 396.848 180.103 397.291 180.285 397.792C180.477 398.283 180.573 398.795 180.573 399.328C180.573 399.445 180.562 399.579 180.541 399.728C180.53 399.867 180.514 400 180.493 400.128H173.421V398.848H179.629L178.925 399.424C179.021 398.869 178.967 398.373 178.765 397.936C178.562 397.499 178.263 397.152 177.869 396.896C177.474 396.64 177.026 396.512 176.525 396.512C176.023 396.512 175.565 396.64 175.149 396.896C174.733 397.152 174.407 397.52 174.173 398C173.949 398.469 173.858 399.029 173.901 399.68C173.858 400.309 173.954 400.864 174.189 401.344C174.434 401.813 174.775 402.181 175.213 402.448C175.661 402.704 176.146 402.832 176.669 402.832C177.245 402.832 177.73 402.699 178.125 402.432C178.519 402.165 178.839 401.824 179.085 401.408L180.333 402.048C180.162 402.443 179.895 402.805 179.533 403.136C179.181 403.456 178.759 403.712 178.269 403.904C177.789 404.096 177.25 404.192 176.653 404.192ZM182.353 404V395.376H183.809V396.96L183.649 396.736C183.852 396.245 184.161 395.883 184.577 395.648C184.993 395.403 185.5 395.28 186.097 395.28H186.625V396.688H185.873C185.265 396.688 184.774 396.88 184.401 397.264C184.028 397.637 183.841 398.171 183.841 398.864V404H182.353ZM187.787 404V395.376H189.243V397.136L189.035 396.864C189.248 396.32 189.589 395.904 190.059 395.616C190.528 395.328 191.056 395.184 191.643 395.184C192.315 395.184 192.917 395.371 193.451 395.744C193.995 396.117 194.368 396.608 194.571 397.216L194.155 397.232C194.379 396.56 194.757 396.053 195.291 395.712C195.824 395.36 196.416 395.184 197.067 395.184C197.664 395.184 198.203 395.323 198.683 395.6C199.173 395.877 199.563 396.261 199.851 396.752C200.139 397.243 200.283 397.797 200.283 398.416V404H198.779V398.896C198.779 398.416 198.693 398.011 198.523 397.68C198.352 397.349 198.117 397.093 197.819 396.912C197.531 396.72 197.189 396.624 196.795 396.624C196.411 396.624 196.064 396.72 195.755 396.912C195.456 397.093 195.216 397.355 195.035 397.696C194.864 398.027 194.779 398.427 194.779 398.896V404H193.275V398.896C193.275 398.416 193.189 398.011 193.019 397.68C192.848 397.349 192.613 397.093 192.315 396.912C192.027 396.72 191.685 396.624 191.291 396.624C190.907 396.624 190.56 396.72 190.251 396.912C189.952 397.093 189.712 397.355 189.531 397.696C189.36 398.027 189.275 398.427 189.275 398.896V404H187.787ZM206.204 404.192C205.372 404.192 204.631 403.995 203.98 403.6C203.329 403.205 202.817 402.667 202.444 401.984C202.071 401.291 201.884 400.517 201.884 399.664C201.884 398.8 202.065 398.032 202.428 397.36C202.801 396.688 203.303 396.16 203.932 395.776C204.572 395.381 205.287 395.184 206.076 395.184C206.716 395.184 207.281 395.301 207.772 395.536C208.273 395.76 208.695 396.069 209.036 396.464C209.388 396.848 209.655 397.291 209.836 397.792C210.028 398.283 210.124 398.795 210.124 399.328C210.124 399.445 210.113 399.579 210.092 399.728C210.081 399.867 210.065 400 210.044 400.128H202.972V398.848H209.18L208.476 399.424C208.572 398.869 208.519 398.373 208.316 397.936C208.113 397.499 207.815 397.152 207.42 396.896C207.025 396.64 206.577 396.512 206.076 396.512C205.575 396.512 205.116 396.64 204.7 396.896C204.284 397.152 203.959 397.52 203.724 398C203.5 398.469 203.409 399.029 203.452 399.68C203.409 400.309 203.505 400.864 203.74 401.344C203.985 401.813 204.327 402.181 204.764 402.448C205.212 402.704 205.697 402.832 206.22 402.832C206.796 402.832 207.281 402.699 207.676 402.432C208.071 402.165 208.391 401.824 208.636 401.408L209.884 402.048C209.713 402.443 209.447 402.805 209.084 403.136C208.732 403.456 208.311 403.712 207.82 403.904C207.34 404.096 206.801 404.192 206.204 404.192ZM215.824 404.192C215.014 404.192 214.283 403.995 213.632 403.6C212.992 403.205 212.486 402.667 212.112 401.984C211.739 401.301 211.552 400.539 211.552 399.696C211.552 398.832 211.739 398.064 212.112 397.392C212.486 396.709 212.992 396.171 213.632 395.776C214.283 395.381 215.014 395.184 215.824 395.184C216.539 395.184 217.174 395.339 217.728 395.648C218.283 395.947 218.72 396.352 219.04 396.864L218.8 397.232V391.888H220.304V404H218.848V402.16L219.04 402.416C218.742 402.981 218.304 403.419 217.728 403.728C217.163 404.037 216.528 404.192 215.824 404.192ZM215.952 402.752C216.496 402.752 216.982 402.619 217.408 402.352C217.835 402.085 218.171 401.723 218.416 401.264C218.672 400.795 218.8 400.272 218.8 399.696C218.8 399.109 218.672 398.587 218.416 398.128C218.171 397.659 217.835 397.291 217.408 397.024C216.982 396.757 216.496 396.624 215.952 396.624C215.419 396.624 214.934 396.763 214.496 397.04C214.07 397.307 213.734 397.669 213.488 398.128C213.243 398.576 213.12 399.099 213.12 399.696C213.12 400.272 213.243 400.795 213.488 401.264C213.734 401.723 214.07 402.085 214.496 402.352C214.923 402.619 215.408 402.752 215.952 402.752ZM222.447 404V395.376H223.935V404H222.447ZM222.447 394V392.08H223.935V394H222.447ZM228.612 404.192C228.047 404.192 227.546 404.091 227.108 403.888C226.682 403.675 226.346 403.387 226.1 403.024C225.855 402.651 225.732 402.224 225.732 401.744C225.732 401.285 225.828 400.875 226.02 400.512C226.223 400.139 226.532 399.824 226.948 399.568C227.375 399.312 227.908 399.131 228.548 399.024L231.748 398.496V399.744L228.884 400.224C228.33 400.32 227.924 400.496 227.668 400.752C227.423 401.008 227.3 401.323 227.3 401.696C227.3 402.048 227.439 402.341 227.716 402.576C228.004 402.811 228.362 402.928 228.788 402.928C229.332 402.928 229.802 402.816 230.196 402.592C230.602 402.357 230.916 402.043 231.14 401.648C231.375 401.253 231.492 400.816 231.492 400.336V398.144C231.492 397.675 231.316 397.296 230.964 397.008C230.623 396.709 230.17 396.56 229.604 396.56C229.114 396.56 228.676 396.688 228.292 396.944C227.919 397.189 227.642 397.52 227.46 397.936L226.164 397.264C226.324 396.869 226.58 396.517 226.932 396.208C227.284 395.888 227.695 395.637 228.164 395.456C228.634 395.275 229.124 395.184 229.636 395.184C230.298 395.184 230.879 395.312 231.38 395.568C231.882 395.813 232.271 396.16 232.548 396.608C232.836 397.045 232.98 397.557 232.98 398.144V404H231.524V402.368L231.796 402.464C231.615 402.805 231.37 403.104 231.06 403.36C230.751 403.616 230.388 403.819 229.972 403.968C229.556 404.117 229.103 404.192 228.612 404.192ZM238.475 404.096C237.632 404.096 236.982 403.856 236.523 403.376C236.075 402.896 235.851 402.219 235.851 401.344V396.8H234.283V395.376H234.603C234.987 395.376 235.291 395.259 235.515 395.024C235.739 394.789 235.851 394.48 235.851 394.096V393.392H237.339V395.376H239.275V396.8H237.339V401.296C237.339 401.584 237.382 401.835 237.467 402.048C237.563 402.261 237.718 402.432 237.931 402.56C238.144 402.677 238.427 402.736 238.779 402.736C238.854 402.736 238.944 402.731 239.051 402.72C239.168 402.709 239.275 402.699 239.371 402.688V404C239.232 404.032 239.078 404.053 238.907 404.064C238.736 404.085 238.592 404.096 238.475 404.096ZM244.888 404.192C244.056 404.192 243.315 403.995 242.664 403.6C242.014 403.205 241.502 402.667 241.128 401.984C240.755 401.291 240.568 400.517 240.568 399.664C240.568 398.8 240.75 398.032 241.112 397.36C241.486 396.688 241.987 396.16 242.616 395.776C243.256 395.381 243.971 395.184 244.76 395.184C245.4 395.184 245.966 395.301 246.456 395.536C246.958 395.76 247.379 396.069 247.72 396.464C248.072 396.848 248.339 397.291 248.52 397.792C248.712 398.283 248.808 398.795 248.808 399.328C248.808 399.445 248.798 399.579 248.776 399.728C248.766 399.867 248.75 400 248.728 400.128H241.656V398.848H247.864L247.16 399.424C247.256 398.869 247.203 398.373 247 397.936C246.798 397.499 246.499 397.152 246.104 396.896C245.71 396.64 245.262 396.512 244.76 396.512C244.259 396.512 243.8 396.64 243.384 396.896C242.968 397.152 242.643 397.52 242.408 398C242.184 398.469 242.094 399.029 242.136 399.68C242.094 400.309 242.19 400.864 242.424 401.344C242.67 401.813 243.011 402.181 243.448 402.448C243.896 402.704 244.382 402.832 244.904 402.832C245.48 402.832 245.966 402.699 246.36 402.432C246.755 402.165 247.075 401.824 247.32 401.408L248.568 402.048C248.398 402.443 248.131 402.805 247.768 403.136C247.416 403.456 246.995 403.712 246.504 403.904C246.024 404.096 245.486 404.192 244.888 404.192Z" fill="#242E49"/>
</svg>
