<svg width="280" height="420" viewBox="0 0 280 420" fill="none" xmlns="http://www.w3.org/2000/svg">
<path d="M194.478 225.308C190.755 221.619 186.525 218.619 181.879 216.337C187.495 212.253 192.287 206.921 196.101 200.433C209.519 177.625 206.988 146.879 200.74 127.48C198.494 120.518 192.967 115.215 186.088 113.435C179.209 111.655 171.921 113.629 166.775 118.674C162.809 122.564 158.898 125.327 154.578 127.38C158.066 119.341 160.562 110.191 161.131 99.9997C162.545 74.5505 151.603 49.7185 128.601 26.1998C123.768 21.255 116.917 19.0732 110.225 20.365C103.547 21.6497 97.8885 26.2357 95.0939 32.6447C92.4935 38.6015 88.1941 43.6252 83.2152 49.4385C73.2226 61.1081 59.5272 77.0911 61.6006 104.356C62.5853 116.499 66.3923 128.384 72.2796 138.819C65.9138 135.784 60.179 132.769 56.1917 129.418C51.3792 125.363 45.048 123.762 38.9804 125.033C32.8989 126.31 27.6842 130.336 24.7717 136.013C7.58123 169.501 16.4365 208.866 44.6112 228.66C18.822 238.801 1.50661 264.171 0.0226393 297.127C-0.24087 302.969 1.80483 308.668 5.69505 312.909C9.57834 317.151 14.9664 319.569 20.618 319.612C21.1589 319.612 75.6914 320 125.155 320H125.169C162.989 320 188.154 319.777 199.977 319.34C205.622 319.132 210.941 316.555 214.706 312.199C218.472 307.842 220.365 302.094 219.942 296.266C218.208 272.367 209.471 239.927 194.492 225.308H194.478ZM20.7428 298.132C22.4903 259.391 51.6219 239.411 83.9642 246.868C92.5629 248.619 98.3601 249.157 103.547 248.611C104.629 236.561 105.808 224.504 106.938 212.426C103.658 218.038 91.9388 231.251 60.0542 213.28C36.8585 200.203 30.5481 170.527 43.0925 146.09C64.0761 163.738 104.261 167.527 108.276 197.641C109.698 181.414 110.849 165.159 111.383 148.896C111.182 149.039 111.05 149.14 111.05 149.14C94.8165 140.743 83.7561 120.884 82.2721 102.569C80.067 73.5529 103.672 65.1487 113.997 41.4794C168.474 97.1864 123.705 138.963 113.165 147.503C112.791 157.896 112.222 168.266 111.494 178.63C113.144 168.065 120.481 156.338 134.003 154.508C152.809 151.96 167.018 148.02 181.033 134.277C189.146 159.475 186.837 199.134 157.06 203.943C117.36 210.366 111.549 185.247 111.154 183.273C109.559 204.976 107.437 226.65 105.496 248.346C112.139 247.269 118.193 244.341 128.539 239.755C143.399 233.361 166.13 226.959 180.117 240.817C188.862 249.351 197.474 273.702 199.222 297.866C164.515 299.151 20.7358 298.125 20.7358 298.125L20.7428 298.132Z" fill="white"/>
<path d="M111.39 131.635C107.758 129.756 106.386 123.312 103.45 120.281C98.694 115.357 93.876 109.914 87.8173 106.796C86.7007 106.22 87.6794 104.485 88.7891 105.061C95.8266 108.683 103.719 116.048 108.013 122.873C109.171 124.709 110.019 126.581 111.018 128.496C111.115 128.676 111.253 128.748 111.37 128.856C111.356 125.904 111.397 122.952 111.328 120.008C111.218 115.249 111.204 110.483 111.246 105.709C107.544 101.843 105.821 96.7171 100.996 93.3406C97.1225 90.6263 93.0903 88.1784 89.2923 85.349C88.286 84.6003 89.2509 82.8508 90.2642 83.6068C96.6675 88.3729 103.753 91.9366 109.019 98.1714C109.888 99.1937 110.653 100.511 111.287 101.778C111.363 95.9036 111.508 90.0288 111.694 84.154C110.646 83.4988 109.867 82.3397 109.047 81.2597C105.987 77.2352 102.423 74.0674 98.0806 71.5548C96.9916 70.9212 97.9634 69.1861 99.0524 69.8125C104.505 72.9731 107.524 77.2424 111.777 81.5981C112.045 73.8658 112.349 66.1336 112.631 58.4301C112.679 57.1342 114.609 57.127 114.561 58.4301C114.265 66.3856 114.058 74.3337 113.879 82.282C115.76 81.5549 117.787 78.1063 118.766 77.0768C121.254 74.4634 124.735 73.0019 127.402 70.5469C128.326 69.6901 129.698 71.1156 128.767 71.9723C125.493 74.9817 121.523 76.868 118.635 80.3166C117.566 81.5909 115.719 84.226 113.837 84.6075C113.7 91.0007 113.589 97.4011 113.513 103.787C116.553 103.917 121.599 98.8913 122.081 98.4954C125.679 95.5939 129.698 93.1677 133.461 90.4895C134.495 89.7551 135.453 91.5047 134.433 92.2318C132.282 93.7653 118.8 105.796 113.472 106.616C113.396 113.398 113.341 120.188 113.307 126.977C113.307 127.596 113.279 128.215 113.272 128.841C114.885 127.985 116.719 125.846 117.222 125.357C120.944 121.678 124.425 117.884 127.761 113.823C128.574 112.837 129.925 114.27 129.126 115.249C127.485 117.243 118.256 130.094 113.224 131.685C113.155 136.919 113.038 142.139 112.852 147.358C123.329 138.791 167.835 96.8827 113.679 41C103.416 64.744 79.9457 73.1674 82.1445 102.282C83.6195 120.663 94.6135 140.577 110.749 149C110.749 149 110.887 148.899 111.08 148.755C111.266 143.046 111.363 137.337 111.377 131.628L111.39 131.635Z" fill="#5AA246"/>
<path d="M122.969 178.959C122.538 173.518 128.78 163.761 129.988 160.764C130.467 159.582 132.341 160.101 131.862 161.297C130.217 165.368 128.28 169.274 126.69 173.374C125.864 175.514 125.607 177.172 125.912 178.591C130.793 177.885 135.618 176.826 140.29 175.377C140.131 175.154 140.047 174.88 140.145 174.563C142.068 168.179 146.469 162.897 147.351 156.159C147.517 154.869 149.392 155.424 149.225 156.699C148.774 160.201 147.566 163.199 145.942 166.283C144.775 168.488 143.289 170.874 142.574 173.273C142.429 173.735 142.616 174.138 142.977 174.484C148.531 172.553 153.821 170.009 158.688 166.781C159.32 161.426 161.153 156.353 162.208 151.086C162.465 149.81 164.339 150.351 164.082 151.626C163.152 156.224 161.611 160.691 160.854 165.325C167.297 160.648 172.892 154.667 177.169 147.108C177.808 145.991 179.481 147 178.849 148.124C174.565 155.669 169.011 161.693 162.624 166.449C168.053 166.406 173.427 165.736 178.842 165.102C180.085 164.958 180.071 166.975 178.842 167.119C172.469 167.869 166.151 168.719 159.722 168.46C155.272 171.407 150.496 173.814 145.469 175.702C146.268 175.947 146.997 176.113 147.295 176.213C155.515 178.887 163.943 180.35 172.476 181.481C173.698 181.647 173.718 183.665 172.476 183.499C162.381 182.158 152.356 180.422 142.845 176.61C137.645 178.375 132.237 179.651 126.753 180.479C127.468 181.474 128.558 182.375 130.113 183.29C138.395 188.176 147.261 191.512 156.293 194.546C157.48 194.942 156.973 196.895 155.779 196.491C144.879 192.831 133.737 188.839 124.364 181.827C124.024 181.568 123.767 181.258 123.552 180.905C119.428 181.402 115.277 181.697 111.167 181.769C111.139 181.769 111.132 181.748 111.111 181.741C111.076 182.223 111.042 182.706 111 183.196C111.396 185.171 117.213 210.392 156.959 203.95C186.77 199.114 189.089 159.293 180.959 134C166.929 147.793 152.703 151.756 133.875 154.314C120.338 156.152 112.992 167.926 111.34 178.534C111.312 178.937 111.285 179.341 111.257 179.752C115.145 179.687 119.067 179.413 122.976 178.952L122.969 178.959Z" fill="#5AA246"/>
<path d="M162.911 166.989C169.191 162.187 174.651 156.121 178.862 148.514C179.483 147.381 177.839 146.364 177.211 147.49C172.999 155.111 167.498 161.141 161.171 165.856C161.109 166.234 161.048 166.611 161 166.989C161.642 167.004 162.276 167.004 162.918 166.989H162.911Z" fill="#173B07"/>
<path d="M124 181.074C123.652 180.485 123.449 179.788 123.391 179C119.316 179.49 115.22 179.781 111.152 179.849C111.101 180.554 111.051 181.258 111 181.969C111.022 181.969 111.029 182 111.058 182C115.357 181.923 119.686 181.61 123.993 181.082L124 181.074Z" fill="#173B07"/>
<path d="M159.993 168.692C159.937 168.692 159.873 168.692 159.817 168.692C159.324 168.671 158.774 168.242 158.83 167.676C158.859 167.45 158.915 167.232 158.943 167C154.005 170.254 148.636 172.818 143 174.765C143.578 175.31 144.606 175.709 145.536 176C150.637 174.097 155.484 171.663 160 168.7L159.993 168.692Z" fill="#173B07"/>
<path d="M143 176.456C142.324 176.143 141.641 175.846 140.972 175.499C140.763 175.389 140.574 175.212 140.435 175C135.744 176.701 130.9 177.945 126 178.774C126.146 179.578 126.418 180.315 126.843 181C132.35 180.027 137.779 178.529 143 176.456Z" fill="#173B07"/>
<path d="M159.973 168.953C160.035 168.953 160.09 168.953 160.145 168.953C166.506 169.21 172.77 168.367 179.082 167.623C180.299 167.48 180.313 165.479 179.082 165.622C173.726 166.258 168.403 166.923 163.02 166.959C162.373 166.959 161.734 166.966 161.087 166.959C161.136 166.587 161.204 166.215 161.259 165.844C162.009 161.248 163.535 156.816 164.457 152.256C164.711 150.998 162.854 150.455 162.6 151.72C161.548 156.945 159.733 161.977 159.114 167.287C159.086 167.516 159.031 167.731 159.004 167.952C158.949 168.51 159.485 168.931 159.967 168.953H159.973Z" fill="#173B07"/>
<path d="M140.722 176.312C141.383 176.606 142.064 176.858 142.724 177.124C152.148 180.924 162.075 182.655 172.084 183.991C173.316 184.149 173.295 182.145 172.084 181.98C163.63 180.852 155.278 179.394 147.134 176.728C146.838 176.628 146.115 176.463 145.324 176.218C144.416 175.931 143.419 175.536 142.848 174.997C142.49 174.652 142.304 174.25 142.449 173.79C143.164 171.405 144.636 169.027 145.785 166.822C147.388 163.74 148.585 160.759 149.039 157.268C149.204 155.996 147.347 155.45 147.182 156.729C146.315 163.439 141.954 168.704 140.041 175.076C139.945 175.392 140.027 175.665 140.186 175.888C140.323 176.068 140.502 176.218 140.715 176.312H140.722Z" fill="#173B07"/>
<path d="M124.416 182.062C133.781 189.178 144.916 193.229 155.808 196.944C157.001 197.354 157.515 195.379 156.322 194.97C147.296 191.891 138.437 188.505 130.16 183.546C128.606 182.618 127.517 181.703 126.802 180.694C126.379 180.102 126.108 179.458 125.963 178.771C125.657 177.337 125.914 175.648 126.74 173.476C128.328 169.307 130.264 165.351 131.908 161.219C132.394 160.005 130.514 159.478 130.035 160.677C128.828 163.72 122.591 173.622 123.021 179.144C123.077 179.897 123.271 180.57 123.604 181.126C123.812 181.477 124.076 181.798 124.416 182.062Z" fill="#173B07"/>
<path d="M106.306 211.577C102.265 211.134 98.293 210.255 94.4033 209.061C92.4482 210.798 88.7512 211.02 86.5551 211.377C81.502 212.199 76.4007 212.793 71.2856 212.857C70.0395 212.871 70.0464 210.87 71.2856 210.855C76.2148 210.791 81.1922 210.319 86.0388 209.447C88.0559 209.082 90.073 208.889 91.5601 208.139C86.4518 206.316 81.5295 203.899 76.9169 200.94C76.7724 201.04 76.6209 201.147 76.4144 201.168C67.9122 201.948 59.2654 198.016 50.7769 197.744C49.5377 197.708 49.5308 195.699 50.7769 195.742C58.6045 195.985 66.6317 199.474 74.4593 199.253C68.6901 195.22 63.458 190.381 58.9694 184.89C57.1175 185.462 54.4945 183.947 52.9593 183.36C49.1385 181.888 45.0354 180.615 40.9942 180.029C39.7688 179.85 40.292 177.92 41.5106 178.099C45.1317 178.635 48.6427 179.822 52.1331 180.951C52.9111 181.201 55.4033 182.524 57.1863 182.696C51.7339 175.511 47.5412 167.34 45.0835 158.611C44.7393 157.367 46.5981 156.845 46.9424 158.082C49.3657 166.675 53.5514 174.732 58.99 181.816C59.0038 181.788 59.0244 181.78 59.0313 181.752C60.3049 176.29 60.4426 171.021 62.4804 165.681C62.9279 164.494 64.7936 165.016 64.3392 166.217C62.7558 170.378 61.9916 174.567 61.4753 178.985C61.3307 180.222 61.2068 182.267 60.4564 183.632C64.8487 188.994 69.9637 193.741 75.6158 197.68C75.6984 196.622 75.9256 195.292 75.9945 194.591C76.2698 191.853 76.5452 189.115 76.8412 186.384C77.2474 182.588 77.6192 178.778 78.2388 175.01C78.4453 173.745 80.3041 174.281 80.0975 175.539C78.8308 183.282 78.2044 191.174 77.4884 198.995C82.4383 202.219 87.753 204.793 93.2743 206.652C93.7286 205.922 93.9903 204.964 93.9834 203.671C93.9696 196.8 92.3312 190.102 92.1177 183.267C92.0764 181.974 94.004 181.981 94.0453 183.267C94.183 187.7 95.0986 192.111 95.5117 196.529C95.7871 199.474 96.7509 204.307 95.5255 207.388C99.0572 208.432 102.658 209.197 106.313 209.597C106.561 209.626 106.719 209.761 106.871 209.912C107.263 205.722 107.635 201.54 108 197.351C104.014 167.354 64.112 163.572 43.2867 146C30.8328 170.342 37.1045 199.903 60.1259 212.928C91.7803 230.829 103.415 217.668 106.671 212.078C106.692 211.87 106.713 211.663 106.726 211.463C106.602 211.52 106.499 211.62 106.313 211.606L106.306 211.577Z" fill="#5AA246"/>
<path d="M96.074 208C95.9812 208.244 95.8951 208.495 95.7691 208.706C95.5702 209.052 95.305 209.344 95 209.608C98.7392 210.742 102.571 211.576 106.463 211.997C106.642 212.018 106.735 211.923 106.861 211.861C106.907 211.366 106.954 210.884 107 210.396C106.861 210.26 106.702 210.124 106.463 210.097C102.949 209.717 99.4751 208.991 96.074 208Z" fill="#173B07"/>
<path d="M59 182.114C53.5414 175.117 49.3403 167.175 46.9081 158.697C46.5626 157.477 44.697 157.992 45.0425 159.219C47.5092 167.831 51.7172 175.893 57.1897 182.982C58.0741 183.066 58.7789 182.869 59 182.114Z" fill="#173B07"/>
<path d="M75.7302 198.382C70.0566 194.35 64.9089 189.489 60.4945 184C60.2454 184.454 59.941 184.842 59.5328 185.083C59.3667 185.186 59.1799 185.237 59 185.296C63.5112 190.917 68.7697 195.879 74.5678 200C75.0452 199.985 75.5226 200 76 199.963C75.6817 199.993 75.6541 199.283 75.7302 198.382Z" fill="#173B07"/>
<path d="M93 206.525C87.5948 204.698 82.3918 202.169 77.546 199C77.5123 199.386 77.4785 199.78 77.4448 200.166C77.4111 200.518 77.2359 200.756 77 200.925C81.5156 203.834 86.3345 206.208 91.3353 208C92.0228 207.656 92.5956 207.185 93 206.517V206.525Z" fill="#173B07"/>
<path d="M60.0652 183.615C60.812 182.257 60.9285 180.213 61.0792 178.969C61.5931 174.552 62.3537 170.363 63.9296 166.203C64.3818 165.002 62.5249 164.487 62.0796 165.667C60.0514 171.006 59.9144 176.274 58.6468 181.735C58.6468 181.764 58.6195 181.771 58.6058 181.8C58.3865 182.564 57.6876 182.765 56.8106 182.679C55.036 182.514 52.5556 181.185 51.7814 180.935C48.3075 179.805 44.82 178.619 41.2092 178.083C39.9964 177.904 39.4757 179.834 40.6953 180.013C44.7173 180.606 48.8009 181.878 52.6036 183.344C54.1316 183.93 56.7421 185.445 58.5852 184.873C58.7633 184.816 58.9483 184.766 59.1128 184.666C59.517 184.423 59.8185 184.051 60.0652 183.608V183.615Z" fill="#173B07"/>
<path d="M77.2958 200.865C77.3299 200.457 77.3641 200.042 77.3982 199.634C78.1078 191.521 78.7287 183.333 79.9842 175.302C80.1889 173.997 78.3466 173.433 78.1419 174.753C77.5278 178.661 77.1661 182.614 76.7567 186.552C76.4633 189.385 76.1904 192.225 75.9175 195.066C75.8493 195.8 75.6241 197.172 75.5423 198.27C75.4672 199.182 75.4944 199.901 75.8083 199.871C75.3443 199.916 74.8667 199.901 74.3959 199.908C66.6378 200.146 58.6818 196.527 50.9237 196.267C49.6887 196.23 49.6955 198.307 50.9237 198.344C59.3368 198.618 67.9069 202.697 76.3337 201.896C76.5384 201.874 76.6885 201.762 76.8318 201.659C77.0706 201.481 77.248 201.229 77.2821 200.858L77.2958 200.865Z" fill="#173B07"/>
<path d="M95.071 208.343C95.203 208.118 95.2933 207.859 95.3906 207.613C96.6204 204.591 95.6546 199.849 95.3767 196.96C94.9598 192.632 94.0357 188.298 93.8968 183.949C93.8551 182.687 91.9097 182.68 91.9514 183.949C92.1598 190.654 93.8204 197.226 93.8342 203.966C93.8342 205.236 93.5702 206.176 93.1186 206.891C92.6948 207.557 92.1111 208.027 91.4024 208.371C89.8947 209.107 87.8659 209.297 85.8301 209.654C80.9387 210.51 75.9154 210.973 70.9406 211.036C69.6899 211.05 69.683 213.014 70.9406 213C76.103 212.93 81.2514 212.355 86.3512 211.548C88.5746 211.197 92.3057 210.973 94.272 209.276C94.5916 209.002 94.8695 208.701 95.078 208.343H95.071Z" fill="#173B07"/>
<path d="M111.613 183.547C111.654 183.058 111.689 182.576 111.724 182.095C111.772 181.426 111.821 180.764 111.869 180.103C111.897 179.7 111.932 179.29 111.953 178.888C112.674 168.505 113.25 158.115 113.625 147.704C113.813 142.491 113.931 137.271 114 132.05C113.327 132.259 112.716 132.288 112.216 132.05C112.189 132.036 112.168 132.014 112.14 132C112.126 137.702 112.036 143.404 111.842 149.106C111.307 165.399 110.148 181.678 108.733 197.942C108.365 202.155 107.99 206.362 107.595 210.575C107.546 211.093 107.498 211.611 107.449 212.128C107.435 212.337 107.414 212.538 107.393 212.747C106.255 224.848 105.083 236.928 104 249C104.659 248.928 105.312 248.842 105.957 248.741C107.9 227.005 110.024 205.29 111.62 183.547H111.613Z" fill="#173B07"/>
<path d="M114.264 82.8642C114.457 74.9039 114.687 66.9364 114.999 58.9761C115.051 57.671 112.972 57.6782 112.92 58.9761C112.616 66.6984 112.282 74.4425 112 82.1792C112.111 82.2802 112.215 82.3884 112.327 82.4893C112.921 83.0445 113.589 83.1093 114.264 82.8642Z" fill="#173B07"/>
<path d="M113.823 128.69C113.823 128.083 113.847 127.469 113.853 126.862C113.884 120.207 113.933 113.552 114 106.903C113.359 107.016 112.846 106.932 112.51 106.586C112.333 106.395 112.18 106.191 112.015 106C111.984 110.672 111.997 115.344 112.088 120.016C112.149 122.91 112.119 125.804 112.125 128.69C112.565 129.128 113.157 129.078 113.817 128.69H113.823Z" fill="#173B07"/>
<path d="M113.746 104C113.805 97.497 113.892 90.9795 114 84.4692C113.903 84.4985 113.805 84.5425 113.708 84.5425C113.162 84.5718 112.724 84.3226 112.319 84C112.173 89.9824 112.054 95.9648 112 101.947C112.097 102.211 112.222 102.468 112.314 102.724C112.632 103.611 113.141 103.971 113.751 104H113.746Z" fill="#173B07"/>
<path d="M113.987 84.9185C115.841 84.5372 117.66 81.904 118.712 80.6306C121.556 77.1773 125.473 75.2996 128.691 72.2924C129.614 71.429 128.263 70.0118 127.347 70.8679C124.72 73.3212 121.285 74.7816 118.841 77.3931C117.884 78.4219 115.888 81.868 114.028 82.5947C113.41 82.8393 112.806 82.7818 112.256 82.2206C112.155 82.1199 112.059 82.0119 111.958 81.9112C107.762 77.5586 104.796 73.2924 99.4265 70.1341C98.354 69.5082 97.3968 71.242 98.4693 71.8751C102.739 74.386 106.256 77.5443 109.269 81.5731C110.084 82.6523 110.851 83.8106 111.876 84.4653C112.385 84.789 112.942 85.0264 113.621 84.9976C113.743 84.9976 113.865 84.9472 113.987 84.9256V84.9185Z" fill="#173B07"/>
<path d="M113.608 106.944C118.936 106.133 132.416 94.2361 134.566 92.7197C135.586 91.9935 134.621 90.2706 133.594 90.9967C129.838 93.6452 125.814 96.0444 122.216 98.9135C121.727 99.3051 116.682 104.274 113.65 104.146C112.878 104.118 112.223 103.762 111.817 102.908C111.706 102.665 111.548 102.409 111.417 102.153C110.776 100.9 110.018 99.597 109.149 98.5861C103.877 92.4207 96.7926 88.8966 90.3971 84.1835C89.384 83.436 88.4191 85.1659 89.4253 85.9063C93.2295 88.7043 97.2544 91.1321 101.127 93.809C105.952 97.148 107.675 102.21 111.375 106.04C111.562 106.232 111.734 106.439 111.934 106.631C112.306 106.987 112.892 107.065 113.615 106.951L113.608 106.944Z" fill="#173B07"/>
<path d="M129.748 115.351C130.572 114.368 129.184 112.931 128.352 113.921C124.941 117.994 121.383 121.801 117.577 125.492C117.063 125.99 115.188 128.135 113.539 128.988C112.778 129.385 112.094 129.443 111.587 128.988C111.46 128.879 111.319 128.807 111.228 128.627C110.213 126.705 109.339 124.827 108.155 122.985C103.765 116.138 95.6958 108.749 88.5007 105.116C87.3661 104.538 86.3584 106.286 87.5071 106.856C93.7015 109.984 98.6274 115.445 103.49 120.385C106.485 123.426 107.894 129.891 111.608 131.776C111.636 131.79 111.658 131.812 111.686 131.826C112.186 132.072 112.806 132.043 113.497 131.826C118.641 130.23 128.077 117.337 129.755 115.336L129.748 115.351Z" fill="#173B07"/>
<path d="M128.51 240.196C118.192 244.786 112.154 247.709 105.529 248.794C104.886 248.894 104.236 248.98 103.579 249.052C98.4061 249.598 92.6246 249.052 84.0493 247.307C51.7951 239.844 22.7427 259.84 21 298.611C21 298.611 164.388 299.639 199 298.353C197.257 274.169 188.661 249.799 179.948 241.259C165.992 227.39 143.33 233.797 128.51 240.196ZM29.5339 284.692C29.5339 283.873 29.5062 283.083 29.3056 282.278C28.9944 281.022 30.8617 280.49 31.1729 281.747C31.4149 282.717 31.4633 283.686 31.4702 284.692C31.4702 285.985 29.5408 285.985 29.5339 284.692ZM40.502 284.153C40.502 285.453 38.5656 285.453 38.5656 284.153V279.599C38.5656 278.307 40.502 278.307 40.502 279.599V284.153ZM42.4383 272.094V269.68C42.4383 268.387 44.3678 268.387 44.3678 269.68V272.094C44.3678 273.387 42.4383 273.387 42.4383 272.094ZM44.2778 288.448C44.0427 286.753 43.9804 285.065 43.9804 283.356C43.9804 282.063 45.9168 282.063 45.9168 283.356C45.9168 284.886 45.9306 286.401 46.145 287.917C46.3248 289.188 44.4577 289.727 44.2778 288.455V288.448ZM49.5337 271.562C49.5337 271.562 49.4991 271.605 49.4922 271.641C49.4646 271.806 49.4231 272 49.4162 272.051C49.3608 272.438 49.3054 272.819 49.257 273.207C49.174 273.904 49.0496 274.608 49.0219 275.311C48.9666 276.604 47.0302 276.604 47.0855 275.311C47.1478 273.889 47.1685 271.749 47.784 270.456C48.2197 269.522 49.5752 270.018 49.589 270.966L49.5406 271.562H49.5337ZM53.3718 285.496C53.1298 286.767 51.2625 286.229 51.5046 284.965C51.7605 283.629 52.0163 282.286 52.2791 280.95C52.5281 279.678 54.3884 280.217 54.1464 281.481C53.8836 282.824 53.6277 284.16 53.3718 285.503V285.496ZM53.8282 272.094C53.5239 271.045 53.3304 269.975 53.2819 268.876C53.2197 267.583 55.156 267.59 55.2183 268.876C55.2597 269.802 55.4465 270.679 55.6955 271.555C56.062 272.798 54.1947 273.329 53.8282 272.094ZM57.2722 264.861C57.2722 266.154 55.3358 266.154 55.3358 264.861V262.986C55.3358 261.686 57.2722 261.686 57.2722 262.986V264.861ZM60.7922 290.862C60.3012 289.274 60.0177 287.708 59.99 286.042C59.9624 284.742 61.8987 284.749 61.9264 286.042C61.9541 287.536 62.2307 288.908 62.6663 290.323C63.0467 291.565 61.1726 292.09 60.7992 290.862H60.7922ZM60.239 274.78C60.0799 273.494 62.0163 273.509 62.1754 274.78C62.3828 276.475 62.203 278.163 62.1754 279.872C62.1546 281.165 60.2251 281.172 60.239 279.872C60.2666 278.17 60.4464 276.475 60.239 274.78ZM63.7244 268.344C63.7244 269.644 61.788 269.644 61.788 268.344V264.064C61.788 262.764 63.7244 262.764 63.7244 264.064V268.344ZM69.0563 285.23C68.7935 283.356 68.5377 281.481 68.2818 279.607C68.1089 278.335 69.9762 277.797 70.149 279.068C70.4118 280.95 70.6677 282.824 70.9236 284.699C71.0965 285.97 69.2361 286.516 69.0563 285.23ZM70.3081 270.226C70.3081 268.337 70.2804 266.47 70.0453 264.595C69.8931 263.317 71.8225 263.331 71.9816 264.595C72.2098 266.47 72.2444 268.337 72.2444 270.226C72.2444 271.519 70.3081 271.519 70.3081 270.226ZM74.5612 262.182C74.5612 263.482 72.6248 263.482 72.6248 262.182V258.16C72.6248 256.867 74.5612 256.867 74.5612 258.16V262.182ZM75.3357 291.637C74.6718 290.495 74.5058 289.447 74.983 288.182C75.4394 286.99 77.3066 287.514 76.8502 288.714C76.5874 289.418 76.6289 289.964 77.0092 290.617C77.6524 291.731 75.9858 292.743 75.3357 291.63V291.637ZM76.7534 280.145C76.7534 278.795 76.7534 277.459 76.5321 276.123C76.3246 274.852 78.1918 274.313 78.3993 275.592C78.6482 277.107 78.6898 278.608 78.6898 280.145C78.6898 281.438 76.7534 281.438 76.7534 280.145ZM80.4947 268.617C80.4947 269.91 78.5583 269.91 78.5583 268.617V264.064C78.5583 262.764 80.4947 262.764 80.4947 264.064V268.617ZM84.8861 288.958C84.2706 287.507 84.0217 286.013 83.9802 284.433C83.9525 283.133 85.8819 283.14 85.9165 284.433C85.9442 285.633 86.0894 286.839 86.5597 287.945C87.0576 289.116 85.3909 290.143 84.8861 288.958ZM85.0106 278.802C84.7755 276.848 84.7617 274.881 84.7617 272.905C84.7617 271.612 86.698 271.612 86.698 272.905C86.698 274.881 86.7118 276.848 86.9538 278.802C87.1129 280.088 85.1766 280.073 85.0175 278.802H85.0106ZM85.6606 264.301C85.0175 262.799 84.8238 261.406 85.0451 259.776C85.2249 258.497 87.0853 259.043 86.9124 260.314C86.7672 261.37 86.9124 262.333 87.3342 263.295C87.8321 264.473 86.1724 265.493 85.6606 264.308V264.301ZM91.7256 268.617C91.7256 267.324 93.6551 267.324 93.662 268.617C93.662 270.162 93.662 271.699 94.1461 273.171C94.5541 274.399 92.6869 274.924 92.2789 273.71C91.7395 272.065 91.7325 270.334 91.7325 268.617H91.7256ZM91.9815 279.607C91.9815 278.314 93.9179 278.314 93.9179 279.607V283.09C93.9179 284.39 91.9815 284.39 91.9815 283.09V279.607ZM93.0465 290.33C92.763 289.087 92.5486 287.823 92.272 286.581C91.9884 285.317 93.8556 284.785 94.1391 286.049C94.4227 287.292 94.6301 288.556 94.9137 289.799C95.1972 291.063 93.33 291.594 93.0465 290.33ZM98.4683 279.075C98.2193 277.294 98.1778 275.52 98.1778 273.717C98.1778 272.424 100.114 272.424 100.114 273.717C100.114 275.333 100.114 276.942 100.335 278.544C100.508 279.815 98.6412 280.361 98.4683 279.082V279.075ZM100.273 266.211C100.052 264.875 99.9828 263.554 99.9828 262.189C99.9828 260.896 101.912 260.896 101.912 262.189C101.919 263.367 101.947 264.509 102.14 265.68C102.355 266.951 100.488 267.49 100.273 266.211ZM101.566 289.001C101.297 287.838 101.062 286.674 100.792 285.511C100.501 284.254 102.369 283.715 102.659 284.979C102.929 286.143 103.164 287.306 103.434 288.463C103.731 289.72 101.864 290.258 101.566 289.001ZM106.829 282.271C106.013 280.483 105.488 278.63 105.176 276.676C104.976 275.405 106.843 274.859 107.044 276.137C107.313 277.919 107.749 279.628 108.496 281.266C109.028 282.429 107.362 283.449 106.822 282.278L106.829 282.271ZM110.315 271.045C110.315 269.695 110.308 268.352 110.093 267.023C109.893 265.752 111.753 265.213 111.961 266.484C112.203 268 112.251 269.508 112.251 271.045C112.251 272.338 110.322 272.338 110.322 271.045H110.315ZM115.052 288.197C115.225 289.468 113.364 290.007 113.185 288.728C112.977 287.198 113.115 285.712 113.15 284.175C113.178 282.882 115.114 282.882 115.086 284.175C115.059 285.511 114.865 286.868 115.052 288.197ZM116.027 267.023C115.508 265.543 115.252 264.035 115.225 262.469C115.19 261.176 117.127 261.176 117.154 262.469C117.189 263.87 117.431 265.177 117.894 266.491C118.323 267.712 116.456 268.237 116.027 267.03V267.023ZM116.511 278.278C116.511 277.014 116.49 275.778 116.283 274.528C116.075 273.257 117.943 272.718 118.15 273.99C118.385 275.419 118.447 276.834 118.447 278.278C118.447 279.578 116.511 279.578 116.511 278.278ZM124.381 288.197C124.381 289.49 122.445 289.49 122.445 288.197V284.706C122.445 283.413 124.381 283.413 124.381 284.706V288.197ZM124.803 276.669C124.568 275.426 124.519 274.184 124.512 272.912C124.512 271.62 126.442 271.62 126.449 272.912C126.449 274.004 126.463 275.06 126.67 276.13C126.919 277.394 125.052 277.933 124.803 276.669ZM125.577 265.141C125.308 263.726 125.294 262.297 125.287 260.853C125.287 259.56 127.223 259.56 127.223 260.853C127.223 262.11 127.209 263.374 127.445 264.609C127.694 265.881 125.826 266.419 125.577 265.148V265.141ZM133.544 278.278V273.185C133.544 271.893 135.48 271.893 135.48 273.185V278.278C135.48 279.578 133.544 279.578 133.544 278.278ZM135.992 290.603C135.992 291.903 134.056 291.903 134.056 290.603C134.056 288.894 134.111 287.206 134.346 285.511C134.519 284.232 136.386 284.778 136.213 286.049C136.006 287.565 135.992 289.08 135.992 290.603ZM134.346 261.923C134.111 260.228 134.056 258.547 134.056 256.831C134.056 255.538 135.992 255.538 135.992 256.831C135.992 258.354 136.006 259.876 136.213 261.392C136.386 262.663 134.519 263.202 134.346 261.923ZM138.987 270.772C138.496 269.02 138.44 267.224 138.44 265.414C138.44 264.121 140.37 264.121 140.377 265.414C140.377 267.059 140.411 268.653 140.861 270.241C141.213 271.483 139.346 272.015 138.994 270.772H138.987ZM142.852 283.104C142.396 280.878 142.541 278.666 142.562 276.403C142.576 275.11 144.512 275.103 144.498 276.403C144.478 278.472 144.298 280.526 144.72 282.566C144.982 283.83 143.115 284.369 142.852 283.104ZM141.787 255.761C141.76 254.468 143.696 254.468 143.717 255.761C143.752 257.291 144.007 258.684 144.616 260.077C145.135 261.248 143.461 262.268 142.942 261.09C142.182 259.366 141.822 257.65 141.781 255.753L141.787 255.761ZM149.014 262.462V258.713C149.014 257.413 150.951 257.413 150.951 258.713V262.462C150.951 263.762 149.014 263.762 149.014 262.462ZM151.953 290.064C151.753 291.343 149.893 290.797 150.086 289.533C150.335 287.931 150.536 286.337 150.563 284.706C150.591 283.413 152.527 283.413 152.5 284.706C152.465 286.509 152.23 288.29 151.953 290.064ZM153.018 276.13C153.018 277.423 151.082 277.423 151.082 276.13V272.381C151.082 271.088 153.018 271.088 153.018 272.381V276.13ZM159.955 264.337C159.478 266.276 159.471 268.251 159.471 270.233C159.471 271.526 157.534 271.526 157.534 270.233C157.534 268.064 157.569 265.91 158.087 263.798C158.392 262.541 160.259 263.072 159.955 264.329V264.337ZM159.858 257.908C159.83 255.696 159.623 253.606 158.44 251.717C157.749 250.625 159.429 249.62 160.107 250.704C161.469 252.873 161.767 255.366 161.787 257.915C161.801 259.208 159.865 259.208 159.851 257.915L159.858 257.908ZM161.179 284.175C160.639 282.164 160.861 280.073 160.881 278.005C160.895 276.712 162.832 276.712 162.818 278.005C162.804 279.872 162.555 281.812 163.046 283.636C163.378 284.886 161.511 285.417 161.179 284.167V284.175ZM165.563 276.669C164.775 274.435 164.996 272.029 165.017 269.695C165.024 268.402 166.96 268.402 166.953 269.695C166.933 271.849 166.697 274.069 167.43 276.13C167.866 277.351 165.992 277.876 165.563 276.669ZM167.085 261.392V256.565C167.085 255.272 169.021 255.272 169.021 256.565V261.392C169.021 262.685 167.085 262.685 167.085 261.392ZM168.668 290.337C168.205 288.111 168.35 285.898 168.378 283.636C168.392 282.343 170.328 282.336 170.314 283.636C170.293 285.705 170.114 287.759 170.535 289.806C170.798 291.07 168.931 291.608 168.668 290.337ZM174.955 280.425C174.955 281.718 173.018 281.718 173.018 280.425C173.018 278.45 173.032 276.489 173.281 274.528C173.433 273.264 175.369 273.243 175.217 274.528C174.975 276.489 174.961 278.45 174.955 280.425ZM176.144 271.311C175.861 269.17 175.625 267.037 175.598 264.875C175.584 263.582 177.513 263.582 177.534 264.875C177.562 266.85 177.755 268.811 178.011 270.772C178.177 272.043 176.317 272.589 176.144 271.311ZM181.925 290.876C181.925 292.176 179.989 292.176 179.989 290.876C180.003 288.017 180.217 285.159 179.989 282.3C179.878 281.007 181.822 281.014 181.925 282.3C182.161 285.151 181.946 288.017 181.925 290.876ZM185.445 281.496C181.393 261.377 167.915 238.336 144.312 247.889C135.328 251.523 124.865 258.519 114.983 259.287C100.571 260.408 86.94 252.845 72.687 254.511C58.0122 256.227 42.5351 261.564 34.4301 275.304C33.78 276.41 32.1064 275.398 32.7634 274.291C39.4923 262.893 51.8158 256.12 64.3399 253.778C84.6302 249.986 105.384 262.922 124.727 254.461C136.746 249.196 153.26 238.077 166.511 246.38C178.813 254.087 184.45 266.75 187.32 280.971C187.575 282.235 185.708 282.774 185.452 281.503L185.445 281.496Z" fill="#683507"/>
<path d="M167.002 245.996C153.642 237.655 136.992 248.824 124.873 254.113C105.371 262.619 84.4458 249.625 63.9881 253.427C51.3606 255.772 38.9353 262.583 32.1509 274.034C31.4885 275.145 33.1829 276.162 33.8313 275.051C42.0103 261.249 57.615 255.888 72.404 254.163C86.7747 252.49 100.518 260.087 115.049 258.961C125.013 258.189 135.562 251.162 144.62 247.511C168.411 237.915 182 261.061 186.093 281.271C186.351 282.548 188.234 282.006 187.976 280.737C185.082 266.451 179.399 253.73 166.995 245.989L167.002 245.996Z" fill="#411800"/>
<path d="M47.5602 270.473C47.0729 271.7 47.0508 273.731 47.0009 275.08C46.9566 276.307 48.5071 276.307 48.5514 275.08C48.5736 274.412 48.6677 273.744 48.7397 273.083C48.784 272.715 48.8283 272.347 48.8671 271.986C48.8671 271.932 48.9059 271.755 48.928 271.598C48.9335 271.571 48.9557 271.557 48.9612 271.523L49 270.957C48.9889 270.058 47.9091 269.588 47.5547 270.473H47.5602Z" fill="#411800"/>
<path d="M55.3623 267.989C55.2949 266.674 52.934 266.667 53.0014 267.989C53.0604 269.113 53.2966 270.207 53.6676 271.28C54.1061 272.543 56.3827 272.007 55.9442 270.729C55.6407 269.833 55.4129 268.929 55.3623 267.989Z" fill="#411800"/>
<path d="M62 263.939V268.061C62 269.313 64 269.313 64 268.061V263.939C64 262.687 62 262.687 62 263.939Z" fill="#411800"/>
<path d="M70.0077 264.01C70.2145 265.995 70.2395 267.973 70.2458 269.973C70.2458 271.342 72 271.342 72 269.973C72 267.973 71.9749 265.995 71.7619 264.01C71.6178 262.671 69.8699 262.656 70.0077 264.01Z" fill="#411800"/>
<path d="M61.9035 279.031C61.9305 277.334 62.1064 275.645 61.9035 273.956C61.7546 272.689 59.8534 272.674 60.009 273.956C60.212 275.645 60.0361 277.327 60.009 279.031C59.9888 280.327 61.8832 280.319 61.9035 279.031Z" fill="#411800"/>
<path d="M51.8895 280.733C51.5959 282.067 51.31 283.409 51.0241 284.744C50.7537 286.006 52.84 286.545 53.1104 285.275C53.3963 283.94 53.6899 282.598 53.9758 281.256C54.2462 279.994 52.1677 279.455 51.8895 280.725V280.733Z" fill="#411800"/>
<path d="M38 279.044V283.95C38 285.35 40 285.35 40 283.95V279.044C40 277.652 38 277.652 38 279.044Z" fill="#411800"/>
<path d="M44 271.886V269.114C44 267.629 42 267.629 42 269.114V271.886C42 273.371 44 273.371 44 271.886Z" fill="#411800"/>
<path d="M55 262.766V264.238C55 265.254 57 265.254 57 264.238V262.766C57 261.745 55 261.745 55 262.766Z" fill="#411800"/>
<path d="M44 283.006C44 284.773 44.0509 286.504 44.2733 288.25C44.4385 289.566 46.154 289.004 45.9888 287.695C45.7918 286.134 45.7792 284.574 45.7792 282.998C45.7792 281.667 44 281.667 44 282.998V283.006Z" fill="#411800"/>
<path d="M29.0317 282.078C29.2141 282.766 29.233 283.449 29.2393 284.162C29.2393 285.279 31 285.279 31 284.162C31 283.294 30.956 282.456 30.7296 281.618C30.4467 280.533 28.7487 280.998 29.0317 282.078Z" fill="#411800"/>
<path d="M62.1358 285.899C62.1053 284.704 59.9698 284.697 60.0003 285.899C60.0385 287.439 60.3512 288.887 60.885 290.354C61.2969 291.489 63.3636 291.005 62.9441 289.856C62.4637 288.548 62.1586 287.273 62.1281 285.899H62.1358Z" fill="#411800"/>
<path d="M68.0127 279.164C68.3086 280.885 68.5967 282.606 68.8848 284.328C69.0873 285.508 71.1819 285 70.9872 283.84C70.6914 282.118 70.4033 280.397 70.1151 278.669C69.9205 277.495 67.818 277.997 68.0127 279.164Z" fill="#411800"/>
<path d="M76.0222 275.407C76.3276 276.897 76.3275 278.388 76.3275 279.894C76.3275 281.401 79 281.336 79 279.894C79 278.179 78.9427 276.496 78.5991 274.814C78.3128 273.387 75.7358 273.996 76.0222 275.407Z" fill="#411800"/>
<path d="M78 263.9V268.105C78 269.298 80 269.298 80 268.105V263.9C80 262.7 78 262.7 78 263.9Z" fill="#411800"/>
<path d="M73 257.975V262.02C73 263.327 74 263.327 74 262.02V257.975C74 256.675 73 256.675 73 257.975Z" fill="#411800"/>
<path d="M86.5844 260.096C86.7243 258.997 85.219 258.525 85.0735 259.63C84.8888 261.04 85.0511 262.246 85.5715 263.544C85.98 264.569 87.3286 263.687 86.9257 262.668C86.59 261.836 86.4669 261.003 86.5844 260.09V260.096Z" fill="#411800"/>
<path d="M85.0063 271.991C85.0063 274.011 85.0188 276.022 85.2325 278.02C85.377 279.319 87.1361 279.334 86.9916 278.02C86.778 276.022 86.7654 274.011 86.7591 271.991C86.7591 270.67 85 270.67 85 271.991H85.0063Z" fill="#411800"/>
<path d="M93.9587 272.723C93.567 271.19 93.5726 269.605 93.567 268.005C93.567 266.665 92 266.665 92 268.005C92 269.783 92.0112 271.577 92.4421 273.281C92.7723 274.546 94.2833 274.003 93.9531 272.723H93.9587Z" fill="#411800"/>
<path d="M101.984 264.898C101.806 263.881 101.781 262.883 101.774 261.847C101.774 260.718 100 260.718 100 261.847C100 263.034 100.064 264.189 100.267 265.363C100.464 266.48 102.181 266.003 101.984 264.898Z" fill="#411800"/>
<path d="M98 272.968C98 274.753 98.0447 276.511 98.2679 278.275C98.4273 279.548 100.149 279.001 99.9896 277.741C99.7855 276.155 99.7856 274.561 99.7856 272.96C99.7856 271.68 98 271.68 98 272.96V272.968Z" fill="#411800"/>
<path d="M94 282.922V279.072C94 277.643 92 277.643 92 279.072V282.922C92 284.359 94 284.359 94 282.922Z" fill="#411800"/>
<path d="M86.1747 283.969C86.1436 282.681 83.9693 282.673 84.0003 283.969C84.0392 285.544 84.3187 287.033 85.0176 288.479C85.5845 289.653 87.4561 288.636 86.8969 287.47C86.3689 286.367 86.2057 285.165 86.1747 283.969Z" fill="#411800"/>
<path d="M76.7516 288.308C77.125 287 75.5972 286.44 75.2237 287.732C74.8333 289.095 74.9691 290.231 75.5123 291.477C76.0386 292.683 77.408 291.586 76.8817 290.379C76.5705 289.671 76.5365 289.071 76.7516 288.316V288.308Z" fill="#411800"/>
<path d="M94.107 285.758C93.792 284.433 91.7174 284.99 92.0325 286.315C92.3398 287.618 92.578 288.943 92.893 290.245C93.208 291.563 95.2826 291.013 94.9675 289.688C94.6525 288.386 94.422 287.06 94.107 285.758Z" fill="#411800"/>
<path d="M102.404 284.658C102.189 283.506 100.808 283.993 101.023 285.145C101.222 286.211 101.396 287.278 101.596 288.344C101.816 289.496 103.192 289.003 102.977 287.851C102.778 286.791 102.604 285.724 102.404 284.658Z" fill="#411800"/>
<path d="M107.187 275.691C106.954 274.479 104.784 274.996 105.017 276.202C105.379 278.062 105.982 279.812 106.938 281.508C107.557 282.619 109.493 281.652 108.882 280.548C108.015 278.995 107.508 277.381 107.195 275.684L107.187 275.691Z" fill="#411800"/>
<path d="M110.02 266.413C110.218 267.901 110.224 269.39 110.224 270.895C110.224 272.4 112 272.336 112 270.895C112 269.19 111.955 267.501 111.733 265.812C111.542 264.387 109.829 264.996 110.014 266.413H110.02Z" fill="#411800"/>
<path d="M117.93 265.826C117.422 264.555 117.156 263.291 117.118 261.937C117.088 260.688 114.963 260.688 115.001 261.937C115.038 263.451 115.312 264.916 115.881 266.339C116.352 267.506 118.401 266.999 117.93 265.819V265.826Z" fill="#411800"/>
<path d="M116.014 274.267C116.204 275.519 116.217 276.757 116.223 278.023C116.223 279.326 118 279.326 118 278.023C118 276.577 117.943 275.159 117.727 273.727C117.537 272.453 115.83 272.993 116.014 274.267Z" fill="#411800"/>
<path d="M113.079 283.93C113.045 285.405 112.901 286.832 113.114 288.3C113.292 289.527 115.137 289.003 114.965 287.79C114.78 286.508 114.965 285.212 115 283.93C115.027 282.69 113.114 282.69 113.079 283.93Z" fill="#411800"/>
<path d="M122 284.071V287.929C122 289.357 124 289.357 124 287.929V284.071C124 282.643 122 282.643 122 284.071Z" fill="#411800"/>
<path d="M126.776 272.068C126.776 270.644 125 270.644 125 272.068C125 273.469 125.044 274.837 125.266 276.206C125.495 277.599 127.207 277.005 126.979 275.613C126.789 274.434 126.776 273.271 126.776 272.068Z" fill="#411800"/>
<path d="M126.777 259.972C126.777 258.676 125 258.676 125 259.972C125 261.42 125.013 262.853 125.267 264.272C125.495 265.547 127.202 265.007 126.98 263.732C126.764 262.493 126.777 261.226 126.777 259.965V259.972Z" fill="#411800"/>
<path d="M134 255.999C134 257.769 134.051 259.501 134.268 261.248C134.427 262.566 136.149 262.003 135.99 260.7C135.798 259.138 135.786 257.576 135.786 255.999C135.786 254.667 134 254.667 134 255.999Z" fill="#411800"/>
<path d="M144.894 259.419C144.265 257.99 144.01 256.562 143.974 254.994C143.946 253.669 141.965 253.669 142 254.994C142.036 256.938 142.411 258.69 143.189 260.464C143.72 261.671 145.425 260.626 144.901 259.426L144.894 259.419Z" fill="#411800"/>
<path d="M140.364 264.965C140.364 263.678 138 263.678 138 264.965C138 266.773 138.067 268.552 138.667 270.296C139.097 271.532 141.377 271.003 140.946 269.767C140.406 268.188 140.364 266.594 140.355 264.965H140.364Z" fill="#411800"/>
<path d="M136 278.03V272.965C136 271.678 134 271.678 134 272.965V278.03C134 279.323 136 279.323 136 278.03Z" fill="#411800"/>
<path d="M144.779 275.926C144.791 274.688 143.051 274.695 143.039 275.926C143.014 278.074 142.884 280.188 143.3 282.309C143.536 283.52 145.213 283.007 144.977 281.796C144.598 279.853 144.754 277.896 144.779 275.926Z" fill="#411800"/>
<path d="M134.268 284.746C134.051 286.493 134 288.233 134 289.995C134 291.335 135.786 291.335 135.786 289.995C135.786 288.425 135.798 286.863 135.99 285.301C136.149 283.998 134.427 283.436 134.268 284.746Z" fill="#411800"/>
<path d="M150.608 283.962C150.574 285.578 150.326 287.152 150.019 288.748C149.771 290.008 152.077 290.543 152.325 289.275C152.666 287.516 152.957 285.749 153 283.962C153.034 282.679 150.642 282.679 150.608 283.962Z" fill="#411800"/>
<path d="M151 272.023V275.977C151 277.341 153 277.341 153 275.977V272.023C153 270.659 151 270.659 151 272.023Z" fill="#411800"/>
<path d="M151 261.974V258.026C151 256.658 149 256.658 149 258.026V261.974C149 263.342 151 263.342 151 261.974Z" fill="#411800"/>
<path d="M161.992 257.109C161.961 254.748 161.63 252.447 160.081 250.431C159.311 249.427 157.4 250.358 158.186 251.369C159.531 253.118 159.775 255.06 159.798 257.102C159.814 258.299 162.016 258.299 162 257.102L161.992 257.109Z" fill="#411800"/>
<path d="M169 260.997V256.003C169 254.666 167 254.666 167 256.003V260.997C167 262.334 169 262.334 169 260.997Z" fill="#411800"/>
<path d="M158.451 263.701C158.028 265.782 158 267.906 158 270.044C158 271.319 159.578 271.319 159.578 270.044C159.578 268.083 159.584 266.136 159.973 264.232C160.221 262.993 158.699 262.469 158.451 263.708V263.701Z" fill="#411800"/>
<path d="M167.356 269.012C167.364 267.663 165.063 267.663 165.055 269.012C165.03 271.447 164.759 273.957 165.704 276.287C166.213 277.546 168.44 276.999 167.923 275.725C167.051 273.575 167.331 271.259 167.356 269.012Z" fill="#411800"/>
<path d="M176 264.073C176.023 266.465 176.217 268.825 176.451 271.194C176.593 272.608 178.128 272.004 177.991 270.598C177.775 268.428 177.615 266.258 177.598 264.073C177.586 262.642 175.989 262.642 176 264.073Z" fill="#411800"/>
<path d="M173.238 273.978C173.019 275.983 173 277.988 173 280.008C173 281.331 174.754 281.331 174.754 280.008C174.754 277.988 174.766 275.983 174.992 273.978C175.136 272.663 173.382 272.685 173.238 273.978Z" fill="#411800"/>
<path d="M162.764 277.864C162.782 276.712 161.069 276.712 161.057 277.864C161.039 279.702 160.838 281.572 161.319 283.365C161.612 284.479 163.258 284.005 162.965 282.891C162.539 281.264 162.752 279.536 162.764 277.871V277.864Z" fill="#411800"/>
<path d="M170.669 283.042C170.688 281.649 168.077 281.657 168.058 283.042C168.021 285.466 167.825 287.836 168.45 290.222C168.804 291.584 171.313 291.007 170.968 289.652C170.399 287.467 170.632 285.258 170.669 283.042Z" fill="#411800"/>
<path d="M180.004 281.919C180.227 284.63 180.017 287.355 180.004 290.073C180.004 291.309 181.887 291.309 181.893 290.073C181.914 287.355 182.123 284.637 181.893 281.919C181.799 280.697 179.903 280.69 180.004 281.919Z" fill="#411800"/>
<path d="M189.545 3.67311C190.735 1.91439 193.325 1.91439 194.515 3.67311L221.589 43.6945C221.991 44.2883 222.592 44.7186 223.283 44.9075L270.37 57.7703C272.458 58.3408 273.273 60.8683 271.912 62.5513L241.579 100.037C241.119 100.606 240.882 101.323 240.914 102.054L242.99 149.923C243.083 152.06 240.973 153.605 238.964 152.871L193.06 136.095C192.395 135.852 191.665 135.852 191 136.095L145.097 152.871C143.087 153.605 140.977 152.06 141.07 149.923L143.146 102.054C143.178 101.323 142.942 100.606 142.481 100.037L112.149 62.5513C110.787 60.8683 111.602 58.3408 113.69 57.7703L160.777 44.9075C161.468 44.7186 162.07 44.2883 162.471 43.6945L189.545 3.67311Z" fill="#FFBF42"/>
<path d="M183.215 81.288C182.271 81.288 181.359 81.112 180.479 80.76C179.599 80.392 178.847 79.88 178.223 79.224C177.599 78.552 177.191 77.752 176.999 76.824L180.287 75.72C180.527 76.488 180.911 77.048 181.439 77.4C181.967 77.752 182.559 77.928 183.215 77.928C183.775 77.928 184.263 77.816 184.679 77.592C185.095 77.352 185.415 77.024 185.639 76.608C185.879 76.176 185.999 75.68 185.999 75.12C185.999 74.56 185.879 74.072 185.639 73.656C185.415 73.24 185.095 72.92 184.679 72.696C184.263 72.456 183.775 72.336 183.215 72.336C182.639 72.336 182.127 72.464 181.679 72.72C181.231 72.96 180.903 73.336 180.695 73.848L177.647 73.128L179.087 63.12H189.071V66.24H180.599L181.991 64.56L181.007 72L179.999 71.112C180.399 70.456 180.903 69.976 181.511 69.672C182.135 69.368 182.935 69.216 183.911 69.216C185.111 69.216 186.143 69.472 187.007 69.984C187.871 70.48 188.535 71.168 188.999 72.048C189.479 72.928 189.719 73.952 189.719 75.12C189.719 76.288 189.431 77.344 188.855 78.288C188.295 79.216 187.527 79.952 186.551 80.496C185.575 81.024 184.463 81.288 183.215 81.288ZM199.038 81.288C197.614 81.288 196.358 80.904 195.27 80.136C194.198 79.368 193.358 78.288 192.75 76.896C192.142 75.504 191.838 73.888 191.838 72.048C191.838 70.192 192.134 68.576 192.726 67.2C193.334 65.824 194.174 64.752 195.246 63.984C196.334 63.216 197.59 62.832 199.014 62.832C200.47 62.832 201.734 63.216 202.806 63.984C203.894 64.752 204.734 65.832 205.326 67.224C205.934 68.6 206.238 70.208 206.238 72.048C206.238 73.888 205.934 75.504 205.326 76.896C204.734 78.272 203.894 79.352 202.806 80.136C201.734 80.904 200.478 81.288 199.038 81.288ZM199.062 77.928C199.798 77.928 200.422 77.696 200.934 77.232C201.446 76.768 201.838 76.096 202.11 75.216C202.382 74.336 202.518 73.28 202.518 72.048C202.518 70.816 202.382 69.768 202.11 68.904C201.838 68.024 201.438 67.352 200.91 66.888C200.398 66.424 199.766 66.192 199.014 66.192C198.278 66.192 197.654 66.424 197.142 66.888C196.63 67.352 196.238 68.024 195.966 68.904C195.694 69.768 195.558 70.816 195.558 72.048C195.558 73.264 195.694 74.312 195.966 75.192C196.238 76.072 196.63 76.752 197.142 77.232C197.67 77.696 198.31 77.928 199.062 77.928Z" fill="#5F3F00"/>
<path d="M169.867 103.968V92.8981H171.944V94.4413L171.752 93.9961C172.019 93.5905 172.38 93.2789 172.835 93.0613C173.3 92.8338 173.829 92.72 174.422 92.72C175.194 92.72 175.892 92.908 176.515 93.2839C177.138 93.6598 177.633 94.1692 177.999 94.8123C178.365 95.4454 178.548 96.1576 178.548 96.949C178.548 97.7305 178.365 98.4428 177.999 99.0858C177.642 99.7288 177.153 100.238 176.53 100.614C175.906 100.99 175.199 101.178 174.408 101.178C173.854 101.178 173.339 101.079 172.864 100.881C172.399 100.674 172.024 100.372 171.737 99.9761L172.093 99.5161V103.968H169.867ZM174.141 99.1748C174.556 99.1748 174.922 99.0809 175.239 98.8929C175.555 98.7049 175.802 98.4428 175.981 98.1065C176.159 97.7701 176.248 97.3843 176.248 96.949C176.248 96.5138 176.159 96.1329 175.981 95.8065C175.802 95.4701 175.555 95.208 175.239 95.02C174.922 94.8221 174.556 94.7232 174.141 94.7232C173.745 94.7232 173.389 94.8172 173.072 95.0052C172.765 95.1931 172.523 95.4553 172.345 95.7916C172.177 96.128 172.093 96.5138 172.093 96.949C172.093 97.3843 172.177 97.7701 172.345 98.1065C172.523 98.4428 172.765 98.7049 173.072 98.8929C173.389 99.0809 173.745 99.1748 174.141 99.1748ZM183.724 101.178C182.923 101.178 182.191 100.995 181.528 100.629C180.875 100.263 180.351 99.7634 179.955 99.1303C179.569 98.4873 179.376 97.7602 179.376 96.949C179.376 96.128 179.569 95.4009 179.955 94.7677C180.351 94.1346 180.875 93.6351 181.528 93.269C182.191 92.903 182.923 92.72 183.724 92.72C184.525 92.72 185.253 92.903 185.905 93.269C186.558 93.6351 187.078 94.1346 187.463 94.7677C187.859 95.4009 188.057 96.128 188.057 96.949C188.057 97.7602 187.859 98.4873 187.463 99.1303C187.078 99.7634 186.558 100.263 185.905 100.629C185.253 100.995 184.525 101.178 183.724 101.178ZM183.724 99.1748C184.13 99.1748 184.481 99.0809 184.778 98.8929C185.084 98.7049 185.322 98.4428 185.49 98.1065C185.668 97.7701 185.757 97.3843 185.757 96.949C185.757 96.5138 185.668 96.1329 185.49 95.8065C185.322 95.4701 185.084 95.208 184.778 95.02C184.481 94.8221 184.13 94.7232 183.724 94.7232C183.319 94.7232 182.962 94.8221 182.656 95.02C182.349 95.208 182.107 95.4701 181.929 95.8065C181.76 96.1329 181.676 96.5138 181.676 96.949C181.676 97.3843 181.76 97.7701 181.929 98.1065C182.107 98.4428 182.349 98.7049 182.656 98.8929C182.962 99.0809 183.319 99.1748 183.724 99.1748ZM189.22 101V92.8981H191.446V101H189.22ZM189.22 92.171V89.9452H191.446V92.171H189.22ZM192.926 101V92.8981H195.004V94.5006L194.885 94.1445C195.073 93.6598 195.374 93.3037 195.79 93.0761C196.215 92.8387 196.71 92.72 197.274 92.72C197.887 92.72 198.421 92.8486 198.876 93.1058C199.341 93.363 199.702 93.7241 199.96 94.189C200.217 94.6441 200.345 95.1783 200.345 95.7916V101H198.12V96.2665C198.12 95.9499 198.055 95.6778 197.927 95.4503C197.808 95.2228 197.635 95.0447 197.407 94.9161C197.19 94.7875 196.933 94.7232 196.636 94.7232C196.349 94.7232 196.092 94.7875 195.864 94.9161C195.637 95.0447 195.459 95.2228 195.33 95.4503C195.211 95.6778 195.152 95.9499 195.152 96.2665V101H192.926ZM205.563 101.089C204.584 101.089 203.822 100.827 203.278 100.303C202.744 99.7684 202.477 99.0265 202.477 98.0768V94.8271H201.112V92.8981H201.186C201.601 92.8981 201.918 92.7942 202.135 92.5865C202.363 92.3787 202.477 92.0671 202.477 91.6516V91.0581H204.703V92.8981H206.602V94.8271H204.703V97.9284C204.703 98.2054 204.752 98.4378 204.851 98.6258C204.95 98.8039 205.103 98.9374 205.311 99.0265C205.519 99.1155 205.776 99.16 206.083 99.16C206.152 99.16 206.231 99.1551 206.32 99.1452C206.409 99.1353 206.503 99.1254 206.602 99.1155V101C206.454 101.02 206.285 101.04 206.097 101.059C205.909 101.079 205.731 101.089 205.563 101.089ZM210.933 101.178C210.043 101.178 209.266 100.97 208.604 100.555C207.951 100.129 207.506 99.5606 207.268 98.8484L208.9 98.0768C209.108 98.512 209.39 98.8533 209.746 99.1006C210.102 99.348 210.498 99.4716 210.933 99.4716C211.25 99.4716 211.492 99.4073 211.66 99.2787C211.829 99.1501 211.913 98.972 211.913 98.7445C211.913 98.6258 211.883 98.5269 211.824 98.4477C211.764 98.3587 211.675 98.2796 211.557 98.2103C211.438 98.1411 211.289 98.0817 211.111 98.0323L209.731 97.6465C209.069 97.4585 208.559 97.1568 208.203 96.7413C207.847 96.3159 207.669 95.8163 207.669 95.2426C207.669 94.7381 207.797 94.2978 208.055 93.9219C208.312 93.546 208.673 93.2542 209.138 93.0465C209.603 92.8288 210.137 92.72 210.74 92.72C211.532 92.72 212.224 92.908 212.818 93.2839C213.421 93.6499 213.847 94.1692 214.094 94.8419L212.447 95.6135C212.328 95.2772 212.111 95.0101 211.794 94.8123C211.487 94.6045 211.136 94.5006 210.74 94.5006C210.454 94.5006 210.226 94.56 210.058 94.6787C209.9 94.7974 209.82 94.9606 209.82 95.1684C209.82 95.2772 209.85 95.3761 209.909 95.4652C209.969 95.5542 210.063 95.6333 210.191 95.7026C210.33 95.7718 210.498 95.8361 210.696 95.8955L211.987 96.2813C212.66 96.4791 213.174 96.7809 213.53 97.1865C213.886 97.5822 214.064 98.0718 214.064 98.6555C214.064 99.16 213.931 99.6002 213.664 99.9761C213.406 100.352 213.045 100.649 212.58 100.866C212.115 101.074 211.566 101.178 210.933 101.178Z" fill="#5F3F00"/>
<path d="M69.0892 369V351.12H72.8092V365.76H80.3692V369H69.0892ZM88.0222 369.288C86.6302 369.288 85.4222 368.984 84.3982 368.376C83.3742 367.752 82.5822 366.92 82.0222 365.88C81.4622 364.84 81.1822 363.688 81.1822 362.424C81.1822 361.112 81.4702 359.944 82.0462 358.92C82.6382 357.896 83.4302 357.088 84.4222 356.496C85.4142 355.904 86.5342 355.608 87.7822 355.608C88.8222 355.608 89.7422 355.776 90.5422 356.112C91.3422 356.432 92.0142 356.888 92.5582 357.48C93.1182 358.072 93.5422 358.76 93.8302 359.544C94.1182 360.312 94.2622 361.152 94.2622 362.064C94.2622 362.32 94.2462 362.576 94.2142 362.832C94.1982 363.072 94.1582 363.28 94.0942 363.456H84.2782V360.816H92.0542L90.3502 362.064C90.5102 361.376 90.5022 360.768 90.3262 360.24C90.1502 359.696 89.8382 359.272 89.3902 358.968C88.9582 358.648 88.4222 358.488 87.7822 358.488C87.1582 358.488 86.6222 358.64 86.1742 358.944C85.7262 359.248 85.3902 359.696 85.1662 360.288C84.9422 360.88 84.8542 361.6 84.9022 362.448C84.8382 363.184 84.9262 363.832 85.1662 364.392C85.4062 364.952 85.7742 365.392 86.2702 365.712C86.7662 366.016 87.3662 366.168 88.0702 366.168C88.7102 366.168 89.2542 366.04 89.7022 365.784C90.1662 365.528 90.5262 365.176 90.7822 364.728L93.6622 366.096C93.4062 366.736 92.9982 367.296 92.4382 367.776C91.8942 368.256 91.2462 368.632 90.4942 368.904C89.7422 369.16 88.9182 369.288 88.0222 369.288ZM100.012 369L94.8517 355.896H98.7397L102.316 365.808H100.828L104.404 355.896H108.292L103.132 369H100.012ZM115.714 369.288C114.322 369.288 113.114 368.984 112.09 368.376C111.066 367.752 110.274 366.92 109.714 365.88C109.154 364.84 108.874 363.688 108.874 362.424C108.874 361.112 109.162 359.944 109.738 358.92C110.33 357.896 111.122 357.088 112.114 356.496C113.106 355.904 114.226 355.608 115.474 355.608C116.514 355.608 117.434 355.776 118.234 356.112C119.034 356.432 119.706 356.888 120.25 357.48C120.81 358.072 121.234 358.76 121.522 359.544C121.81 360.312 121.954 361.152 121.954 362.064C121.954 362.32 121.938 362.576 121.906 362.832C121.89 363.072 121.85 363.28 121.786 363.456H111.97V360.816H119.746L118.042 362.064C118.202 361.376 118.194 360.768 118.018 360.24C117.842 359.696 117.53 359.272 117.082 358.968C116.65 358.648 116.114 358.488 115.474 358.488C114.85 358.488 114.314 358.64 113.866 358.944C113.418 359.248 113.082 359.696 112.858 360.288C112.634 360.88 112.546 361.6 112.594 362.448C112.53 363.184 112.618 363.832 112.858 364.392C113.098 364.952 113.466 365.392 113.962 365.712C114.458 366.016 115.058 366.168 115.762 366.168C116.402 366.168 116.946 366.04 117.394 365.784C117.858 365.528 118.218 365.176 118.474 364.728L121.354 366.096C121.098 366.736 120.69 367.296 120.13 367.776C119.586 368.256 118.938 368.632 118.186 368.904C117.434 369.16 116.61 369.288 115.714 369.288ZM123.834 369V350.832H127.434V369H123.834ZM136.661 369V354.264H133.181V351.12H140.381V369H136.661Z" fill="#242E49"/>
<path d="M72.2708 409V397.08H77.2788C77.9935 397.08 78.6068 397.208 79.1188 397.464C79.6415 397.72 80.0415 398.083 80.3188 398.552C80.6068 399.011 80.7508 399.56 80.7508 400.2C80.7508 400.787 80.5961 401.32 80.2868 401.8C79.9881 402.269 79.5455 402.637 78.9588 402.904L78.9428 402.312C79.4548 402.504 79.8761 402.76 80.2068 403.08C80.5481 403.389 80.8041 403.752 80.9748 404.168C81.1455 404.573 81.2308 405.005 81.2308 405.464C81.2308 406.563 80.8788 407.427 80.1748 408.056C79.4708 408.685 78.5108 409 77.2948 409H72.2708ZM73.8388 407.56H77.3588C78.0521 407.56 78.6068 407.373 79.0228 407C79.4388 406.627 79.6468 406.12 79.6468 405.48C79.6468 404.84 79.4388 404.333 79.0228 403.96C78.6068 403.576 78.0521 403.384 77.3588 403.384H73.8388V407.56ZM73.8388 401.976H77.2468C77.8228 401.976 78.2868 401.811 78.6388 401.48C78.9908 401.139 79.1668 400.707 79.1668 400.184C79.1668 399.64 78.9908 399.224 78.6388 398.936C78.2868 398.648 77.8228 398.504 77.2468 398.504H73.8388V401.976ZM86.9809 409.192C86.1489 409.192 85.4076 408.995 84.7569 408.6C84.1063 408.205 83.5943 407.667 83.2209 406.984C82.8476 406.291 82.6609 405.517 82.6609 404.664C82.6609 403.8 82.8423 403.032 83.2049 402.36C83.5783 401.688 84.0796 401.16 84.7089 400.776C85.3489 400.381 86.0636 400.184 86.8529 400.184C87.4929 400.184 88.0583 400.301 88.5489 400.536C89.0503 400.76 89.4716 401.069 89.8129 401.464C90.1649 401.848 90.4316 402.291 90.6129 402.792C90.8049 403.283 90.9009 403.795 90.9009 404.328C90.9009 404.445 90.8903 404.579 90.8689 404.728C90.8583 404.867 90.8423 405 90.8209 405.128H83.7489V403.848H89.9569L89.2529 404.424C89.3489 403.869 89.2956 403.373 89.0929 402.936C88.8903 402.499 88.5916 402.152 88.1969 401.896C87.8023 401.64 87.3543 401.512 86.8529 401.512C86.3516 401.512 85.8929 401.64 85.4769 401.896C85.0609 402.152 84.7356 402.52 84.5009 403C84.2769 403.469 84.1863 404.029 84.2289 404.68C84.1863 405.309 84.2823 405.864 84.5169 406.344C84.7623 406.813 85.1036 407.181 85.5409 407.448C85.9889 407.704 86.4743 407.832 86.9969 407.832C87.5729 407.832 88.0583 407.699 88.4529 407.432C88.8476 407.165 89.1676 406.824 89.4129 406.408L90.6609 407.048C90.4903 407.443 90.2236 407.805 89.8609 408.136C89.5089 408.456 89.0876 408.712 88.5969 408.904C88.1169 409.096 87.5783 409.192 86.9809 409.192ZM96.7931 412.52C96.1851 412.52 95.6197 412.424 95.0971 412.232C94.5851 412.04 94.1424 411.773 93.7691 411.432C93.4064 411.101 93.1291 410.712 92.9371 410.264L94.3291 409.624C94.4784 410.029 94.7611 410.371 95.1771 410.648C95.6037 410.936 96.1371 411.08 96.7771 411.08C97.2677 411.08 97.7104 410.984 98.1051 410.792C98.5104 410.611 98.8304 410.333 99.0651 409.96C99.2997 409.597 99.4171 409.155 99.4171 408.632V406.696L99.6891 406.984C99.3904 407.571 98.9584 408.019 98.3931 408.328C97.8384 408.637 97.2251 408.792 96.5531 408.792C95.7424 408.792 95.0171 408.605 94.3771 408.232C93.7371 407.848 93.2357 407.331 92.8731 406.68C92.5104 406.019 92.3291 405.288 92.3291 404.488C92.3291 403.677 92.5104 402.947 92.8731 402.296C93.2357 401.645 93.7317 401.133 94.3611 400.76C95.0011 400.376 95.7264 400.184 96.5371 400.184C97.2091 400.184 97.8171 400.339 98.3611 400.648C98.9157 400.947 99.3584 401.363 99.6891 401.896L99.4651 402.296V400.376H100.921V408.632C100.921 409.379 100.745 410.045 100.393 410.632C100.041 411.219 99.5504 411.677 98.9211 412.008C98.3024 412.349 97.5931 412.52 96.7931 412.52ZM96.6811 407.352C97.1931 407.352 97.6517 407.224 98.0571 406.968C98.4731 406.712 98.8037 406.371 99.0491 405.944C99.2944 405.507 99.4171 405.021 99.4171 404.488C99.4171 403.965 99.2944 403.485 99.0491 403.048C98.8037 402.611 98.4731 402.264 98.0571 402.008C97.6517 401.752 97.1931 401.624 96.6811 401.624C96.1584 401.624 95.6837 401.752 95.2571 402.008C94.8304 402.264 94.4944 402.611 94.2491 403.048C94.0144 403.475 93.8971 403.955 93.8971 404.488C93.8971 405.021 94.0144 405.507 94.2491 405.944C94.4944 406.371 94.8251 406.712 95.2411 406.968C95.6677 407.224 96.1477 407.352 96.6811 407.352ZM103.068 409V400.376H104.556V409H103.068ZM103.068 399V397.08H104.556V399H103.068ZM106.705 409V400.376H108.161V402.056L107.921 401.912C108.134 401.368 108.475 400.947 108.945 400.648C109.425 400.339 109.985 400.184 110.625 400.184C111.243 400.184 111.793 400.323 112.273 400.6C112.763 400.877 113.147 401.261 113.425 401.752C113.713 402.243 113.857 402.797 113.857 403.416V409H112.353V403.896C112.353 403.416 112.267 403.011 112.097 402.68C111.926 402.349 111.681 402.093 111.361 401.912C111.051 401.72 110.694 401.624 110.289 401.624C109.883 401.624 109.521 401.72 109.201 401.912C108.891 402.093 108.646 402.355 108.465 402.696C108.283 403.027 108.193 403.427 108.193 403.896V409H106.705ZM115.826 409V400.376H117.282V402.056L117.042 401.912C117.255 401.368 117.597 400.947 118.066 400.648C118.546 400.339 119.106 400.184 119.746 400.184C120.365 400.184 120.914 400.323 121.394 400.6C121.885 400.877 122.269 401.261 122.546 401.752C122.834 402.243 122.978 402.797 122.978 403.416V409H121.474V403.896C121.474 403.416 121.389 403.011 121.218 402.68C121.047 402.349 120.802 402.093 120.482 401.912C120.173 401.72 119.815 401.624 119.41 401.624C119.005 401.624 118.642 401.72 118.322 401.912C118.013 402.093 117.767 402.355 117.586 402.696C117.405 403.027 117.314 403.427 117.314 403.896V409H115.826ZM128.915 409.192C128.083 409.192 127.342 408.995 126.691 408.6C126.041 408.205 125.529 407.667 125.155 406.984C124.782 406.291 124.595 405.517 124.595 404.664C124.595 403.8 124.777 403.032 125.139 402.36C125.513 401.688 126.014 401.16 126.643 400.776C127.283 400.381 127.998 400.184 128.787 400.184C129.427 400.184 129.993 400.301 130.483 400.536C130.985 400.76 131.406 401.069 131.747 401.464C132.099 401.848 132.366 402.291 132.547 402.792C132.739 403.283 132.835 403.795 132.835 404.328C132.835 404.445 132.825 404.579 132.803 404.728C132.793 404.867 132.777 405 132.755 405.128H125.683V403.848H131.891L131.187 404.424C131.283 403.869 131.23 403.373 131.027 402.936C130.825 402.499 130.526 402.152 130.131 401.896C129.737 401.64 129.289 401.512 128.787 401.512C128.286 401.512 127.827 401.64 127.411 401.896C126.995 402.152 126.67 402.52 126.435 403C126.211 403.469 126.121 404.029 126.163 404.68C126.121 405.309 126.217 405.864 126.451 406.344C126.697 406.813 127.038 407.181 127.475 407.448C127.923 407.704 128.409 407.832 128.931 407.832C129.507 407.832 129.993 407.699 130.387 407.432C130.782 407.165 131.102 406.824 131.347 406.408L132.595 407.048C132.425 407.443 132.158 407.805 131.795 408.136C131.443 408.456 131.022 408.712 130.531 408.904C130.051 409.096 129.513 409.192 128.915 409.192ZM134.615 409V400.376H136.071V401.96L135.911 401.736C136.114 401.245 136.423 400.883 136.839 400.648C137.255 400.403 137.762 400.28 138.359 400.28H138.887V401.688H138.135C137.527 401.688 137.037 401.88 136.663 402.264C136.29 402.637 136.103 403.171 136.103 403.864V409H134.615Z" fill="#242E49"/>
</svg>
